<svg width="84" height="42" viewBox="0 0 84 42" fill="none" xmlns="http://www.w3.org/2000/svg">
  <g clip-path="url(#clip0_234_5187)">
    <path d="M17.3892 41.6471H14.5987L14.3408 41.2089C14.4154 41.01 14.4993 40.8081 14.5055 40.5905C14.5365 39.3786 14.6888 35.5254 14.0114 34.7206C13.0015 33.7107 10.9785 33.8909 10.6864 35.426C10.3664 37.1164 10.8978 39.4563 10.6492 41.1654C10.6181 41.3891 10.5404 41.5165 10.3571 41.644H7.56659V35.9636C7.56659 35.8144 7.1533 34.7672 6.99793 34.6056C6.38577 33.9686 4.90041 34.0028 4.22921 34.5062C4.13599 34.5777 3.71338 35.3328 3.71338 35.3825V41.6408H0.637024V31.6287H3.71649L3.81282 32.592C5.58716 30.7773 8.48328 31.1906 9.98106 33.1669H10.1644C11.7896 30.7928 15.7951 30.8612 17.0442 33.6113C17.1064 33.7511 17.3892 34.5621 17.3892 34.6149V41.6408V41.6471Z" fill="white"/>
    <path d="M41.8384 28.3627V41.6469H38.7589V40.2983C37.2953 41.7712 34.7783 42.2311 33.0816 40.8732C29.4521 37.9677 31.2047 30.5752 36.5029 31.4856C37.3823 31.6379 38.069 32.2936 38.7589 32.7908V28.3627H41.8384ZM36.0088 34.1798C33.8989 34.5465 33.7746 38.061 35.6732 38.8533C39.2374 40.3418 40.1231 33.4651 36.0088 34.1798Z" fill="white"/>
    <path d="M26.438 41.6469V40.491C25.9564 40.8017 25.5586 41.2616 25.0024 41.4636C17.3301 44.2603 16.8827 28.891 25.223 31.7902L26.438 32.595L26.4629 31.7529L26.7519 31.4639L29.5299 31.5261L29.7132 31.9207C29.5175 34.8541 29.9618 38.0858 29.7194 40.982C29.6946 41.2741 29.6977 41.4698 29.4211 41.6469H26.438ZM23.6817 34.1767C22.1777 34.5154 21.7458 36.9547 22.5848 38.0858C23.6102 39.4686 25.8258 39.22 26.351 37.6135C26.9725 35.7211 25.8134 33.6919 23.6817 34.1767Z" fill="white"/>
    <path d="M80.9205 41.6471V40.2985C78.7671 42.4892 75.5261 42.1474 74.0221 39.4004C71.9214 35.569 74.743 29.873 79.516 31.7903L80.9237 32.7909V31.635H84.0031V41.3581L83.7141 41.6471H80.9237H80.9205ZM77.9747 34.1768C75.6783 34.6958 76.1196 39.2015 78.6708 39.0897C81.9211 38.9498 81.4923 33.3813 77.9747 34.1768Z" fill="white"/>
    <path d="M58.5875 41.6469V40.2983C57.4191 41.4201 56.5086 41.821 54.8492 41.6314C50.5827 41.1404 49.8649 34.1643 53.3235 32.0512C55.1289 30.9481 57.1363 31.3396 58.5875 32.7908V31.6348H61.67V41.6469H58.5906H58.5875ZM55.8343 34.1767C53.6249 34.649 53.7399 38.409 55.8871 39.0585C56.8815 39.3599 58.4228 38.3438 58.5812 37.3059C58.864 35.429 57.9194 33.7292 55.8374 34.1767H55.8343Z" fill="white"/>
    <path d="M72.0644 34.9069H69.1776L68.7892 34.043C68.3324 33.6453 67.4188 33.6764 66.8595 33.8349C66.3964 34.6272 66.6606 34.9473 67.3939 35.2456C69.1061 35.9448 71.7754 35.8205 72.0582 38.2878C72.5833 42.8681 63.7241 42.7811 63.404 38.3717H66.4835L66.7165 39.1019C67.2727 39.3909 68.5934 39.5463 68.9974 39.0584L69.1621 38.4991C67.829 37.0106 64.1653 37.6663 63.7955 35.1897C63.0529 30.2178 71.8407 30.0966 72.0675 34.9069H72.0644Z" fill="white"/>
    <path d="M43.9577 31.6348H47.0403L47.1366 33.173C48.0129 32.1133 48.8892 31.5105 50.3124 31.4421V34.7143C49.4734 34.6676 47.7861 34.6677 47.379 35.5346C47.3199 35.6589 47.0403 36.4917 47.0403 36.5445V41.6469H44.2498L43.9608 41.3579V31.6348H43.9577Z" fill="white"/>
    <path d="M52.8107 23.5495C52.6429 22.4122 52.27 21.4022 52.4689 20.2214C53.6808 13.065 65.9737 13.5311 67.8289 6.60777C66.9712 6.69478 65.9955 6.28149 65.4175 5.64758C65.2435 5.45802 65.0633 5.37723 65.1347 5.06649C65.5511 5.04784 65.7686 5.37723 66.1975 5.44249C69.799 5.98939 70.3925 0.831063 66.8656 0.635295C67.5119 -0.200603 68.9724 0.309016 69.6591 0.827956C72.0115 2.60851 70.9674 6.43376 68.0215 6.60466C68.5964 8.39454 70.0662 9.97001 71.6168 10.9986C75.1593 13.3478 82.8409 15.2651 83.4064 20.1934C83.5369 21.3308 83.3225 22.4246 83.2293 23.5464H52.8107V23.5495Z" fill="white"/>
    <path d="M83.8104 24.1277H52.2358V30.0971H83.8104V24.1277Z" fill="white"/>
    <path d="M23.1597 19.1213C23.8931 21.6725 25.1609 25.6065 21.8173 26.7283C20.68 27.1105 18.3712 27.2473 17.961 25.8582H17.6751C17.498 25.9359 17.4607 26.256 17.3271 26.3741C16.2705 27.3187 13.2097 27.2597 12.4764 25.8582C11.3142 27.1696 8.80649 27.297 7.26521 26.6382C6.66237 26.3803 5.98495 25.5351 5.6711 24.9571C5.12108 23.9441 5.02475 22.0112 3.25973 22.9932C1.84274 23.7825 2.44559 24.9819 2.75322 26.2405C2.08202 26.197 0.876335 27.1168 0.475476 26.3057C-1.21807 22.8751 1.87071 19.9262 5.31063 20.5104C7.73754 20.9205 6.94514 24.0963 8.66355 24.4723C11.2303 25.0348 11.3422 23.4842 11.6094 21.4302L13.9213 21.8186C13.7287 22.3437 13.4428 23.8571 13.7659 24.2828L15.7174 24.4817C16.7242 24.1864 16.5782 21.3618 17.1126 21.2561L19.12 21.629C19.0641 22.6079 18.3587 23.9006 19.4401 24.4848C20.1517 24.5531 20.9628 24.6495 21.5314 24.1398C22.1622 23.1703 20.5619 19.9448 20.854 19.7117L23.1566 19.1307L23.1597 19.1213Z" fill="white"/>
    <path d="M39.5824 24.0746C40.1449 24.7054 41.478 24.7023 42.0062 24.0062C42.8639 22.8751 43.0317 21.4892 44.3524 20.5756C47.1677 18.6242 50.4429 22.1107 49.2559 25.0938C48.3174 27.4462 45.5052 27.1043 43.6376 26.0789C42.056 27.1323 40.0175 27.3436 38.4731 26.1037C36.9753 27.1354 35.2445 27.1851 33.5105 26.7781C33.1749 26.7004 31.9661 26.4145 32.0407 25.9857L32.7958 24.1305C33.784 24.5562 37.1524 25.0845 36.7547 23.3537C36.5278 22.3624 34.9058 20.2152 34.9027 19.7926C34.9027 19.4942 36.2979 18.5434 36.5465 18.5372C37.1711 18.5247 38.3954 21.0107 38.6626 21.629C38.9299 22.2474 39.1878 23.6364 39.5824 24.0777V24.0746ZM45.6171 22.4152C43.8925 24.1243 45.0422 24.7644 47.0465 24.4257C47.6338 24.0404 46.9191 22.6359 46.3287 22.4245L45.6171 22.4152Z" fill="white"/>
    <path d="M24.9092 30.4665L24.3312 28.3721C25.6518 28.1267 27.8395 26.691 28.1285 25.3362C28.4454 23.857 27.4417 22.7757 27.2149 21.4395L29.2098 20.6688C32.2303 24.7396 29.707 29.8078 24.9061 30.4665H24.9092Z" fill="white"/>
  </g>
  <defs>
    <clipPath id="clip0_234_5187">
      <rect width="84" height="41.6116" fill="white" transform="translate(0 0.194092)"/>
    </clipPath>
  </defs>
</svg>