<svg width="75" height="18" viewBox="0 0 75 18" fill="none" xmlns="http://www.w3.org/2000/svg">
  <path d="M35.098 0.88147C36.2045 4.73089 38.1175 10.6668 33.0725 12.3594C31.3564 12.9361 27.8727 13.1424 27.2538 11.0466H26.8224C26.5552 11.1638 26.4989 11.6467 26.2973 11.8249C24.7031 13.2503 20.0847 13.1612 18.9782 11.0466C17.2246 13.0252 13.4409 13.2174 11.1153 12.2234C10.2056 11.8343 9.18351 10.559 8.70995 9.68686C7.88005 8.15834 7.7347 5.24196 5.07152 6.72359C2.93347 7.91453 3.84308 9.72436 4.30726 11.6233C3.2945 11.5576 1.47528 12.9455 0.870439 11.7218C-1.6849 6.54542 2.97567 2.09584 8.16606 2.97732C11.8279 3.59623 10.6323 8.38808 13.2252 8.95541C17.098 9.80407 17.2668 7.46441 17.6701 4.36517L21.1585 4.95126C20.8678 5.74365 20.4364 8.02705 20.924 8.6694L23.8685 8.96948C25.3877 8.52406 25.1673 4.26202 25.9738 4.10261L29.0027 4.66525C28.9183 6.1422 27.8539 8.09269 29.4856 8.97417C30.5593 9.07732 31.7831 9.22267 32.6411 8.45372C33.5929 6.99085 31.1782 2.12398 31.619 1.77232L35.0933 0.895535L35.098 0.88147Z" fill="white"/>
  <path d="M59.8778 8.35534C60.7264 9.30715 62.7379 9.30246 63.535 8.25219C64.8291 6.5455 65.0822 4.45434 67.0749 3.07586C71.3229 0.131352 76.2648 5.39208 74.4737 9.89323C73.0577 13.4426 68.8144 12.9268 65.9965 11.3796C63.61 12.969 60.5342 13.2879 58.2039 11.4171C55.944 12.9737 53.3324 13.0487 50.7161 12.4345C50.2097 12.3173 48.3858 11.8859 48.4983 11.2389L49.6377 8.43973C51.1287 9.08209 56.2112 9.87917 55.6111 7.26756C55.2688 5.77186 52.8213 2.53197 52.8166 1.89431C52.8166 1.44419 54.9218 0.00944749 55.2969 7.00823e-05C56.2394 -0.0186847 58.0867 3.73228 58.4899 4.66533C58.8932 5.59838 59.2823 7.69423 59.8778 8.36003V8.35534ZM68.9832 5.85157C66.381 8.43036 68.1158 9.39623 71.14 8.88516C72.0262 8.30376 70.9478 6.18447 70.057 5.86564L68.9832 5.85157Z" fill="white"/>
  <path d="M37.7378 17.9999L36.8657 14.8397C38.8584 14.4693 42.1592 12.3031 42.5953 10.2589C43.0735 8.02704 41.5591 6.39537 41.2168 4.37923L44.2269 3.21643C48.7843 9.35863 44.9771 17.0059 37.7331 17.9999H37.7378Z" fill="white"/>
</svg>