<svg width="16" height="17" viewBox="0 0 16 17" fill="none" xmlns="http://www.w3.org/2000/svg">
<path fill-rule="evenodd" clip-rule="evenodd" d="M7.99975 0.0576172C12.418 0.0576172 15.9998 3.63934 15.9998 8.05762C15.9998 12.4759 12.418 16.0576 7.99975 16.0576C3.58148 16.0576 -0.000244141 12.4759 -0.000244141 8.05762C-0.000244141 3.63934 3.58148 0.0576172 7.99975 0.0576172Z" fill="url(#paint0_linear_862_12420)"/>
<path d="M9.03921 15.99V9.81067H10.7813L11.0122 7.63583H9.03921L9.04214 6.54723C9.04214 5.97998 9.09603 5.67618 9.9108 5.67618H11V3.50098H9.25752C7.16452 3.50098 6.42795 4.55595 6.42795 6.33036V7.636H5.12323V9.81104H6.42795V15.9024C6.93624 16.0037 7.46171 16.0572 7.99975 16.0572C8.34732 16.0572 8.69453 16.0347 9.03921 15.99Z" fill="white"/>
<defs>
<linearGradient id="paint0_linear_862_12420" x1="7.99976" y1="-0.0881508" x2="7.99976" y2="16.7399" gradientUnits="userSpaceOnUse">
<stop stop-color="#00B2FF"/>
<stop offset="1" stop-color="#006AFF"/>
</linearGradient>
</defs>
</svg>
