<svg width="19" height="19" viewBox="0 0 19 19" fill="none" xmlns="http://www.w3.org/2000/svg">
<g clip-path="url(#clip0_862_12436)">
<path d="M9.5681 0.0576172C4.59751 0.0576172 0.568115 4.08701 0.568115 9.0576C0.568115 14.0282 4.59751 18.0576 9.5681 18.0576C14.5387 18.0576 18.5681 14.0282 18.5681 9.0576C18.5681 4.08701 14.5386 0.0576172 9.5681 0.0576172ZM7.16688 13.4087H5.19085V7.02466H7.16688V13.4087ZM6.16945 6.18863C5.5241 6.18863 5.00093 5.66119 5.00093 5.01067C5.00093 4.36008 5.52417 3.83268 6.16945 3.83268C6.81473 3.83268 7.3379 4.36008 7.3379 5.01067C7.33794 5.66123 6.81477 6.18863 6.16945 6.18863ZM14.5721 13.4087H12.6056V10.0576C12.6056 9.1385 12.2565 8.62545 11.5297 8.62545C10.7388 8.62545 10.3256 9.15979 10.3256 10.0576V13.4087H8.43033V7.02466H10.3256V7.88448C10.3256 7.88448 10.8957 6.82993 12.2493 6.82993C13.6031 6.82993 14.5721 7.6565 14.5721 9.36641L14.5721 13.4087Z" fill="#1151B8"/>
</g>
<defs>
<clipPath id="clip0_862_12436">
<rect width="18" height="18" fill="white" transform="translate(0.568115 0.0576172)"/>
</clipPath>
</defs>
</svg>
