<svg width="19" height="19" viewBox="0 0 19 19" fill="none" xmlns="http://www.w3.org/2000/svg">
<path d="M5.27245 15.6256L5.56434 15.7716C6.75452 16.4795 8.11519 16.8495 9.49998 16.8418C13.763 16.8321 17.2657 13.3211 17.2657 9.05808C17.2657 6.99783 16.4474 5.0193 14.9924 3.56082C13.5392 2.08726 11.5539 1.25684 9.4849 1.25684C5.24131 1.25684 1.74982 4.74882 1.74982 8.99192C1.74982 9.0255 1.74982 9.05857 1.7503 9.09214C1.76309 10.5348 2.16657 11.947 2.91787 13.1786L3.11245 13.4705L2.33409 16.3407L5.27245 15.6256Z" fill="#25D366"/>
<path d="M15.8583 2.68475C14.2018 0.9947 11.9294 0.0465589 9.56318 0.0577145H9.54809C4.67502 0.0577298 0.664935 4.06783 0.664935 8.94092C0.664935 8.96378 0.665423 8.98617 0.665423 9.00904C0.683778 10.5584 1.08486 12.0792 1.83299 13.436L0.568115 18.0576L5.28215 16.8414C6.5844 17.5564 8.04845 17.9249 9.534 17.9117C14.4251 17.8849 18.4347 13.852 18.4318 8.96038C18.4434 6.61018 17.5167 4.34998 15.8583 2.68475ZM9.56318 16.4036C8.24635 16.4104 6.9527 16.0572 5.82213 15.382L5.53024 15.236L2.72323 15.9657L3.45295 13.1928L3.25837 12.9009C2.53555 11.7338 2.15261 10.3882 2.15259 9.01535C2.15259 4.96685 5.48403 1.63539 9.53255 1.63539C13.5811 1.63539 16.9125 4.96685 16.9125 9.01535C16.9125 11.5645 15.5917 13.9395 13.4259 15.2847C12.2804 16.0184 10.9479 16.4069 9.58752 16.4036M13.8637 11.0036L13.3286 10.7604C13.3286 10.7604 12.5502 10.4198 12.0637 10.1766C12.0151 10.1766 11.9664 10.1279 11.9178 10.1279C11.7978 10.1309 11.6806 10.1644 11.5772 10.2252C11.4736 10.286 11.5286 10.2739 10.8475 11.0523C10.8013 11.1432 10.7064 11.2002 10.6043 11.1982H10.5556C10.4825 11.186 10.4147 11.1521 10.361 11.1009L10.1178 11.0036C9.59586 10.7826 9.11797 10.4696 8.70697 10.0793C8.60968 9.98199 8.46374 9.88469 8.36643 9.7874C8.00629 9.4424 7.69528 9.04954 7.44213 8.61984L7.39347 8.52255C7.35121 8.46308 7.31839 8.39744 7.29617 8.32795C7.28345 8.24368 7.30066 8.15762 7.34482 8.08472C7.38909 8.01174 7.53942 7.84146 7.68536 7.69552C7.83131 7.54959 7.83131 7.45229 7.9286 7.35499C7.97861 7.28554 8.01316 7.20619 8.02995 7.12228C8.04673 7.03836 8.04535 6.95183 8.02589 6.86849C7.79918 6.23901 7.53936 5.62194 7.24753 5.01987C7.16931 4.89822 7.04744 4.81116 6.90699 4.77662H6.37185C6.27456 4.77662 6.17727 4.82527 6.07996 4.82527L6.03132 4.87392C5.93402 4.92256 5.83673 5.01987 5.73942 5.06852C5.64213 5.11716 5.59349 5.26311 5.49619 5.36041C5.1561 5.79018 4.96792 6.32048 4.96106 6.86849C4.96645 7.25399 5.04916 7.63448 5.20429 7.98742L5.25295 8.13335C5.68977 9.06728 6.30068 9.90935 7.05294 10.6144L7.24753 10.809C7.38913 10.9263 7.51943 11.0566 7.63671 11.1982C8.6447 12.0753 9.84194 12.7078 11.1345 13.0468C11.2805 13.0955 11.4751 13.0955 11.621 13.1441H12.1075C12.3618 13.1316 12.6105 13.0653 12.8372 12.9495C12.9564 12.8955 13.0702 12.8304 13.1778 12.755L13.275 12.6576C13.3724 12.5604 13.4696 12.5117 13.5669 12.4144C13.662 12.3297 13.744 12.2313 13.8102 12.1225C13.9036 11.9046 13.9693 11.6759 14.0048 11.4415V11.1009C13.9611 11.0616 13.9119 11.0289 13.8588 11.0036" fill="white"/>
</svg>
