<svg width="377" height="243" viewBox="0 0 377 243" fill="none" xmlns="http://www.w3.org/2000/svg">
<g clip-path="url(#clip0_349_899)">
<g clip-path="url(#clip1_349_899)">
<g filter="url(#filter0_f_349_899)">
<path d="M432.481 224.589C400.582 226.958 337.706 224.361 260.114 165.804C230.155 143.195 152.503 84.0225 51.6328 118.647" stroke="url(#paint0_linear_349_899)" stroke-width="5.28955"/>
</g>
<g filter="url(#filter1_f_349_899)">
<path d="M436.448 4.11922C404.549 1.7506 341.674 4.34697 264.082 62.904C234.122 85.5135 156.47 144.686 55.6 110.061" stroke="url(#paint1_linear_349_899)" stroke-width="5.28955"/>
</g>
<path d="M436.448 4.11922C404.549 1.7506 341.674 4.34697 264.082 62.904C234.122 85.5135 156.47 144.686 55.6 110.061" stroke="url(#paint2_linear_349_899)" stroke-width="5.28955"/>
<g filter="url(#filter2_f_349_899)">
<path d="M432.481 224.589C400.582 226.958 337.706 224.361 260.114 165.804C230.155 143.195 152.503 84.0225 51.6328 118.647" stroke="url(#paint3_linear_349_899)" stroke-width="5.28955"/>
</g>
<g filter="url(#filter3_f_349_899)">
<path d="M432.481 224.589C400.582 226.958 337.706 224.361 260.114 165.804C230.155 143.195 152.503 84.0225 51.6328 118.647" stroke="url(#paint4_linear_349_899)" stroke-width="5.28955"/>
</g>
<g filter="url(#filter4_f_349_899)">
<path d="M432.481 224.589C400.582 226.958 337.706 224.361 260.114 165.804C230.155 143.195 152.503 84.0225 51.6328 118.647" stroke="url(#paint5_linear_349_899)" stroke-width="5.28955"/>
</g>
<path d="M432.481 224.589C400.582 226.958 337.706 224.361 260.114 165.804C230.155 143.195 152.503 84.0225 51.6328 118.647" stroke="url(#paint6_linear_349_899)" stroke-width="5.28955"/>
</g>
<g clip-path="url(#clip2_349_899)">
<g filter="url(#filter5_f_349_899)">
<path d="M-55.4806 18.7302C-23.5816 16.3616 39.2936 18.958 116.886 77.515C146.845 100.125 224.497 159.297 325.367 124.672" stroke="url(#paint7_linear_349_899)" stroke-width="5.28955"/>
</g>
<g filter="url(#filter6_f_349_899)">
<path d="M-59.4477 239.2C-27.5488 241.569 35.3264 238.972 112.918 180.415C142.878 157.806 220.53 98.6336 321.4 133.258" stroke="url(#paint8_linear_349_899)" stroke-width="5.28955"/>
</g>
<g filter="url(#filter7_f_349_899)">
<path d="M-55.4806 18.7302C-23.5816 16.3616 39.2936 18.958 116.886 77.515C146.845 100.125 224.497 159.297 325.367 124.672" stroke="url(#paint9_linear_349_899)" stroke-width="5.28955"/>
</g>
<g filter="url(#filter8_f_349_899)">
<path d="M-59.4477 239.2C-27.5488 241.569 35.3264 238.972 112.918 180.415C142.878 157.806 220.53 98.6336 321.4 133.258" stroke="url(#paint10_linear_349_899)" stroke-width="5.28955"/>
</g>
<g filter="url(#filter9_f_349_899)">
<path d="M-55.4806 18.7302C-23.5816 16.3616 39.2936 18.958 116.886 77.515C146.845 100.125 224.497 159.297 325.367 124.672" stroke="url(#paint11_linear_349_899)" stroke-width="5.28955"/>
</g>
<g filter="url(#filter10_f_349_899)">
<path d="M-59.4477 239.2C-27.5488 241.569 35.3264 238.972 112.918 180.415C142.878 157.806 220.53 98.6336 321.4 133.258" stroke="url(#paint12_linear_349_899)" stroke-width="5.28955"/>
</g>
<g filter="url(#filter11_f_349_899)">
<path d="M-55.4806 18.7302C-23.5816 16.3616 39.2936 18.958 116.886 77.515C146.845 100.125 224.497 159.297 325.367 124.672" stroke="url(#paint13_linear_349_899)" stroke-width="5.28955"/>
</g>
<path d="M-55.4806 18.7302C-23.5816 16.3616 39.2936 18.958 116.886 77.515C146.845 100.125 224.497 159.297 325.367 124.672" stroke="url(#paint14_linear_349_899)" stroke-width="5.28955"/>
<g filter="url(#filter12_f_349_899)">
<path d="M-59.4477 239.2C-27.5488 241.569 35.3264 238.972 112.918 180.415C142.878 157.806 220.53 98.6336 321.4 133.258" stroke="url(#paint15_linear_349_899)" stroke-width="5.28955"/>
</g>
<path d="M-59.4477 239.2C-27.5488 241.569 35.3264 238.972 112.918 180.415C142.878 157.806 220.53 98.6336 321.4 133.258" stroke="url(#paint16_linear_349_899)" stroke-width="5.28955"/>
</g>
<g clip-path="url(#clip3_349_899)">
<rect x="130.123" y="63" width="115.753" height="115.753" rx="32" fill="url(#paint17_linear_349_899)"/>
<g clip-path="url(#clip4_349_899)">
<path d="M108.244 47.5105C110.727 49.9238 113.168 52.393 115.651 54.8064C116.865 55.9782 118.134 57.1082 119.404 58.2102C119.725 58.4892 119.697 58.6845 119.529 58.9914C119.069 59.8145 118.651 60.6515 118.176 61.4746C117.27 63.0509 116.572 64.7389 115.289 66.0921C114.982 66.4129 115.191 66.6361 115.554 66.7616C118.19 67.7242 120.38 69.4959 122.794 70.863C122.919 70.9327 123.003 71.2257 122.961 71.3792C122.18 73.9739 121.357 76.5547 120.59 79.1494C119.864 81.6186 119.223 84.1156 118.539 86.5988C118.441 86.9615 118.511 87.1707 118.916 87.2684C119.976 87.5334 121.022 87.8264 122.082 88.1054C123.98 88.6076 125.877 89.1377 127.802 89.598C129.95 90.1142 132.099 90.5606 134.261 91.0209C134.637 91.1047 134.749 91.3 134.749 91.6627C134.735 92.6252 134.763 93.6017 134.749 94.5643C134.721 96.3081 134.707 98.0379 134.61 99.7816C134.582 100.34 134.721 100.437 135.223 100.368C136.088 100.256 136.967 100.144 137.832 100.144C139.45 100.13 141.069 100.214 142.687 100.242C143.775 100.256 143.761 100.256 144.012 101.316C144.64 103.967 145.281 106.617 145.937 109.254C146.495 111.5 147.109 113.732 147.681 115.964C147.779 116.327 147.918 116.578 148.35 116.452C148.908 116.285 149.48 116.103 150.052 115.95C152.257 115.336 154.475 114.736 156.679 114.108C158.939 113.453 161.199 112.769 163.458 112.058C163.835 111.932 164.016 111.96 164.198 112.295C165.523 114.708 167.295 116.871 168.215 119.507C168.355 119.884 168.606 119.954 168.927 119.675C169.066 119.563 169.178 119.437 169.332 119.34C171.577 118.028 173.823 116.717 176.083 115.434C176.223 115.364 176.572 115.476 176.697 115.615C177.729 116.717 178.706 117.889 179.752 118.963C182.277 121.558 184.83 124.125 187.369 126.691C187.997 127.333 187.997 127.333 188.652 126.664C190.954 124.32 193.284 121.99 195.572 119.633C196.813 118.363 198.013 117.052 199.171 115.699C199.506 115.308 199.743 115.238 200.133 115.503C200.273 115.601 200.44 115.657 200.594 115.755C202.756 117.066 205.183 117.973 207.108 119.688C207.429 119.967 207.666 119.828 207.806 119.451C208.755 116.801 210.526 114.611 211.893 112.197C211.963 112.072 212.256 111.96 212.396 112.002C215.102 112.797 217.78 113.662 220.487 114.443C222.691 115.085 224.909 115.643 227.127 116.243C228.145 116.522 228.131 116.522 228.382 115.545C229.08 112.867 229.833 110.188 230.503 107.51C231.061 105.25 231.521 102.962 232.065 100.688C232.107 100.507 232.386 100.27 232.554 100.256C233.753 100.2 234.953 100.144 236.167 100.172C237.743 100.2 239.305 100.312 240.868 100.381C241.286 100.409 241.51 100.298 241.384 99.8095C241.3 99.5166 241.231 99.2097 241.231 98.9028C241.217 96.4475 241.231 93.9923 241.217 91.5371C241.217 91.1465 241.44 91.0628 241.733 91.007C243.463 90.6443 245.206 90.3374 246.922 89.9049C250.27 89.0679 253.604 88.1333 256.938 87.2823C257.455 87.1568 257.51 86.9196 257.385 86.4871C256.883 84.7294 256.394 82.9578 255.892 81.2C254.944 77.9497 253.981 74.6993 253.06 71.4489C253.004 71.2676 253.102 70.9188 253.242 70.8351C255.627 69.468 257.803 67.7242 260.426 66.7616C260.942 66.5663 260.928 66.3431 260.593 65.9525C260.161 65.4643 259.742 64.9481 259.422 64.3762C258.501 62.758 257.608 61.1258 256.729 59.4797C256.241 58.559 256.255 58.545 257.092 57.8615C257.176 57.7917 257.245 57.708 257.329 57.6383C259.24 55.7968 261.151 53.9554 263.049 52.1C264.639 50.5516 266.201 48.9892 267.806 47.4547C268.001 47.2594 268.112 47.1059 268.112 46.9385L267.178 46.9385C267.178 47.1896 266.927 47.4268 266.424 47.9429C264.388 49.9796 262.379 52.0303 260.314 54.0391C258.919 55.3923 257.441 56.6618 255.906 58.0568C255.404 57.1361 254.944 56.313 254.525 55.476C254.455 55.3365 254.497 55.0296 254.609 54.9319C256.366 53.2858 258.124 51.6536 259.896 50.0075C260.817 49.1566 261.723 48.2917 262.658 47.4547C262.867 47.2733 262.979 47.1059 262.965 46.9385L262.239 46.9385C259.533 49.4774 256.841 51.9884 254.079 54.5692C253.465 53.5927 252.865 52.6162 252.265 51.6397C253.576 50.5655 254.874 49.4914 256.157 48.4312C256.562 48.0964 256.966 47.7616 257.343 47.3988C257.496 47.2454 257.58 47.0919 257.566 46.9524L256.91 46.9524C256.436 47.3849 256.018 47.8173 255.557 48.194C254.553 49.031 253.521 49.8541 252.502 50.6771C252.112 50.998 251.819 51.2072 251.414 50.6074C251.024 50.0075 250.452 49.5193 249.949 48.9752C250.605 48.4591 251.233 47.9429 251.874 47.4407C252.098 47.2733 252.195 47.1059 252.195 46.9524L251.651 46.9524C250.884 47.5104 250.228 47.9708 249.573 48.4312C249.489 48.487 249.308 48.5149 249.224 48.4591C248.108 47.9429 246.992 47.4128 246.015 46.9524C246.015 46.9524 246.015 46.9524 246.029 46.9524L240.268 46.9524C240.254 47.622 240.128 48.2777 239.919 48.9613C239.319 50.9003 238.413 52.6441 237.059 54.1507C236.027 55.2946 234.702 56.02 233.321 56.6618C231.856 57.3453 230.308 57.3035 228.717 57.2198C228.717 56.4665 228.717 55.7271 228.717 54.9459C229.457 54.7645 230.224 54.639 230.963 54.4018C234.409 53.2579 236.641 50.9561 237.464 47.4128C237.492 47.2593 237.52 47.1199 237.534 46.9664L236.864 46.9664C236.878 47.9987 236.46 48.9194 235.916 49.7983C234.507 52.0582 232.526 53.6067 229.833 54.0949C229.457 54.1647 229.066 54.2065 228.606 54.2763C228.41 53.3974 228.229 52.6023 228.034 51.7373C228.41 51.6397 228.773 51.5281 229.15 51.4304C230.824 50.984 232.219 50.1331 233.07 48.5846C233.377 48.0266 233.544 47.4826 233.572 46.9664L232.986 46.9664C233 47.8174 232.512 48.5846 231.647 49.4356C230.67 50.3981 229.387 50.8166 228.062 51.0817C227.922 51.1096 227.699 50.984 227.615 50.8585C227.252 50.3423 226.918 49.8122 226.625 49.3658C227.42 49.0031 228.243 48.7241 228.968 48.2638C229.526 47.915 229.805 47.4407 229.805 46.9803L228.94 46.9803C228.927 47.1896 228.815 47.3989 228.62 47.5942C227.838 48.3893 226.834 48.6404 225.802 48.6265C225.341 48.6265 224.895 48.1522 224.421 47.915C223.723 47.5662 223.012 47.2454 222.495 46.9943C222.509 46.9803 222.523 46.9803 222.537 46.9664L218.227 46.9664C218.227 48.8078 217.292 50.3284 215.925 51.4862C214.46 52.7278 212.716 53.0905 210.805 52.6441C210.401 52.5465 210.247 52.4209 210.275 52.0024C210.303 51.6118 210.275 51.2212 210.275 50.8027C211.001 50.8027 211.628 50.8166 212.256 50.8027C214.488 50.7469 215.995 49.3937 216.483 47.7616C216.567 47.4965 216.595 47.2175 216.609 46.9524L215.967 46.9524C215.967 48.0406 215.283 49.0868 214.209 49.6727C212.94 50.3563 211.559 50.3005 210.178 50.1052C210.08 50.0912 209.968 49.9657 209.899 49.868C209.564 49.3658 209.243 48.8497 208.88 48.2777C209.564 48.3893 210.219 48.5707 210.875 48.5846C211.559 48.5986 212.27 48.5428 212.926 48.3754C213.512 48.2219 213.93 47.5384 213.916 46.9664L213.26 46.9664C213.26 47.2594 212.926 47.6639 212.633 47.8174C212.284 47.9987 211.824 48.0406 211.433 48.0266C210.066 47.9708 208.755 47.6639 207.527 47.064C207.499 47.0501 207.485 47.0222 207.471 46.9524L204.653 46.9524C204.653 47.0082 204.653 47.078 204.653 47.1477C204.611 48.4591 203.356 49.6727 202.045 49.7285C201.807 49.7425 201.57 49.8122 201.333 49.8122C200.845 49.8262 200.412 49.7983 200.245 49.1705C199.98 48.1522 199.338 47.4128 198.264 46.9664L198.278 46.9664L195.781 46.9664C195.781 46.9664 195.781 46.9664 195.781 46.9804C195.781 47.1896 195.502 47.4686 195.279 47.5662C193.688 48.2777 192.252 47.7337 190.675 46.9664L185.346 46.9664C185.36 46.9664 185.374 46.9804 185.388 46.9804C183.826 47.65 182.445 48.2777 180.896 47.5942C180.631 47.4826 180.436 47.1896 180.213 46.9804C180.227 46.9664 180.227 46.9664 180.241 46.9524L177.743 46.9524C177.743 46.9524 177.757 46.9525 177.757 46.9664C176.669 47.4268 176.055 48.2219 175.735 49.2682C175.665 49.4774 175.386 49.7285 175.177 49.7425C174.144 49.8401 172.721 49.603 171.996 48.6683C171.591 48.1522 171.41 47.5523 171.41 46.9524L168.592 46.9524C168.606 47.0361 168.606 47.1059 168.62 47.1896C167.378 47.4686 166.137 47.8034 164.881 47.9987C164.393 48.0824 163.807 47.9848 163.347 47.7894C163.068 47.6778 162.789 47.2593 162.761 46.9524L162.063 46.9524C162.063 46.9803 162.063 46.9943 162.063 47.0222C162.091 47.622 162.58 48.3196 163.263 48.4172C164.1 48.5428 164.979 48.5009 165.83 48.487C166.249 48.473 166.681 48.3475 167.113 48.2777C166.765 48.8218 166.5 49.3937 166.095 49.8262C165.858 50.0773 165.384 50.147 165.007 50.1889C163.347 50.3563 161.826 50.1191 160.682 48.7381C160.208 48.1661 160.013 47.5663 160.027 46.9664L159.399 46.9664C159.371 47.7337 159.692 48.4172 160.166 49.045C161.087 50.2586 162.356 50.8166 163.877 50.8166C164.463 50.8166 165.049 50.8166 165.732 50.8166C165.732 51.277 165.76 51.7792 165.718 52.2814C165.704 52.407 165.495 52.5744 165.342 52.6162C162.44 53.3974 159.594 51.9048 158.576 49.5472C158.255 48.7939 157.781 48.0127 157.753 47.2314C157.753 47.1477 157.753 47.0501 157.753 46.9664L153.428 46.9664C153.442 46.9664 153.456 46.9804 153.456 46.9804C152.773 47.3291 151.852 47.7197 151.001 48.2359C150.443 48.5846 149.899 48.766 149.299 48.5149C148.643 48.2498 147.988 47.9429 147.402 47.5523C147.165 47.3849 147.053 47.1757 147.081 46.9664L146.202 46.9664C146.202 47.4407 146.523 47.915 147.165 48.3196C147.848 48.752 148.643 49.0171 149.397 49.3519C149.048 49.868 148.643 50.4818 148.211 51.1375C146.091 50.719 144.179 49.9936 143.217 47.7894C143.091 47.5105 143.035 47.2454 143.035 46.9804L142.422 46.9804C142.394 47.929 142.924 48.7241 143.538 49.4495C144.43 50.5097 145.602 51.1933 146.983 51.4583C147.318 51.5281 147.653 51.6536 147.988 51.7513C147.779 52.6162 147.597 53.4253 147.402 54.2623C143.998 54.0391 141.599 52.2954 139.911 49.5472C139.381 48.6823 139.143 47.8174 139.157 46.9804L138.53 46.9804C138.516 48.0266 138.92 48.9892 139.408 49.8541C140.566 51.8768 142.24 53.4253 144.458 54.2484C145.184 54.5134 145.979 54.639 146.746 54.7924C147.137 54.8622 147.374 54.9738 147.346 55.4481C147.304 56.034 147.332 56.6199 147.332 57.1919C144.375 57.6383 141.906 56.6896 139.729 54.8761C137.539 53.0626 136.465 50.5795 135.809 47.915C135.74 47.6221 135.712 47.3012 135.726 46.9804L129.978 46.9804C129.978 46.9804 129.978 46.9804 129.992 46.9804C129.03 47.4268 127.941 47.9429 126.853 48.4451C126.728 48.5009 126.491 48.5009 126.379 48.4312C125.723 47.9987 125.096 47.5384 124.342 46.9943C124.342 46.9943 124.356 46.9943 124.356 46.9804L123.77 46.9804C123.77 47.2175 124.077 47.4407 124.691 47.9848C125.11 48.3614 125.612 48.6544 126.044 48.9613C125.389 49.6867 124.775 50.3842 124.063 51.1654C122.375 49.7704 120.729 48.4172 118.971 46.9664L118.358 46.9664C118.358 47.1199 118.455 47.2733 118.637 47.4267C120.311 48.8357 121.985 50.2447 123.701 51.6815C123.129 52.6162 122.529 53.5788 121.901 54.5971C119.153 52.0303 116.474 49.5193 113.74 46.9804L112.987 46.9804C112.987 47.1757 113.168 47.3709 113.559 47.7197C115.358 49.3658 117.13 51.0259 118.916 52.686C119.683 53.3974 120.436 54.1228 121.231 54.8203C121.524 55.0714 121.65 55.2807 121.427 55.6434C120.966 56.4106 120.548 57.2058 120.004 58.1684C116.126 54.4018 112.345 50.7329 108.467 46.9804L107.895 46.9804C107.895 47.1059 108.021 47.2872 108.244 47.5105ZM119.139 86.6825C120.604 81.5488 122.041 76.457 123.519 71.2676C124.426 71.7837 125.151 72.1883 125.863 72.5928C126.267 72.83 126.407 73.109 126.24 73.6112C125.179 76.9732 124.175 80.3351 123.143 83.6971C122.891 84.5341 122.933 84.576 123.784 84.7573C126.086 85.2735 128.374 85.8036 130.676 86.3337C131.82 86.5988 132.977 86.8778 134.121 87.1289C134.47 87.1986 134.679 87.3102 134.665 87.7008C134.651 88.5797 134.665 89.4446 134.665 90.4769C129.406 89.5143 124.37 87.9798 119.139 86.6825ZM133.354 76.2059C133.117 76.75 132.866 77.308 132.615 77.852C132.071 79.0238 132.126 79.1633 133.368 79.4144C134.01 79.54 134.665 79.5818 135.321 79.6516C135.154 80.4746 135.014 81.2838 134.805 82.065C134.763 82.2324 134.47 82.4695 134.331 82.4416C132.378 82.1347 130.425 81.772 128.472 81.4233C128.444 81.4233 128.416 81.3675 128.29 81.2419C129.016 79.2889 129.769 77.294 130.522 75.2712C131.527 75.606 132.392 75.8851 133.354 76.2059ZM137.832 75.9687C137.386 76.5407 136.744 77.0569 136.479 77.7265C135.907 79.1494 134.861 79.0796 133.689 78.8983C133.48 78.8704 133.256 78.8285 132.894 78.7588C133.256 77.9357 133.605 77.1545 133.968 76.3733C134.01 76.2756 134.233 76.2477 134.372 76.2338C135.516 76.1361 136.66 76.0525 137.832 75.9687ZM128.974 77.6986C128.541 78.8704 128.151 80.0422 127.732 81.214C127.565 81.6883 127.69 81.9255 128.234 82.0092C129.309 82.1766 130.369 82.4416 131.443 82.6369C132.517 82.8183 133.591 82.9578 134.721 83.1112C134.665 84.2551 134.624 85.3851 134.568 86.5709C130.941 85.7339 127.342 84.8968 123.701 84.0598C124.775 80.5304 125.863 76.9871 126.965 73.374C127.997 73.932 128.974 74.4482 130.006 75.0062C129.657 75.9269 129.295 76.8058 128.974 77.6986ZM146.453 99.6003C143.524 99.5305 140.58 99.4887 137.651 99.4747C136.87 99.4747 136.088 99.5863 135.349 99.6421C135.349 96.9079 135.349 94.1597 135.349 91.4116C135.349 90.5327 135.363 89.6538 135.349 88.775C135.335 88.1612 135.237 87.5613 135.237 86.9475C135.223 85.8176 135.196 84.6736 135.279 83.5437C135.349 82.6369 135.544 81.7302 135.712 80.8373C136.019 79.2052 136.995 77.9497 137.999 76.6942C139.143 75.2712 140.859 74.7132 142.24 73.7646C142.645 74.1413 143.035 74.49 143.468 74.8806C142.743 75.3828 141.989 75.8013 141.375 76.3594C139.227 78.3124 137.86 80.656 137.414 83.5995C137.051 85.971 137.079 88.3425 137.023 90.7141C136.967 92.8763 137.162 95.0386 137.232 97.2009C137.246 97.5636 137.358 97.7031 137.72 97.717C138.292 97.717 138.85 97.8007 139.422 97.8147C141.947 97.8565 144.458 97.9402 146.983 97.8984C149.718 97.8565 152.466 97.6473 154.963 96.4197C155.898 95.9593 156.679 95.1641 157.502 94.5085C157.892 94.2016 158.297 93.8947 158.618 93.518C159.12 92.8903 159.552 92.2067 160.083 91.4674C160.459 91.8998 160.808 92.2904 161.171 92.7229C160.25 94.09 159.622 95.778 158.241 96.9916C156.456 98.554 154.433 99.4329 152.075 99.5724C150.945 99.6421 149.815 99.7537 148.685 99.7677C147.918 99.8095 147.193 99.6142 146.453 99.6003ZM134.707 57.8615C134.177 58.6008 133.814 59.2425 133.298 59.7726C133.089 59.9819 132.601 60.0237 132.252 59.9819C130.634 59.7447 129.043 59.2844 127.425 59.2425C125.472 59.1867 123.547 59.5355 121.971 60.8886C121.943 60.9165 121.887 60.9026 121.65 60.9165C122.543 59.5494 123.338 58.266 124.217 57.0384C124.956 56.02 126.072 55.8108 127.23 56.1177C128.388 56.4246 129.518 56.857 130.648 57.2616C131.945 57.708 133.201 58.266 134.707 57.8615ZM128.332 59.8703C129.615 59.954 130.899 60.3725 132.14 60.7771C133.117 61.084 133.41 61.9349 132.838 62.7022C130.801 65.4643 128.151 67.2778 124.635 67.3197C122.738 67.3336 121.036 66.4966 119.543 65.3248C121.315 61.1258 124.007 59.5634 128.332 59.8703ZM131.61 64.976C132.182 64.4599 132.726 63.9298 133.284 63.3997C133.619 63.0788 133.94 62.9672 134.4 63.2183C134.972 63.5252 135.586 63.7484 136.353 64.0832C134.191 64.8784 133.256 66.7756 131.889 68.2264C131.415 68.7286 130.955 69.2727 130.397 69.7051C129.364 70.5003 128.22 70.4305 127.118 69.8865C125.947 69.3145 124.817 68.6589 123.603 68.0032C124.51 67.9474 125.319 67.9753 126.086 67.8358C128.206 67.4313 130.034 66.4129 131.61 64.976ZM133.94 66.664C134.805 65.548 135.907 64.7947 137.204 64.3483C137.623 64.2088 138.111 64.2367 138.557 64.1948C138.613 64.2506 138.669 64.2925 138.725 64.3483C137.539 66.5664 136.381 68.8123 135.126 71.0025C134.847 71.5047 134.275 71.8674 133.8 72.2301C133.41 72.5231 132.963 72.4533 132.503 72.272C131.527 71.9093 130.536 71.5884 129.448 71.2117C131.387 69.9841 132.657 68.3101 133.94 66.664ZM138.432 66.0223C138.864 64.9063 139.52 63.9437 140.622 63.316C141.306 62.9393 141.892 62.4092 142.575 61.921C142.198 62.8277 141.808 63.6647 141.501 64.5436C141.041 65.827 140.985 67.1662 141.096 68.5054C141.194 69.7749 140.524 70.5003 139.562 71.1141C138.502 71.7837 137.344 72.1185 136.102 72.272C135.628 72.3278 135.168 72.3975 134.679 72.4533C136.465 70.6119 137.511 68.3659 138.432 66.0223ZM141.933 70.6398C141.459 68.0869 141.473 65.5759 142.673 63.2044C143.775 61.056 145.226 59.2286 147.695 58.4474C148.058 59.0891 148.434 59.7447 148.741 60.3027C147.918 61.1677 147.053 61.921 146.37 62.8138C145.337 64.1669 144.737 65.7572 144.57 67.4592C144.5 68.2264 144.514 69.0216 144.57 69.8028C144.737 71.9372 146.188 73.109 147.89 74.0436C149.285 74.8109 150.82 75.0341 152.368 75.1317C153.749 75.2294 155.047 74.8109 156.316 74.3087C156.428 74.2668 156.553 74.211 156.707 74.1552C157.111 74.8248 157.488 75.4805 157.878 76.1222C154.754 78.8146 149.62 78.6611 146.328 76.3873C145.379 75.7316 144.472 74.9922 143.593 74.2529C142.505 73.3182 142.185 71.993 141.933 70.6398ZM183.644 51.291C183.323 52.1977 183.072 53.0487 183.421 53.9415C183.463 54.067 183.421 54.2623 183.337 54.3739C182.473 55.5736 181.482 56.2293 179.989 55.7829C179.641 55.6852 179.236 55.2249 179.124 54.8622C178.762 53.5788 179.376 52.2814 180.52 51.6257C180.673 51.542 180.91 51.5002 181.078 51.556C181.942 51.8489 182.752 51.5979 183.644 51.291ZM194.944 51.542C195.111 51.4862 195.376 51.5699 195.544 51.6676C196.688 52.393 197.218 53.5788 196.869 54.8622C196.757 55.2388 196.325 55.6852 195.948 55.8108C194.721 56.2014 193.284 55.5178 192.656 54.3739C192.6 54.2623 192.517 54.0949 192.558 54.0112C193.005 53.0905 192.642 52.2396 192.377 51.3049C193.27 51.5839 194.065 51.8629 194.944 51.542ZM245.346 57.2616C246.294 56.9128 247.229 56.5362 248.192 56.2572C250.731 55.5178 251.484 56.4804 252.53 58.0149C253.144 58.9217 253.66 59.8842 254.12 60.9305C253.883 60.7491 253.674 60.5259 253.409 60.3864C251.526 59.396 249.517 58.9914 247.396 59.2983C246.127 59.4797 244.872 59.8005 243.616 60.0516C243.197 60.1353 242.877 60.0935 242.626 59.675C242.263 59.0891 241.802 58.559 241.286 57.8754C242.807 58.2381 244.076 57.722 245.346 57.2616ZM252.154 60.4562C253.814 61.056 254.832 62.4231 255.781 63.8321C256.073 64.2646 256.255 64.7668 256.52 65.2829C254.776 66.5803 252.893 67.4313 250.731 67.3057C249.796 67.2499 248.861 66.9151 247.968 66.5664C246.169 65.8409 244.676 64.6691 243.476 63.1486C242.542 61.9489 242.737 61.1816 244.146 60.6375C246.783 59.6052 249.475 59.4936 252.154 60.4562ZM242.807 63.4694C244.09 64.5575 245.346 65.6875 246.727 66.6221C248.038 67.501 249.587 67.9056 251.177 67.9753C251.54 67.9893 251.902 67.8916 252.419 67.8219C252.153 68.0172 252 68.1567 251.833 68.2404C250.717 68.8263 249.615 69.454 248.471 69.9841C247.048 70.6537 245.848 70.1097 244.872 69.0634C243.839 67.9614 242.932 66.7477 241.9 65.6596C241.3 65.0318 240.547 64.5296 239.849 63.9716C240.366 63.7484 240.965 63.5392 241.51 63.2323C242.068 62.9393 242.402 63.1207 242.807 63.4694ZM246.559 71.2257C245.262 71.6581 244.104 72.2162 242.877 72.4115C242.081 72.537 241.426 71.8116 240.938 71.142C239.752 69.5238 238.873 67.7521 238.148 65.8828C237.938 65.3387 237.659 64.8226 237.366 64.2088C239.612 64.1809 241.077 65.3945 242.347 67.0128C243.532 68.5473 244.746 70.0818 246.559 71.2257ZM237.938 66.8454C238.566 68.8681 239.64 70.7235 241.258 72.3836C239.822 72.2999 238.524 72.1325 237.324 71.5744C236.906 71.3791 236.515 71.142 236.125 70.8909C235.302 70.3329 234.813 69.5935 234.883 68.5194C235.051 66.2176 234.632 64.0274 233.391 62.0046C235.302 63.2741 237.185 64.432 237.938 66.8454ZM234.2 66.0083C234.604 68.1567 234.283 70.2771 233.642 72.3417C233.474 72.8718 233.181 73.4159 232.805 73.8065C230.893 75.7595 228.759 77.3917 225.997 77.8939C223.486 78.3542 221.031 78.1868 218.841 76.6383C218.603 76.4709 218.366 76.3314 218.087 76.1501C218.492 75.4526 218.868 74.8248 219.203 74.2808C220.333 74.5458 221.407 74.8667 222.495 75.048C224.002 75.2991 225.495 75.0062 226.932 74.5319C228.103 74.1413 229.136 73.4996 230.056 72.6626C230.977 71.8395 231.34 70.7793 231.438 69.6354C231.772 65.8688 230.405 62.8556 227.378 60.5817C227.322 60.5399 227.28 60.498 227.197 60.4283C227.573 59.7726 227.936 59.103 228.327 58.4195C231.758 59.8284 233.544 62.4929 234.2 66.0083ZM230.084 80.2096C228.899 80.363 227.741 80.5862 226.611 80.098C225.662 79.6934 224.755 79.2331 223.988 78.8843C225.299 78.5635 226.764 78.2566 228.187 77.8241C228.843 77.6288 229.471 77.2382 230.029 76.8197C231.117 76.0106 232.135 76.2896 233.209 76.8337C234.73 77.6009 235.664 78.9541 236.725 80.2933C234.479 79.8469 232.275 79.9166 230.084 80.2096ZM209.633 93.8528C210.694 93.811 211.377 94.2713 211.949 95.0665C213.037 96.5731 213.316 98.3169 213.484 100.228C211.656 98.4843 209.55 97.4799 207.36 96.615C206.09 96.1128 204.988 95.4292 204.304 94.1737C203.956 93.532 203.454 92.9879 203.091 92.4857C204.235 92.8624 205.407 93.3646 206.648 93.6436C207.611 93.8668 208.643 93.8947 209.633 93.8528ZM173.07 92.3044C171.689 94.0481 170.796 96.0291 168.481 96.7126C166.695 97.2427 163.835 98.7912 162.552 100.228C162.649 98.1076 162.928 96.9916 163.751 95.5268C164.365 94.4387 165.16 93.7831 166.541 93.8528C168.801 93.9784 170.099 93.8249 173.07 92.3044ZM137.902 97.159C137.581 94.9828 137.776 92.9321 138.934 91.1465C139.994 89.5143 141.571 88.3983 143.398 87.7148C144.472 87.3102 145.602 87.0173 146.746 86.8638C147.723 86.7383 148.197 87.2405 148.113 88.2449C147.96 90.3513 147.123 92.2067 145.923 93.9226C144.221 96.3499 141.836 97.2846 138.948 97.1451C138.599 97.1451 138.265 97.159 137.902 97.159ZM139.283 80.3212C140.552 78.6611 141.738 77.029 143.831 76.443C144.486 76.2617 145.072 76.2617 145.686 76.6802C147.639 78.0334 149.815 78.7309 152.326 78.703C150.122 79.8469 148.071 80.7676 145.533 80.1956C143.538 79.7492 141.431 79.8469 139.283 80.3212ZM154.837 78.5774C155.632 78.2984 156.428 78.0055 157.237 77.7265C156.637 79.3586 156.079 80.9908 155.437 82.5811C154.572 84.7155 153.066 86.1802 150.778 86.7243C150.262 86.8499 149.69 86.7662 149.146 86.6964C148.518 86.6127 148.239 86.1384 148.197 85.5246C148.044 83.5297 148.881 81.9673 150.373 80.7118C151.671 79.5958 153.275 79.1075 154.837 78.5774ZM144.138 80.6141C145.519 80.656 146.9 80.9211 148.323 81.0885C147.625 82.4974 146.384 83.2786 144.919 83.6553C143.719 83.9622 142.464 84.0877 141.25 84.3667C140.078 84.6318 138.92 84.9945 137.734 85.3293C137.944 84.2272 138.069 82.9996 138.474 81.8697C138.641 81.3954 139.408 80.9489 139.953 80.8652C141.334 80.642 142.743 80.5723 144.138 80.6141ZM140.245 85.1758C141.18 84.9247 142.157 84.7852 143.133 84.6178C144.57 84.3667 146.035 84.2133 147.304 83.1252C147.234 84.0319 147.221 84.8131 147.067 85.5525C147.011 85.7897 146.579 86.0268 146.272 86.1105C144.11 86.7104 141.989 87.38 140.245 88.8726C139.157 89.8073 138.111 90.7699 137.748 92.2486C137.679 92.2346 137.595 92.2207 137.525 92.2067C137.623 90.714 137.707 89.2353 137.818 87.7427C137.93 86.25 138.948 85.5385 140.245 85.1758ZM148.504 89.7933C149.076 87.8822 149.104 87.8822 151.085 87.7008C151.266 87.6869 151.461 87.659 151.768 87.6311C150.192 89.7236 150.429 92.2067 149.843 94.4527C149.355 96.2941 148.602 97.0056 146.746 97.2567C146.411 97.2985 146.063 97.3264 145.714 97.3264C144.709 97.3404 143.705 97.3264 142.617 97.3264C145.993 95.8337 147.541 93.0437 148.504 89.7933ZM151.071 90.9791C151.266 89.6817 151.782 88.5518 152.619 87.5613C152.954 87.1707 153.414 86.9057 153.986 86.4453C154.126 88.8866 154.307 91.1326 154.335 93.3646C154.349 94.1597 154.014 94.9688 153.791 95.75C153.665 96.2244 153.317 96.4894 152.801 96.5731C151.712 96.7545 150.624 97.0056 149.453 97.2427C150.499 95.2199 150.75 93.0856 151.071 90.9791ZM154.879 90.3932C154.837 89.4167 154.628 88.4541 154.544 87.4776C154.461 86.5848 154.712 85.7618 155.13 84.9666C155.493 84.283 155.772 83.5297 156.149 82.6788C156.232 83.4739 156.288 84.1435 156.386 84.7992C156.609 86.3198 157.181 87.7148 158.074 88.9424C158.743 89.877 158.715 90.8256 158.283 91.7882C157.53 93.4901 156.107 94.5782 154.572 95.7082C155.102 93.8389 154.963 92.1091 154.879 90.3932ZM159.929 90.5048C158.548 88.8029 157.376 87.0033 157.014 84.7992C156.553 81.9952 156.902 79.3586 158.841 77.0569C159.483 77.4475 160.138 77.8241 160.627 78.1171C160.334 79.5818 159.845 80.935 159.831 82.2882C159.804 84.6318 160.431 86.8499 162.022 88.7192C163.319 90.2397 165.007 90.5187 166.834 90.4629C168.467 90.4211 170.029 89.9328 171.368 89.0679C172.554 88.3007 173.558 87.2405 174.702 86.2361C175.191 86.5151 175.846 86.8778 176.502 87.2544C175.33 90.9372 170.74 93.4204 167.56 93.239C166.444 93.1832 165.342 93.0716 164.226 92.974C162.426 92.8205 161.059 91.8998 159.929 90.5048ZM180.296 72.6765C180.324 72.6486 180.38 72.6626 180.533 72.6207C180.157 74.1692 179.822 75.6618 179.417 77.1266C179.362 77.3359 178.999 77.5312 178.734 77.573C176.934 77.866 175.749 78.9262 175.358 80.642C174.953 82.4277 175.637 84.3807 177.716 84.9666C180.533 85.7617 182.626 83.1531 182.249 80.7536C182.054 79.5679 181.468 78.689 180.575 77.9636C180.436 77.852 180.268 77.6149 180.296 77.4754C180.715 75.9548 181.189 74.4342 181.636 72.8997C182.096 73.6949 182.459 74.49 182.961 75.1875C184.021 76.6383 185.625 77.2522 187.257 77.8102C187.425 77.866 187.69 78.0613 187.69 78.1589C187.55 79.3865 187.536 80.6699 187.146 81.8278C186.1 84.9247 183.854 86.6546 180.575 86.8917C179.501 86.9615 178.371 87.0173 177.339 86.7522C176.334 86.4872 175.372 85.9152 174.521 85.3014C173.391 84.4783 172.317 83.5297 171.745 82.1905C171.466 81.5349 171.271 80.8373 171.173 80.1259C170.908 78.0194 171.55 76.0943 172.596 74.2947C172.68 74.1413 172.986 73.9739 173.14 74.0157C175.749 74.6714 178.176 74.5319 180.296 72.6765ZM178.371 56.5641C177.827 57.6243 177.59 58.6845 177.771 59.8284C177.799 59.9679 177.688 60.1911 177.562 60.2748C176.962 60.7073 176.376 61.1676 175.721 61.5164C175.023 61.8791 174.298 61.6838 173.768 61.1118C173.238 60.5538 173.042 59.8842 173.433 59.2007C173.782 58.5729 174.214 58.001 174.633 57.4151C174.73 57.2895 174.939 57.15 175.065 57.1779C176.223 57.3453 177.311 57.1221 178.371 56.5641ZM178.455 58.0149C178.553 57.7499 178.664 57.4848 178.79 57.2337C179.264 56.2851 179.264 56.299 180.324 56.4943C181.203 56.6617 181.998 56.3828 182.877 55.8247C182.696 57.1082 183.184 58.0289 183.937 58.8519C184.035 58.9496 184.119 59.1449 184.077 59.2704C183.672 60.9723 181.636 62.1023 180.017 61.5303C179.055 61.1816 177.841 59.6331 178.455 58.0149ZM196.269 56.3688C196.409 56.3269 196.674 56.4107 196.757 56.5223C197.748 57.8196 198.18 59.4378 196.925 60.8189C195.907 61.9349 194.205 62.0186 193.075 60.9305C192.656 60.5259 192.321 60.0237 192.014 59.5215C191.917 59.3541 191.959 58.9635 192.098 58.8101C192.824 57.987 193.27 57.0803 193.13 55.8247C194.191 56.5502 195.195 56.6896 196.269 56.3688ZM200.831 57.1919C200.998 57.1779 201.249 57.2616 201.347 57.3732C201.78 57.9452 202.226 58.5171 202.547 59.1449C202.951 59.9261 202.798 60.5538 202.184 61.1537C201.612 61.7117 200.956 61.8652 200.217 61.4746C199.589 61.1398 199.017 60.6933 198.445 60.2748C198.32 60.1911 198.208 59.9679 198.236 59.8284C198.473 58.6287 198.125 57.5546 197.581 56.4943C198.627 57.1081 199.687 57.3174 200.831 57.1919ZM200.566 74.3087C201.333 74.1971 202.1 74.0855 202.868 74.0157C203.035 74.0018 203.286 74.1413 203.37 74.2808C204.695 76.4709 205.225 78.8425 204.584 81.3396C204.374 82.1487 203.858 82.9438 203.314 83.5995C202.672 84.3667 201.863 84.9945 201.082 85.6222C199.338 87.0033 197.329 87.3381 195.195 86.8638C194.205 86.6406 193.2 86.3756 192.252 86.0129C191.15 85.5943 190.48 84.6736 189.81 83.725C188.597 82.0371 188.471 80.1259 188.318 78.1868C188.304 78.0752 188.471 77.852 188.583 77.8241C191.275 77.0987 193.395 75.7316 194.358 72.8858C194.804 74.3924 195.265 75.885 195.683 77.4056C195.725 77.573 195.558 77.8799 195.39 78.0055C193.967 79.1494 193.493 80.6281 193.842 82.3858C194.107 83.7111 195.628 84.9108 196.939 85.0642C197.943 85.1758 198.78 84.8829 199.548 84.3109C200.887 83.3065 201.18 80.8513 200.161 79.4423C199.436 78.4519 198.557 77.7125 197.274 77.6009C196.744 77.5591 196.576 77.2522 196.478 76.7639C196.227 75.5223 195.893 74.3087 195.6 73.0671C195.572 72.9416 195.558 72.816 195.516 72.5649C196.018 72.8997 196.423 73.1648 196.827 73.4298C197.971 74.1831 199.213 74.49 200.566 74.3087ZM209.564 81.9255C209.592 81.4512 209.62 80.9768 209.564 80.5025C209.508 80.0561 209.354 79.6237 209.243 79.1354C209.62 79.1912 209.968 79.2749 210.331 79.3028C210.694 79.3307 211.07 79.3028 211.489 79.3028C212.075 80.8652 212.34 82.4416 211.81 84.0738C211.238 85.8036 210.108 86.4453 208.155 86.0686C207.039 85.8594 206.076 85.3014 205.267 84.4783C204.946 84.1575 204.639 83.8087 204.318 83.4739C204.653 82.7904 204.974 82.1487 205.309 81.4651C205.672 81.7999 206.006 82.1905 206.425 82.4835C206.829 82.7764 207.29 83.0136 207.764 83.167C208.741 83.5158 209.48 82.9857 209.564 81.9255ZM206.216 85.957C207.387 86.7383 208.727 86.9754 210.108 86.6964C211.447 86.4313 212.633 84.576 212.647 82.8462C212.647 82.2324 212.675 81.6046 212.591 81.0047C212.507 80.4049 212.298 79.819 212.131 79.2052C212.954 78.9541 213.735 78.7169 214.6 78.4519C215.283 79.7492 215.674 81.1303 215.59 82.5811C215.506 83.9901 215.269 85.3851 214.586 86.6964C213.693 88.3704 212.563 89.6538 210.526 89.7933C206.941 90.0305 204.109 88.6913 201.975 85.7617C202.63 85.1479 203.244 84.576 203.83 84.018C204.625 84.6876 205.365 85.399 206.216 85.957ZM208.852 80.2235C208.95 80.6978 208.936 81.214 208.866 81.6883C208.755 82.3998 208.294 82.6369 207.625 82.3858C206.774 82.065 206.132 81.479 205.644 80.7257C205.504 80.5025 205.462 80.1956 205.448 79.9166C205.365 78.7867 205.323 77.6707 205.281 76.8337C205.895 77.2382 206.69 77.8799 207.569 78.3124C208.406 78.7309 208.671 79.4423 208.852 80.2235ZM186.699 87.8682C187.439 89.054 188.569 89.04 189.308 87.8543C189.741 87.1428 190.02 86.3337 190.368 85.5664C190.843 85.8733 191.415 86.2221 191.959 86.5988C192.042 86.6546 192.14 86.822 192.112 86.9196C191.763 88.6494 191.163 90.2537 189.629 91.2999C188.08 92.3462 187.104 92.0951 185.569 90.6443C184.537 89.6678 184.133 88.3286 183.854 86.9615C183.826 86.8499 183.923 86.6685 184.021 86.5988C184.565 86.2361 185.109 85.8873 185.597 85.5804C185.974 86.3616 186.267 87.1568 186.699 87.8682ZM186.351 84.7573C186.351 84.3388 186.769 83.9203 186.992 83.5018C187.369 82.7625 187.718 82.0092 187.983 81.4791C188.457 82.3719 189.057 83.446 189.601 84.562C189.713 84.7992 189.685 85.1758 189.573 85.4409C189.28 86.1802 188.973 86.9196 188.555 87.5753C188.29 87.9938 187.815 87.9659 187.425 87.6032C186.602 86.8359 186.365 85.8036 186.351 84.7573ZM183.742 88.7331C184.398 90.4769 185.472 91.8161 187.313 92.416C188.569 92.8205 189.559 92.1928 190.424 91.4534C191.526 90.5327 192.238 89.333 192.503 87.8961C192.558 87.5753 192.684 87.2684 192.768 86.9615C193.493 87.1149 194.163 87.2963 194.846 87.4079C195.195 87.4637 195.279 87.5892 195.237 87.924C195.056 89.6678 194.456 91.2023 193.354 92.5834C192.042 94.2155 190.466 95.3873 188.387 95.764C187.941 95.8477 187.425 95.764 186.992 95.6105C183.505 94.4666 181.552 91.9696 180.785 88.4681C180.715 88.1751 180.771 87.8682 180.771 87.5055C181.538 87.3242 182.347 87.1428 183.226 86.9475C183.393 87.5474 183.519 88.1612 183.742 88.7331ZM186.379 69.7749C186.365 70.4584 186.42 71.1699 186.574 71.8256C186.713 72.4394 187.467 72.9137 188.025 72.8718C188.722 72.83 189.197 72.4115 189.462 71.7837C189.824 70.9048 189.727 69.9841 189.531 69.0774C189.448 68.6728 189.392 68.2683 189.308 67.8219C189.894 68.1846 190.424 68.5194 190.954 68.8542C191.038 68.91 191.15 69.0076 191.15 69.0913C191.331 70.6956 191.429 72.272 190.34 73.667C188.806 75.62 186.337 75.1875 185.221 73.0253C184.579 71.7837 184.649 70.4445 184.858 69.1192C184.872 69.0076 185.025 68.8821 185.151 68.8123C185.639 68.4915 186.141 68.1706 186.685 67.8219C186.574 68.4915 186.393 69.1332 186.379 69.7749ZM187.439 67.5708C187.55 67.1523 187.774 66.7617 187.997 66.2176C188.778 67.9195 189.252 69.5238 188.973 71.2815C188.89 71.8116 188.625 72.2022 188.053 72.2301C187.439 72.258 187.16 71.8395 187.034 71.2954C186.741 70.012 187.118 68.7984 187.439 67.5708ZM184.23 69.2169C184.23 70.1794 184.147 71.0862 184.244 71.9651C184.412 73.5414 185.793 75.062 187.16 75.4526C189.029 75.9687 190.815 74.5598 191.442 73.095C191.903 72.0209 191.959 70.8909 191.791 69.747C191.763 69.6075 191.791 69.454 191.791 69.2727C191.917 69.2448 191.959 69.2308 192 69.2308C193.716 69.1611 193.814 69.2448 193.828 70.9885C193.856 73.4577 192.81 75.2991 190.578 76.3873C189.824 76.75 189.001 77.2243 188.206 77.2103C186.03 77.1685 184.3 76.1222 183.058 74.2947C182.082 72.8579 181.97 71.2815 182.361 69.6354C182.403 69.4819 182.598 69.2448 182.738 69.2308C183.212 69.175 183.686 69.2169 184.23 69.2169ZM199.478 79.9306C199.673 80.4328 199.743 80.9769 199.868 81.507C199.771 83.3484 198.278 84.5481 196.492 84.1296C195.641 83.9343 195.307 83.1949 194.93 82.5393C194.163 81.1861 194.4 79.1354 196.172 78.3821C197.343 77.8799 198.92 78.5495 199.478 79.9306ZM195.614 71.6721C195 70.9467 194.679 69.9702 194.232 69.0774C194.888 68.6868 195.362 68.4078 195.711 68.1985C196.423 69.1611 197.036 70.1934 197.86 71.0443C199.282 72.5091 201.947 72.4952 203.105 71.0583C204.165 69.7609 204.318 68.2543 203.76 66.7198C203.454 65.8688 202.937 65.1016 202.505 64.2925C202.951 64.0274 203.426 63.7484 203.914 63.4694C206.369 65.4922 206.523 69.0913 204.932 71.2117C204.249 72.1325 203.705 73.1508 202.491 73.4577C199.868 74.1413 197.455 73.8204 195.614 71.6721ZM200.915 69.3982C201.626 69.0216 201.905 68.3241 201.514 67.2081C201.263 66.4687 200.691 65.8409 200.231 65.1713C200.064 64.9202 199.84 64.711 199.645 64.4599C200.929 64.1251 201.849 64.4878 202.491 65.534C203.202 66.678 203.649 67.8637 203.328 69.2587C202.728 71.8395 199.966 71.979 198.431 70.7793C197.427 69.9981 196.855 68.9239 196.395 67.78C196.353 67.6684 196.339 67.515 196.381 67.4173C196.66 66.8593 196.967 66.3013 197.232 65.7991C197.72 66.7896 198.152 67.8079 198.738 68.7565C199.241 69.5656 200.217 69.7749 200.915 69.3982ZM200.691 66.7896C200.859 67.0686 200.998 67.3755 201.054 67.6963C201.138 68.1706 201.096 68.7286 200.566 68.8542C200.217 68.9379 199.659 68.8123 199.408 68.5612C198.418 67.5847 198.139 66.2455 197.79 64.9621C197.692 64.5854 197.692 64.1809 197.65 63.6787C198.989 64.5296 199.924 65.5759 200.691 66.7896ZM196.004 66.9011C195.209 68.1846 193.465 68.8821 192.014 68.5333C189.866 68.0172 188.638 66.5524 188.304 64.2646C188.764 64.0832 189.21 63.9158 189.671 63.7345C189.992 64.4041 190.271 65.1295 190.661 65.7712C191.373 66.957 192.21 67.2081 193.647 66.8035C194.539 66.5524 195.265 65.4224 195.153 64.4459C195.07 63.7624 195.028 63.0649 194.958 62.3255C195.404 62.2558 195.865 62.186 196.381 62.1023C197.176 63.7763 196.967 65.3527 196.004 66.9011ZM194.47 63.595C194.47 63.9437 194.525 64.2925 194.511 64.6412C194.498 65.548 194.009 66.1199 193.047 66.385C192.405 66.5663 191.526 66.1757 191.163 65.5061C190.898 65.0039 190.689 64.4738 190.466 63.9577C190.326 63.6089 190.41 63.316 190.592 62.9393C191.024 62.0465 191.303 61.0839 191.596 60.3167C192.098 60.7631 192.684 61.4885 193.437 61.8791C194.219 62.2836 194.47 62.8138 194.47 63.595ZM187.829 63.5531C186.058 63.4834 184.551 61.1676 185.249 59.5494C185.318 59.382 185.583 59.2425 185.779 59.1728C186.895 58.7822 187.467 58.2939 188.011 57.1919C188.485 58.2521 189.224 58.9077 190.257 59.1728C190.675 59.2704 190.801 59.5076 190.857 59.8842C191.177 61.8373 189.713 63.6368 187.829 63.5531ZM191.526 58.4753C191.317 58.6427 190.94 58.7124 190.661 58.6706C189.336 58.4892 188.178 56.9965 188.29 55.6434C188.304 55.5457 188.318 55.3923 188.373 55.3504C189.252 54.8064 189.322 53.8299 189.629 52.9789C190.271 53.5648 190.759 54.3739 191.763 54.3739C191.861 54.3739 191.973 54.5134 192.042 54.6111C192.865 55.7829 192.642 57.5546 191.526 58.4753ZM188.569 54.2065C188.471 54.4297 188.178 54.6948 187.997 54.6948C187.801 54.6948 187.522 54.4158 187.411 54.2065C186.672 52.6162 187.271 51.1654 187.983 49.5751C188.75 51.1793 189.322 52.6162 188.569 54.2065ZM187.634 55.3365C187.676 55.3644 187.704 55.4481 187.718 55.5039C188.053 56.7594 186.434 58.6985 185.137 58.6845C184.286 58.6706 183.226 56.9826 183.463 56.0619C183.575 55.6573 183.686 55.2667 183.812 54.8761C183.923 54.5553 184.16 54.4437 184.495 54.3042C185.109 54.0252 185.625 53.5369 186.183 53.1324C186.253 53.0905 186.267 52.9789 186.351 52.8255C186.644 53.8438 186.755 54.7924 187.634 55.3365ZM184.147 60.4701C184.272 60.3585 184.342 60.2051 184.537 59.954C184.495 61.2653 184.844 62.2976 185.569 63.1904C185.653 63.2881 185.667 63.4973 185.625 63.6229C185.318 64.3483 185.081 65.1155 184.649 65.7572C184.174 66.4687 183.379 66.5803 182.542 66.2594C181.887 66.0223 181.454 65.3666 181.468 64.5436C181.468 64.0414 181.51 63.5392 181.58 63.037C181.649 62.6045 181.831 62.3255 182.291 62.0744C182.989 61.6698 183.547 61.0142 184.147 60.4701ZM181.036 62.3255C180.98 63.0788 180.896 63.8321 180.882 64.5994C180.854 65.6456 181.454 66.5245 182.319 66.8035C183.658 67.236 184.593 66.9988 185.249 65.9386C185.667 65.255 185.974 64.5017 186.337 63.7624C186.769 63.9298 187.23 64.0972 187.676 64.2646C187.411 66.6361 186.141 67.8916 184.286 68.4775C182.765 68.9518 181.245 68.5194 180.227 67.2081C179.027 65.6735 178.72 63.9577 179.613 62.1163C180.129 62.186 180.575 62.2558 181.036 62.3255ZM177.227 68.7984C177.827 67.8498 178.26 66.7896 178.762 65.813C179.027 66.3013 179.32 66.8454 179.613 67.4173C179.655 67.501 179.683 67.6266 179.641 67.7103C179.138 68.9658 178.497 70.1097 177.381 70.9467C176.6 71.5326 174.702 71.7279 173.837 71.0722C172.931 70.3887 172.345 68.9379 172.61 67.6684C172.847 66.5245 173.433 65.5619 174.172 64.6691C174.242 64.5854 174.381 64.4878 174.479 64.4878C175.093 64.4459 175.693 64.418 176.432 64.3762C176.028 64.8644 175.651 65.269 175.33 65.7293C175.009 66.1897 174.702 66.678 174.479 67.1941C174.088 68.0869 174.34 68.9658 175.051 69.3843C175.749 69.7749 176.725 69.5935 177.227 68.7984ZM176.739 68.4357C176.418 68.8821 175.93 69.175 175.372 68.8402C174.814 68.5194 174.842 67.9614 175.037 67.4452C175.651 65.8688 176.823 64.7668 178.232 63.8461C178.204 65.548 177.729 67.0825 176.739 68.4357ZM172.847 65.4364C171.94 66.9848 171.577 68.5752 172.414 70.305C173.196 71.9093 174.66 72.3836 176.321 72.0069C178.148 71.5884 179.124 70.2631 179.864 68.6868C179.934 68.5473 179.989 68.4078 180.059 68.2683C180.087 68.2125 180.129 68.1706 180.157 68.1288C180.659 68.4217 181.133 68.7147 181.636 68.9937C181.036 72.2441 178.134 73.8204 176.028 73.7507C175.288 73.7228 174.549 73.667 173.823 73.5414C173.098 73.4159 172.428 73.095 172.01 72.4673C171.424 71.6023 170.713 70.7653 170.378 69.8028C169.666 67.7382 169.973 65.7572 171.508 64.0693C171.703 63.86 171.884 63.6508 172.066 63.4555C172.568 63.7484 173.042 64.0274 173.572 64.3343C173.335 64.697 173.07 65.0597 172.847 65.4364ZM179.097 78.2008C179.975 78.2147 180.98 78.9541 181.273 79.8329C181.719 81.1443 181.245 82.9159 180.171 83.7808C179.948 83.9622 179.599 84.1575 179.348 84.1156C178.539 83.9901 177.702 83.8506 176.976 83.5158C176.139 83.1252 176.251 82.2184 176.223 81.5349C176.237 79.54 177.437 78.1868 179.097 78.2008ZM168.313 83.167C169.025 82.8462 169.652 82.3021 170.294 81.8418C170.434 81.7441 170.503 81.5628 170.629 81.3814C171.006 82.0929 171.326 82.6927 171.619 83.2926C171.661 83.3902 171.633 83.5995 171.564 83.6832C170.643 84.6178 169.694 85.5106 168.425 85.9849C166.388 86.7383 164.463 85.7338 164.044 83.5716C163.765 82.1208 163.961 80.6978 164.519 79.3726C165.272 79.3168 166.011 79.261 166.737 79.2052C166.611 79.7911 166.444 80.377 166.388 80.9629C166.346 81.3814 166.388 81.8418 166.5 82.2603C166.737 83.1391 167.462 83.5576 168.313 83.167ZM170.573 80.0561C170.545 80.363 170.434 80.7257 170.238 80.949C169.834 81.3954 169.387 81.8557 168.857 82.1487C168.481 82.3579 167.811 82.5253 167.546 82.33C167.225 82.0929 167.044 81.4511 167.058 81.0047C167.072 80.3909 167.197 79.6934 167.532 79.1912C167.867 78.689 168.508 78.3821 169.039 78.0194C169.638 77.587 170.252 77.1824 170.727 76.8616C170.685 77.7962 170.657 78.9262 170.573 80.0561ZM163.877 79.2052C163.779 79.5818 163.668 79.9724 163.57 80.363C163.207 81.772 163.193 83.1949 163.737 84.5481C164.658 86.808 166.36 87.2544 168.829 86.4035C169.485 86.1803 170.099 85.8036 170.657 85.3851C171.187 84.9805 171.605 84.4225 172.08 83.9203C172.777 84.562 173.391 85.134 174.033 85.7338C172.401 88.1891 170.085 89.4446 167.225 89.7794C166.583 89.8491 165.928 89.8212 165.286 89.7654C163.333 89.5841 162.259 88.2867 161.436 86.6685C160.585 84.9805 160.25 83.181 160.501 81.3256C160.627 80.3491 161.017 79.4005 161.282 78.424C162.231 78.7169 163.012 78.9541 163.877 79.2052ZM176.711 88.9982C176.962 90.2676 177.199 91.565 177.464 92.8624C177.813 94.5364 177.855 96.1825 177.199 97.8147C176.725 98.9725 175.958 99.8793 174.898 100.507C173.768 101.163 173.098 100.967 172.512 99.7816C171.745 98.2471 171.675 96.6429 172.289 95.0246C172.931 93.3227 174.158 92.0254 175.316 90.7001C175.804 90.1142 176.279 89.5283 176.711 88.9982ZM163.793 99.9072C165.384 98.9446 167.03 98.1076 168.676 97.2427C169.304 96.9079 169.987 96.6568 170.713 96.3499C170.754 98.3308 169.764 99.7258 168.369 100.94C167.002 102.125 165.677 103.381 164.351 104.608C164.128 104.818 163.989 105.097 163.737 105.445C163.389 104.497 163.026 103.618 162.747 102.725C162.37 101.456 162.635 100.619 163.793 99.9072ZM166.025 103.702C167.044 102.753 168.174 101.902 169.192 100.94C169.848 100.326 170.364 99.5724 170.964 98.8609C171.243 99.4747 171.619 100.172 171.856 100.926C171.926 101.135 171.647 101.511 171.466 101.763C170.489 102.962 169.415 104.092 168.522 105.362C167.532 106.771 167.099 108.445 166.946 110.161C166.918 110.509 167.044 110.886 167.099 111.249C167.044 111.277 166.988 111.304 166.932 111.332C166.304 110.119 165.635 108.919 165.049 107.691C164.212 106.003 164.798 104.832 166.025 103.702ZM167.588 110.272C167.546 109.128 167.978 107.915 168.425 106.813C169.15 104.999 170.364 103.492 171.94 102.321C172.972 101.553 173.782 101.777 174.256 102.976C175.246 105.473 175.414 108.012 174.66 110.607C174.102 112.518 172.666 113.676 171.117 114.736C170.685 115.029 170.182 115.21 169.68 115.476C168.397 113.913 167.671 112.155 167.588 110.272ZM174.647 112.155C175.916 109.616 175.972 106.952 175.316 104.246C175.177 103.66 174.953 103.074 174.87 102.474C174.828 102.209 174.926 101.818 175.107 101.651C175.679 101.163 176.321 100.758 177.06 100.242C176.697 101.609 177.116 102.739 177.52 103.869C177.925 104.999 178.385 106.115 178.72 107.273C179.25 109.142 178.818 110.244 177.185 111.291C176.181 111.932 175.149 112.532 174.033 113.048C174.228 112.769 174.479 112.49 174.647 112.155ZM177.799 102.795C177.311 101.246 177.45 99.8095 178.315 98.275C179.543 100.116 180.701 101.86 181.859 103.604C182.431 104.469 182.793 105.445 182.835 106.478C182.849 106.84 182.556 107.301 182.277 107.58C181.51 108.333 180.659 109.017 179.738 109.826C179.696 107.203 178.511 105.069 177.799 102.795ZM179.655 99.3073C178.873 98.3448 178.497 97.2288 178.497 95.9593C178.497 95.2618 178.371 94.5782 178.274 93.7133C178.455 93.9505 178.539 94.0621 178.608 94.1737C179.655 95.9732 181.105 97.3543 182.975 98.2192C184.244 98.8051 184.677 99.7677 184.719 101.023C184.788 102.711 184.147 104.232 183.449 105.836C182.626 103.311 181.245 101.26 179.655 99.3073ZM186.713 99.0423C184.509 98.5401 182.486 97.5775 180.84 96.0151C179.278 94.5503 178.232 92.7229 177.827 90.6024C177.646 89.6538 177.702 88.6773 177.646 87.6311C178.455 87.6311 179.124 87.6032 179.794 87.659C179.934 87.6729 180.143 87.9659 180.171 88.1472C180.506 91.4116 182.291 93.7412 184.956 95.4431C186.992 96.7545 189.113 96.7126 191.136 95.3873C193.563 93.811 195.209 91.6627 195.753 88.761C195.962 87.6171 195.99 87.6171 197.162 87.6171C197.511 87.6171 197.86 87.6171 198.236 87.6171C198.655 90.6303 197.678 93.0995 195.837 95.2757C194.037 97.4101 191.61 98.4982 188.973 99.112C188.262 99.2934 187.439 99.2097 186.713 99.0423ZM199.296 89.0121C200.385 90.3234 201.542 91.6068 202.575 92.974C204.067 94.9409 204.625 97.1172 203.621 99.4887C202.868 101.274 201.807 101.288 200.259 99.8514C198.152 97.9263 198.055 95.4571 198.529 92.8763C198.78 91.5929 199.045 90.2955 199.296 89.0121ZM192.517 98.5401C194.637 97.452 196.409 96.0291 197.636 93.7552C197.664 96.2523 197.315 98.4006 195.641 100.27C194.246 101.846 193.172 103.702 192.572 105.878C191.708 103.785 190.773 101.804 191.61 99.5584C191.749 99.1678 192.126 98.7493 192.517 98.5401ZM193.521 104.887C194.498 103.185 195.6 101.553 196.66 99.9072C196.995 99.391 197.343 98.8888 197.72 98.3308C198.836 100.186 198.557 101.986 197.887 103.813C197.329 105.348 196.855 106.924 196.395 108.487C196.283 108.849 196.325 109.254 196.283 109.84C195.251 108.905 194.205 108.152 193.395 107.175C192.851 106.547 193.13 105.571 193.521 104.887ZM197.204 107.677C197.483 106.561 197.957 105.487 198.278 104.385C198.585 103.353 198.85 102.293 199.073 101.232C199.129 100.953 199.017 100.633 198.976 100.27C199.659 100.758 200.273 101.177 200.859 101.623C201.263 101.93 201.18 102.335 201.054 102.753C200.58 104.413 200.175 106.087 200.273 107.831C200.343 109.296 200.58 110.746 201.291 112.058C201.473 112.393 201.724 112.699 201.891 113.146C201.096 112.672 200.287 112.225 199.506 111.737C198.99 111.416 198.487 111.053 198.027 110.663C197.064 109.882 196.925 108.793 197.204 107.677ZM200.943 108.584C200.775 106.617 201.068 104.748 201.766 102.948C202.226 101.777 203.063 101.525 204.039 102.307C206.467 104.232 208.127 106.659 208.364 109.826C208.517 111.932 207.625 113.774 206.355 115.476C203.342 114.081 201.222 112.1 200.943 108.584ZM206.885 104.413C206.202 103.478 205.379 102.655 204.584 101.804C204.179 101.372 203.984 101.009 204.332 100.423C204.639 99.9072 204.835 99.3213 205.114 98.6935C205.393 99.1678 205.588 99.67 205.923 100.019C206.732 100.842 207.625 101.581 208.476 102.362C209.201 103.018 209.982 103.646 210.61 104.385C211.182 105.069 211.559 105.892 211.266 106.868C210.763 108.487 209.857 109.882 208.922 111.444C209.299 108.668 208.364 106.45 206.885 104.413ZM207.122 100.451C205.937 99.3631 205.239 98.0239 205.295 96.336C207.694 97.452 210.205 98.3308 212.326 99.949C213.372 100.758 213.609 101.484 213.247 102.781C213.191 102.99 213.135 103.199 213.051 103.409C212.8 104.064 212.549 104.706 212.256 105.445C210.903 103.339 208.866 102.042 207.122 100.451ZM205.128 92.6671C202.603 91.579 200.468 90.0584 199.506 87.2684C200.147 86.9057 200.789 86.543 201.403 86.1942C202.142 86.9475 202.826 87.7985 203.663 88.4541C205.114 89.598 206.816 90.2258 208.671 90.4071C209.41 90.4769 210.164 90.4629 210.889 90.3792C213.344 90.1002 214.586 88.3704 215.409 86.3058C216.497 83.6134 216.483 80.9071 215.186 78.2426C215.855 77.8381 216.497 77.4754 217.167 77.0708C218.213 78.3542 218.91 79.7771 219.078 81.4372C219.273 83.4042 219.12 85.3293 218.269 87.1428C217.418 88.9424 216.26 90.5327 214.767 91.844C213.567 92.8903 212.005 93.0577 210.526 93.2111C208.699 93.3925 206.843 93.4064 205.128 92.6671ZM217.501 91.1604C217.306 90.5187 217.32 89.9049 217.738 89.2911C218.687 87.9101 219.385 86.4035 219.636 84.7294C219.733 84.1017 219.775 83.46 219.845 82.7485C220.975 84.9108 221.826 86.9615 221.254 89.4725C220.808 91.4534 220.863 93.5459 221.421 95.6803C219.692 94.4248 218.115 93.2111 217.501 91.1604ZM221.868 94.8712C221.728 93.3925 221.7 91.9138 221.742 90.4211C221.784 89.1656 221.993 87.9101 222.133 86.6267C223.542 87.3102 224.323 88.5239 224.686 89.9747C225.076 91.5371 225.272 93.1414 225.62 94.7038C225.816 95.5408 226.15 96.3499 226.443 97.2288C225.272 96.9916 224.058 96.8242 222.9 96.5034C222.175 96.3081 221.924 95.4989 221.868 94.8712ZM228.508 97.1032C227.141 96.9219 226.499 95.8477 226.206 94.6061C225.955 93.532 225.83 92.416 225.62 91.3278C225.369 90.0723 225.188 88.7889 224.17 87.659C225.104 87.7287 225.83 87.7008 226.513 87.8682C226.792 87.938 227.099 88.3844 227.183 88.7192C227.769 90.8675 228.452 92.96 229.917 94.6898C230.852 95.7919 231.842 96.8382 233.335 97.2288C233.321 97.2985 233.307 97.3543 233.293 97.4241C231.703 97.3125 230.084 97.2985 228.508 97.1032ZM231.326 95.3455C229.75 93.8668 228.717 92.0114 228.187 89.9049C228.034 89.319 227.922 88.7052 227.894 88.1054C227.866 87.2684 228.327 86.7522 229.15 86.8638C230.322 87.0312 231.507 87.2963 232.623 87.7148C234.562 88.4541 236.25 89.6399 237.283 91.4813C238.008 92.7647 238.329 94.2295 238.217 95.75C238.189 96.1825 238.217 96.615 238.217 97.1032C235.65 97.3125 233.251 97.1451 231.326 95.3455ZM238.217 92.137C237.603 90.156 236.069 88.9842 234.423 87.938C232.972 87.0033 231.326 86.543 229.666 86.1244C229.164 85.9989 228.885 85.7199 228.885 85.1619C228.871 84.5341 228.773 83.9064 228.689 83.1391C230.517 84.6178 232.693 84.4504 234.688 84.9387C235.148 85.0503 235.637 85.12 236.083 85.2735C237.534 85.7478 238.231 86.8359 238.315 88.2728C238.399 89.5841 238.329 90.8954 238.329 92.2067C238.315 92.1928 238.231 92.1788 238.217 92.137ZM232.023 83.8785C230.796 83.6832 229.708 83.2368 228.759 82.4556C228.327 82.0929 228.006 81.5907 227.587 81.1024C228.745 80.9629 229.764 80.7676 230.796 80.7257C232.358 80.6699 233.935 80.656 235.511 80.7397C236.069 80.7676 236.641 81.0605 237.143 81.3535C237.813 81.7441 237.729 82.5253 237.882 83.167C238.064 83.9203 238.134 84.7015 238.259 85.5106C236.292 84.4365 234.144 84.1993 232.023 83.8785ZM227.783 85.4688C227.727 86.2779 227.322 86.6964 226.499 86.7383C224.56 86.8359 223.026 86.0547 221.798 84.6039C220.626 83.2368 220.138 81.5488 219.566 79.9027C219.315 79.1633 219.022 78.424 218.729 77.6009C220.78 78.4379 222.872 79.1075 224.783 80.1259C226.806 81.2279 227.922 83.0415 227.783 85.4688ZM230.74 66.943C230.921 67.8916 230.852 68.896 230.768 69.8586C230.614 71.7279 229.289 72.6905 227.797 73.4717C226.123 74.3505 224.323 74.6714 222.454 74.4342C221.463 74.3087 220.501 73.9181 219.496 73.6391C219.789 72.6765 220.026 71.8953 220.236 71.1838C221.366 71.3094 222.454 71.4907 223.556 71.5605C224.909 71.6442 226.095 71.142 227.085 70.2352C227.894 69.4959 227.894 68.4775 227.81 67.501C227.685 66.0083 227.015 64.7389 225.927 63.7066C225.62 63.4136 225.327 63.1346 225.02 62.8417C225.634 62.1721 226.22 61.5583 226.806 60.9165C229.038 62.3395 230.252 64.432 230.74 66.943ZM226.987 66.5105C227.727 69.0495 226.904 70.5142 224.058 70.9606C222.761 71.156 221.742 70.9188 220.361 70.3887C220.361 70.0399 220.375 69.6633 220.361 69.3006C220.333 68.9379 220.263 68.5752 220.222 68.2962C221.114 68.3659 221.993 68.5194 222.872 68.5054C224.086 68.4915 224.686 67.5847 224.169 66.4826C223.779 65.6596 223.179 64.9202 222.663 64.153C223.221 63.8879 223.863 63.5671 224.532 63.2462C225.565 64.139 226.583 65.1155 226.987 66.5105ZM222.091 67.8916C221.477 67.8079 220.835 67.6824 220.263 67.4313C219.929 67.2778 219.678 66.8872 219.454 66.5524C218.882 65.7154 218.352 64.8505 217.92 64.1948C218.743 64.2367 219.845 64.3064 220.947 64.3343C222.007 64.3622 223.556 65.9386 223.528 66.9988C223.514 67.5708 222.858 68.0032 222.091 67.8916ZM219.705 69.1471C219.831 69.8725 219.692 70.6816 219.524 71.407C219.175 72.8858 218.631 74.3087 217.738 75.5502C216.79 76.8755 215.367 77.5312 213.888 78.0194C213.009 78.3124 212.075 78.5356 211.154 78.6751C210.108 78.8425 209.131 78.4658 208.183 78.0334C206.369 77.1824 205.072 75.8013 204.067 74.0994C203.83 73.6949 203.844 73.4856 204.165 73.1508C205.225 72.0348 206.174 70.7932 206.411 69.2308C206.55 68.2962 206.439 67.3197 206.439 66.2176C207.625 67.3476 208.741 68.3938 209.843 69.4401C210.108 69.6912 210.066 69.9283 209.926 70.2492C208.838 72.6765 210.401 75.7734 213.651 75.8571C215.269 75.899 217.32 73.6391 216.818 71.714C216.218 69.3564 213.902 68.2264 212.047 68.631C211.768 68.6868 211.475 68.7565 211.238 68.91C210.931 69.1053 210.708 69.0355 210.498 68.8123C209.452 67.7103 208.406 66.6082 207.318 65.4643C208.183 65.4643 208.964 65.548 209.731 65.4364C210.457 65.3387 211.21 65.1574 211.838 64.8086C212.744 64.2925 213.539 63.595 214.39 62.9951C214.53 62.8975 214.809 62.8556 214.948 62.9254C217.432 64.2925 219.203 66.2734 219.705 69.1471ZM212.689 69.1192C214.195 69.0913 216.023 70.9467 216.009 72.4812C215.995 73.4856 214.488 74.9643 213.484 74.9504C211.949 74.9364 210.164 73.1369 210.191 71.6302C210.219 70.3887 211.461 69.1332 212.689 69.1192ZM213.302 63.1625C211.503 64.6412 209.48 65.3666 207.206 64.6133C206.23 64.2925 205.365 63.581 204.43 63.023C204.821 62.3395 205.114 61.8512 205.309 61.5024C206.383 61.9628 207.443 62.5487 208.573 62.8696C210.498 63.4276 212.842 62.0884 213.107 60.4004C213.386 58.6008 212.814 57.1081 211.349 56.02C210.694 55.5318 209.94 55.1551 209.215 54.7227C209.466 54.2763 209.759 53.788 210.052 53.2858C213.135 53.8438 214.851 56.5641 214.809 58.9077C214.795 59.6331 214.739 60.3725 214.614 61.0979C214.474 61.9628 213.972 62.6045 213.302 63.1625ZM208.713 55.2667C210.303 55.9503 211.879 56.6896 212.423 58.5171C213.051 60.6375 211.838 62.1442 209.787 62.3534C208.155 62.5208 206.885 61.6977 205.686 60.7491C205.616 60.6933 205.56 60.5678 205.546 60.4701C205.504 59.8563 205.49 59.2565 205.448 58.559C206.174 59.117 206.788 59.6331 207.457 60.0795C207.806 60.3167 208.238 60.512 208.657 60.5817C209.633 60.7491 210.275 60.4004 210.582 59.6052C210.819 59.0054 210.54 58.1126 209.829 57.6662C209.117 57.2198 208.322 56.8989 207.555 56.5223C207.304 56.4107 207.039 56.3269 206.76 56.2153C207.374 55.8805 207.945 55.5736 208.531 55.2667C208.573 55.2667 208.657 55.2528 208.713 55.2667ZM205.462 57.5825C205.225 57.3174 205.016 57.0105 204.737 56.6338C206.537 56.6757 208.071 57.2058 209.452 58.1684C209.857 58.4474 210.122 58.8659 209.968 59.4099C209.801 59.9819 209.201 60.2051 208.434 59.8982C207.22 59.4099 206.313 58.5171 205.462 57.5825ZM204.709 58.4055C205.016 59.7308 205.086 61.0142 204.179 62.2139C202.226 64.7947 198.683 64.0553 197.12 61.9907C197.036 61.8791 197.092 61.6001 197.19 61.4606C197.385 61.1676 197.636 60.9305 197.901 60.6236C198.418 61.0142 198.906 61.4188 199.436 61.7675C200.538 62.5069 201.584 62.3953 202.491 61.628C203.691 60.5957 203.495 59.2704 202.909 58.4055C202.547 57.8615 202.128 57.3593 201.738 56.8292C202.086 56.5362 202.435 56.2153 202.854 55.8666C203.705 56.5222 204.458 57.2895 204.709 58.4055ZM199.589 56.592C199.268 56.4804 198.906 56.4246 198.599 56.2851C197.427 55.755 197.525 55.741 197.567 54.4855C197.594 53.7043 197.302 52.8952 197.148 52.0861C198.194 52.2256 199.115 51.7094 199.966 50.9561C200.064 50.8724 200.287 50.8166 200.398 50.8724C201.793 51.4862 203.077 52.7139 202.686 54.5971C202.477 55.6713 200.691 56.9826 199.589 56.592ZM192.084 52.5046C192.14 52.7418 192.154 52.9789 192.14 53.2161C192.098 53.6764 191.777 53.8717 191.373 53.6346C191.01 53.4114 190.592 53.1603 190.368 52.8115C189.713 51.7931 189.28 50.6771 189.406 49.2821C190.689 50.161 191.749 51.0259 192.084 52.5046ZM193.856 51.0677C192.6 50.9143 191.749 50.1052 190.968 49.1984C190.773 48.9752 190.633 48.6962 190.368 48.3196C192.07 48.3335 193.493 48.6823 194.511 49.9657C194.679 50.1749 194.832 50.6632 194.735 50.7469C194.539 50.9561 194.149 51.1096 193.856 51.0677ZM185.583 48.4033C184.732 49.6727 183.812 50.719 182.305 51.0398C182.096 51.0817 181.859 51.1235 181.649 51.0677C181.273 50.9701 180.994 50.7329 181.259 50.3005C181.468 49.9517 181.705 49.589 182.012 49.324C182.738 48.6962 184.509 48.2359 185.583 48.4033ZM185.709 49.9238C185.932 49.7285 186.211 49.5751 186.616 49.2961C186.602 51.0398 186.239 52.4767 184.914 53.4951C184.719 53.6485 184.272 53.7741 184.174 53.6625C183.979 53.4672 183.826 53.0905 183.868 52.8255C183.993 51.57 184.788 50.6911 185.709 49.9238ZM179.083 52.1C178.357 53.1184 178.246 54.1368 178.539 55.2249C178.58 55.3644 178.483 55.6155 178.371 55.6992C176.851 56.7734 175.442 57.0942 174.047 55.7968C172.986 54.8203 172.903 53.1742 173.935 52.0442C174.354 51.5839 174.898 51.2212 175.442 50.9003C175.595 50.8027 175.986 50.8864 176.153 51.0259C177.269 51.9327 177.632 52.0721 179.083 52.1ZM174.298 56.8152C173.921 57.3174 173.503 57.8057 173.168 58.3358C172.052 60.0935 172.763 61.2653 174.2 62.1163C174.856 62.5069 175.665 62.3534 176.334 61.921C176.934 61.5303 177.506 61.084 178.12 60.6515C178.427 61.0281 178.72 61.3769 179.027 61.7257C178.301 63.1625 176.293 64.0693 174.423 63.86C173.014 63.7066 171.34 62.1442 171.145 60.7491C170.894 58.7822 171.41 57.1082 173.196 55.8945C173.558 56.1875 173.921 56.4944 174.298 56.8152ZM167.992 59.7029C167.155 60.1772 166.332 60.0795 166.039 59.5355C165.774 59.0333 166.081 58.3637 166.904 57.9033C168.229 57.1639 169.624 56.6199 171.229 56.6478C170.378 57.9452 169.304 58.9635 167.992 59.7029ZM169.15 56.1735C168.188 56.6478 167.155 57.0803 166.207 57.6522C165.481 58.0847 165.202 58.9775 165.412 59.5634C165.76 60.498 166.695 60.9444 167.671 60.4841C168.439 60.1353 169.108 59.5913 169.82 59.117C170.071 58.9496 170.28 58.7543 170.573 58.5171C170.531 59.2425 170.503 59.8703 170.475 60.498C170.475 60.5817 170.434 60.6794 170.364 60.7212C169.011 61.7815 167.602 62.6464 165.746 62.2697C163.04 61.7257 162.956 58.7682 164.24 57.2616C165.035 56.3269 166.053 55.7689 167.155 55.3225C167.267 55.2807 167.448 55.2807 167.56 55.3365C168.104 55.6155 168.648 55.9085 169.15 56.1735ZM163.919 56.7455C162.58 58.001 162.384 60.3027 163.458 61.6001C164.477 62.8138 165.872 63.2602 167.365 62.8975C168.508 62.6185 169.555 62.0047 170.671 61.5303C170.894 61.907 171.173 62.3674 171.452 62.8417C169.457 65.2829 165.802 65.4643 163.654 63.8321C162.761 63.1486 161.757 62.6045 161.464 61.4188C160.766 58.6287 161.101 56.4664 163.319 54.4855C164.003 53.8717 164.993 53.5927 165.872 53.1603C166.067 53.5369 166.207 53.802 166.36 54.067C166.5 54.3042 166.667 54.5413 166.737 54.625C165.788 55.3365 164.77 55.9503 163.919 56.7455ZM161.757 63.0928C162.649 64.0135 163.696 64.8086 164.923 65.1295C166.081 65.4364 167.323 65.4224 168.578 65.5619C167.574 66.6221 166.528 67.7382 165.453 68.8402C165.342 68.9518 165.007 68.9797 164.84 68.91C162.454 67.8637 159.329 69.0495 159.092 72.551C159.008 73.7088 159.762 74.6714 160.766 75.2852C162.147 76.1222 163.933 75.9129 165.077 74.8946C166.249 73.8483 166.862 71.8535 166.067 70.2073C165.914 69.8865 165.942 69.6772 166.151 69.468C167.253 68.4217 168.355 67.3755 169.513 66.2874C169.513 67.1662 169.457 67.9614 169.527 68.7426C169.583 69.3564 169.694 70.0399 170.001 70.5561C170.545 71.4908 171.215 72.3696 171.884 73.2206C172.135 73.5414 172.191 73.7367 171.954 74.0576C171.424 74.7551 170.992 75.5223 170.406 76.164C169.136 77.5451 167.546 78.41 165.691 78.689C165.007 78.8006 164.24 78.6751 163.542 78.4937C162.077 78.1171 160.655 77.587 159.413 76.7081C158.088 75.7595 157.432 74.3366 156.93 72.8718C156.623 71.993 156.428 71.0722 156.26 70.1515C156.079 69.0774 156.469 68.0869 156.93 67.1244C157.781 65.3108 159.162 64.0274 160.864 63.023C161.24 62.7719 161.45 62.7719 161.757 63.0928ZM164.77 69.6912C165.858 70.5421 166.053 71.7837 165.37 73.0811C164.84 74.0855 163.933 74.6156 162.9 74.8946C162.51 74.9922 161.952 74.8806 161.617 74.6574C160.864 74.1273 160.097 73.5414 159.971 72.4533C160.208 71.1838 160.808 70.1236 162.008 69.5098C162.942 69.0216 163.891 68.9937 164.77 69.6912ZM156.581 66.5524C156.288 67.0546 155.967 67.515 155.34 67.5847C154.656 67.6684 153.972 67.8219 153.303 67.794C152.591 67.7521 152.34 67.236 152.563 66.5803C152.996 65.269 154.223 64.3762 155.591 64.3483C156.497 64.3343 157.404 64.2367 158.088 64.1948C157.641 64.8784 157.083 65.7014 156.581 66.5524ZM153.428 64.1948C152.996 64.7389 152.522 65.269 152.131 65.8549C151.699 66.4966 151.42 67.236 151.908 67.9474C152.368 68.617 153.177 68.5891 153.889 68.5612C154.502 68.5333 155.116 68.338 155.758 68.2125C155.702 68.9379 155.66 69.6772 155.605 70.4305C154.098 70.9746 152.522 71.2955 150.945 70.7514C148.755 69.9841 148.364 68.7007 149.076 66.3571C149.48 65.0318 150.485 64.1251 151.461 63.2462C152.131 63.5671 152.787 63.8879 153.428 64.1948ZM148.992 65.1574C148.392 66.0781 148.099 67.1383 148.127 68.2683C148.169 70.0399 149.48 71.0723 151.252 71.4629C152.759 71.7977 154.251 71.6024 155.73 71.0304C155.995 71.9093 156.232 72.7044 156.497 73.5554C155.033 74.211 153.568 74.6574 151.936 74.49C150.136 74.3087 148.49 73.8483 147.011 72.7463C145.379 71.5326 144.905 69.9004 145.156 68.0172C145.309 66.9011 145.616 65.7991 145.979 64.7389C146.551 63.0928 147.779 61.9349 149.187 60.9165C149.773 61.5443 150.345 62.1721 150.903 62.7719C150.262 63.5531 149.55 64.3064 148.992 65.1574ZM158.994 97.1172C159.008 97.1172 159.022 97.1172 158.994 97.1172V97.1172ZM158.967 97.1451C158.883 98.3169 158.799 99.4608 158.715 100.605C158.701 100.744 158.674 100.953 158.59 100.995C157.823 101.358 157.055 101.693 156.163 102.083C156.079 101.163 156.009 100.395 155.953 99.6142C155.939 99.4887 155.995 99.2934 156.079 99.2236C157.027 98.5122 158.004 97.8286 158.967 97.1451ZM152.898 100.102C153.693 99.9769 154.475 99.7956 155.242 99.6421C155.409 100.633 155.563 101.637 155.758 102.823C156.832 102.404 157.753 102.042 158.729 101.651C159.022 102.53 159.329 103.437 159.65 104.427C157.627 105.18 155.619 105.934 153.484 106.729C153.233 105.25 152.996 103.911 152.759 102.572C152.661 101.972 152.563 101.372 152.48 100.772C152.452 100.437 152.466 100.172 152.898 100.102ZM154.516 106.98C156.316 106.38 158.088 105.669 159.929 104.985C160.445 105.948 160.989 106.952 161.561 108.012C157.962 109.114 154.433 110.188 150.875 111.277C150.052 107.691 149.215 104.092 148.364 100.368C149.55 100.368 150.666 100.368 151.81 100.368C152.117 102.181 152.438 104.106 152.801 106.017C153.094 107.636 152.954 107.496 154.516 106.98ZM148.239 115.838C146.928 110.621 145.644 105.487 144.333 100.298C145.56 100.298 146.607 100.298 147.695 100.298C148.267 102.739 148.839 105.125 149.383 107.496C149.676 108.793 149.955 110.091 150.22 111.402C150.317 111.904 150.541 112.044 151.043 111.876C153.986 110.942 156.93 110.035 159.873 109.128C160.306 108.989 160.794 108.961 161.199 108.766C161.84 108.459 162.175 108.752 162.454 109.268C162.817 109.923 163.179 110.565 163.654 111.444C158.492 112.909 153.428 114.36 148.239 115.838ZM173.084 116.327C171.619 117.15 170.155 117.987 168.76 118.782C167.839 117.219 166.876 115.545 165.872 113.885C164.449 111.514 162.97 109.184 161.603 106.799C160.934 105.627 160.403 104.371 159.873 103.13C159.008 101.093 159.092 99.0004 159.817 96.9777C160.306 95.5966 161.087 94.3132 161.743 92.96C162.342 93.1414 162.859 93.2948 163.361 93.4622C162.998 94.2574 162.58 94.9828 162.329 95.75C161.38 98.554 161.422 101.33 162.566 104.106C163.919 107.412 165.774 110.412 167.63 113.425C168.132 114.234 168.676 115.029 169.136 115.866C169.345 116.229 169.499 116.271 169.848 116.061C172.498 114.583 175.149 113.104 177.813 111.639C179.85 110.523 181.663 109.128 183.254 107.44C184.314 106.31 184.97 104.971 185.416 103.451C185.793 102.181 186.114 100.939 186.002 99.4887C186.588 99.6421 187.076 99.7537 187.522 99.8653C187.955 102.934 187.495 105.78 185.625 108.263C184.495 109.742 182.961 110.788 181.343 111.695C178.608 113.285 175.832 114.792 173.084 116.327ZM188.527 116.229C189.908 114.569 191.317 112.923 192.726 111.249C193.661 111.835 194.623 112.434 195.628 113.048C193.089 115.769 190.578 118.461 188.011 121.209C185.486 118.503 182.961 115.796 180.394 113.048C181.357 112.448 182.333 111.835 183.31 111.221C184.398 112.546 185.472 113.857 186.546 115.169C186.881 115.573 187.216 115.978 187.592 116.354C187.941 116.717 188.234 116.578 188.527 116.229ZM188.011 115.992C186.574 114.248 185.207 112.588 183.812 110.9C184.593 110.188 185.277 109.589 185.988 108.947C186.49 109.575 187.006 110.202 187.509 110.844C187.857 111.291 188.178 111.263 188.513 110.83C189.001 110.202 189.517 109.575 190.02 108.933C190.731 109.575 191.429 110.202 192.196 110.886C190.815 112.56 189.462 114.206 188.011 115.992ZM187.997 110.621C187.453 109.868 186.978 109.226 186.532 108.556C186.462 108.459 186.476 108.263 186.518 108.152C187.02 107.05 187.536 105.948 188.011 104.929C188.485 106.003 189.001 107.189 189.559 108.473C189.099 109.1 188.583 109.812 187.997 110.621ZM193.995 120.302C192.182 122.186 190.354 124.041 188.555 125.924C188.22 126.273 187.927 126.412 187.536 126.008C185.876 124.306 184.202 122.632 182.556 120.93C180.659 118.963 178.804 116.968 176.865 114.918C177.771 114.401 178.58 113.927 179.417 113.509C179.585 113.425 179.948 113.509 180.087 113.648C182.5 116.215 184.886 118.81 187.271 121.404C187.955 122.144 188.053 122.144 188.736 121.404C190.382 119.605 192.042 117.833 193.688 116.048C194.4 115.28 195.125 114.527 195.809 113.732C196.088 113.397 196.353 113.341 196.716 113.55C197.469 113.983 198.236 114.415 199.143 114.945C197.385 116.773 195.697 118.545 193.995 120.302ZM211.28 112.002C209.94 114.304 208.545 116.564 207.22 118.768C204.179 117.038 201.026 115.252 197.873 113.467C196.158 112.49 194.428 111.556 192.768 110.495C190.02 108.738 188.708 106.059 188.304 102.893C188.234 102.321 188.373 101.721 188.401 101.135C188.415 100.744 188.206 100.13 188.373 100.019C188.806 99.7398 189.378 99.67 189.95 99.5166C189.992 100.214 189.978 100.842 190.075 101.47C190.578 104.971 192.363 107.705 195.237 109.714C196.744 110.76 198.306 111.723 199.882 112.672C201.18 113.453 202.519 114.15 203.844 114.876C204.625 115.308 205.407 115.727 206.216 116.103C206.369 116.173 206.732 116.075 206.802 115.936C208.796 112.602 210.833 109.282 212.689 105.878C213.679 104.064 214.335 102.042 214.377 99.9351C214.39 99.0423 214.097 98.1355 214 97.2288C213.846 95.8895 213.344 94.7038 212.535 93.5041C213.121 93.3227 213.623 93.1693 214.111 93.0298C215.716 95.2339 216.804 97.6054 216.706 100.409C216.664 101.846 216.288 103.199 215.618 104.427C214.223 106.98 212.758 109.491 211.28 112.002ZM217.027 97.1451C217.501 97.5078 218.004 97.9263 218.534 98.3169C218.896 98.5959 219.273 98.8609 219.678 99.0702C219.984 99.2376 220.138 99.405 220.096 99.7677C219.998 100.493 219.929 101.218 219.831 102.069C218.994 101.707 218.241 101.372 217.487 101.023C217.39 100.981 217.334 100.786 217.32 100.647C217.208 99.4887 217.111 98.3169 217.027 97.1451ZM223.04 106.826C223.43 104.636 223.849 102.46 224.239 100.34C225.327 100.34 226.429 100.34 227.643 100.34C226.792 104.05 225.969 107.65 225.132 111.277C221.617 110.202 218.059 109.114 214.446 108.012C215.004 106.966 215.534 105.975 216.078 104.971C217.418 105.487 218.729 106.003 220.068 106.492C220.849 106.785 221.645 107.036 222.44 107.273C222.816 107.384 222.97 107.217 223.04 106.826ZM231.675 100.284C230.377 105.459 229.094 110.593 227.783 115.81C222.607 114.304 217.446 113.118 212.382 111.318C212.94 110.356 213.442 109.463 213.972 108.556C214.865 108.793 215.702 108.975 216.497 109.226C219.217 110.063 221.924 110.928 224.63 111.779C225.592 112.086 225.578 112.072 225.802 111.053C226.36 108.57 226.946 106.087 227.518 103.59C227.727 102.655 227.964 101.721 228.173 100.786C228.243 100.437 228.382 100.256 228.773 100.256C229.68 100.298 230.587 100.284 231.675 100.284ZM223.193 100.13C223.332 100.158 223.528 100.451 223.514 100.577C223.207 102.572 222.872 104.567 222.523 106.729C220.389 105.934 218.366 105.18 216.357 104.427C216.664 103.437 216.957 102.544 217.236 101.637C218.185 102.014 219.12 102.376 220.236 102.823C220.417 101.651 220.57 100.66 220.738 99.6421C221.533 99.7956 222.37 99.9351 223.193 100.13ZM240.659 91.1744C240.631 93.4483 240.575 95.7361 240.561 98.01C240.561 98.5401 240.659 99.0841 240.714 99.5863C237.98 99.5863 235.246 99.5584 232.526 99.6003C230.88 99.6282 229.219 99.8514 227.573 99.7816C225.146 99.684 222.635 99.8374 220.361 98.7214C218.464 97.7868 216.86 96.4894 215.897 94.5224C215.576 93.8807 215.186 93.2669 214.851 92.695C215.214 92.2904 215.576 91.8998 215.953 91.4813C216.469 92.2067 216.874 92.974 217.446 93.5738C219.008 95.206 220.71 96.6429 223.026 97.173C225.467 97.7449 227.922 97.9402 230.419 97.9123C232.791 97.8844 235.162 97.8565 237.534 97.8147C237.855 97.8147 238.189 97.7589 238.51 97.6891C238.622 97.6612 238.761 97.5217 238.789 97.3962C238.859 97.1172 238.873 96.8382 238.887 96.5452C238.929 93.5459 239.012 90.5327 238.985 87.5334C238.957 85.1479 238.678 82.7904 237.813 80.5583C237.338 79.3447 236.669 78.2566 235.623 77.4196C235.246 77.1127 234.995 76.6384 234.618 76.3175C233.99 75.8153 233.321 75.3828 232.581 74.8667C233.014 74.49 233.391 74.1552 233.893 73.7228C235.037 74.504 236.376 75.2433 237.52 76.2198C239.264 77.7265 240.296 79.6795 240.575 82.0092C240.812 83.9622 240.91 85.9152 240.714 87.8822C240.589 88.9842 240.673 90.0863 240.659 91.1744ZM247.759 81.4093C246.573 81.6465 245.499 81.8697 244.411 82.051C243.602 82.1905 242.765 82.2742 241.956 82.4277C241.468 82.5114 241.189 82.4974 241.133 81.8697C241.063 81.1442 240.826 80.4188 240.659 79.6934C241.705 79.526 242.695 79.3586 243.811 79.1773C243.588 78.5495 243.449 78.0752 243.267 77.6149C243.086 77.1545 242.863 76.6942 242.639 76.1919C243.574 75.885 244.467 75.606 245.457 75.2712C246.225 77.294 246.964 79.2889 247.759 81.4093ZM246.057 75.0062C246.978 74.504 247.996 73.9599 249.057 73.388C250.159 76.9871 251.233 80.5165 252.321 84.0738C248.708 84.9108 245.123 85.7338 241.468 86.5848C241.412 85.3851 241.342 84.283 241.286 83.1531C243.044 82.8601 244.802 82.5811 246.559 82.2742C246.95 82.2045 247.327 82.065 247.717 82.0231C248.331 81.9673 248.457 81.6883 248.261 81.1442C247.522 79.1354 246.811 77.1127 246.057 75.0062ZM241.789 76.2338C241.9 76.2477 242.04 76.3454 242.081 76.443C242.43 77.1824 242.751 77.9497 243.128 78.7867C242.291 78.8704 241.607 78.9262 240.938 78.9959C240.533 79.0378 240.296 78.8983 240.059 78.5356C239.515 77.7265 238.887 76.9732 238.287 76.1919C238.231 76.1082 238.189 76.0106 238.161 75.9687C239.375 76.0524 240.575 76.1361 241.789 76.2338ZM256.855 86.7243C251.651 88.0356 246.546 89.319 241.342 90.6164C241.342 89.5143 241.328 88.5797 241.356 87.645C241.356 87.4776 241.579 87.2126 241.733 87.1847C245.22 86.3616 248.694 85.5525 252.195 84.7713C253.074 84.576 253.116 84.5481 252.837 83.6553C251.916 80.6699 250.982 77.6986 250.061 74.7132C249.921 74.2529 249.754 73.7925 249.712 73.3182C249.698 73.0811 249.907 72.7463 250.117 72.6068C250.8 72.1604 251.512 71.7977 252.349 71.3233C254.176 76.3733 255.348 81.5488 256.855 86.7243ZM243.267 49.1287C242.416 48.9752 241.537 48.9055 240.617 48.7939C240.7 48.4033 240.77 47.9569 240.91 47.5384C240.952 47.3989 241.203 47.2594 241.356 47.2454C242.054 47.2036 242.765 47.1338 243.435 47.2314C244.565 47.3988 245.709 47.6081 246.811 47.9429C249.377 48.7381 251.024 50.6492 252.307 52.8534C254.079 55.8945 255.753 59.0054 257.482 62.0744C258.264 63.4555 259.059 64.8365 259.812 66.1479C258.208 67.0965 256.52 68.0869 254.846 69.0913C252.502 70.5003 250.187 71.9651 247.815 73.3322C246.015 74.3784 244.146 75.2991 242.04 75.5781C240.686 75.7455 239.347 75.606 238.106 75.1178C236.711 74.5737 235.399 73.8483 234.004 73.1927C234.186 72.5649 234.339 72.0767 234.493 71.5605C234.646 71.6163 234.813 71.6163 234.911 71.7C236.097 72.6347 237.562 72.816 238.957 73.1229C241.049 73.5833 243.058 73.1508 245.039 72.3836C248.554 71.0304 251.693 68.9797 254.888 67.0406C255.571 66.6221 256.241 66.1618 256.924 65.7572C257.217 65.5759 257.329 65.4643 257.12 65.1016C256.227 63.4973 255.432 61.8512 254.511 60.2609C253.437 58.3776 252.363 56.4943 251.135 54.7087C250.075 53.1603 248.875 51.6676 247.215 50.6911C246.378 50.2028 245.43 49.9099 244.537 49.5472C244.146 49.4077 243.714 49.2124 243.267 49.1287ZM239.64 51.3188C240.101 50.3842 241.077 50.2028 241.956 50.2447C243.058 50.2865 244.146 50.5655 245.22 50.8166C245.764 50.9422 246.267 51.2212 246.657 51.3746C245.276 52.1419 243.839 52.8813 242.458 53.7322C241.579 54.2623 240.798 54.9459 239.975 55.5457C239.11 56.1735 238.134 56.4106 237.073 56.4385C236.362 56.4664 235.664 56.5641 234.953 56.6338C237.101 55.3365 238.566 53.509 239.64 51.3188ZM243.476 53.7741C244.662 53.0068 245.862 52.2395 247.355 52.114C247.941 52.0721 248.303 52.2674 248.652 52.6581C249.363 53.4672 250.075 54.2902 250.87 55.197C248.61 55.2528 246.727 56.0619 244.816 56.8291C243.574 57.3174 242.305 57.5825 240.979 57.3174C240.421 57.2058 239.891 56.9128 239.319 56.7036C240.756 55.6852 242.081 54.6808 243.476 53.7741ZM240.561 58.8798C241.049 59.382 241.426 59.9958 241.789 60.6096C242.137 61.1816 241.886 61.6699 241.412 62.0326C240.087 63.037 238.594 63.2323 237.004 62.9254C235.316 62.5905 234.004 61.5583 232.721 60.498C231.8 59.7447 230.935 58.9356 230.098 58.1963C231.758 57.8894 233.488 57.4429 235.246 57.2616C237.185 57.0523 239.096 57.3592 240.561 58.8798ZM218.896 47.6499C218.952 47.4965 219.133 47.2454 219.259 47.2593C220.026 47.3012 220.78 47.3989 221.533 47.4686C223.235 47.636 224.602 48.5428 225.899 49.5611C226.778 50.2586 227.239 51.2491 227.518 52.2814C227.797 53.3277 227.964 54.4158 228.089 55.4899C228.299 57.2895 227.601 58.838 226.527 60.219C225.606 61.4048 224.658 62.5627 223.249 63.1904C222.649 63.4694 221.979 63.6508 221.324 63.7345C219.147 64.0135 217.167 63.3718 215.325 62.2697C215.186 62.186 215.13 61.8373 215.144 61.6141C215.227 60.5399 215.423 59.4657 215.423 58.3916C215.423 57.1918 214.865 56.1595 214.181 55.197C214 54.9459 213.832 54.7087 213.581 54.346C215.227 54.7506 216.762 55.0993 218.269 55.5178C218.45 55.5736 218.631 55.9364 218.659 56.1735C218.938 57.9452 219.971 59.1588 221.658 59.5494C223.988 60.0935 226.234 58.8659 226.178 55.9782C226.15 54.2623 225.062 53.3974 223.779 52.8673C222.495 52.3372 221.1 52.5604 219.929 53.4672C219.761 53.6067 219.524 53.7183 219.44 53.8996C219.05 54.7645 218.478 54.639 217.738 54.3739C216.525 53.9554 215.269 53.6485 213.86 53.244C214.209 53.0905 214.404 52.9929 214.614 52.9231C217.041 52.0024 218.129 49.9657 218.896 47.6499ZM221.254 53.5509C222.621 53.2858 224.365 53.9136 224.951 54.8901C225.551 55.8945 225.104 56.8431 224.714 57.7638C224.309 58.7264 223.388 58.7124 222.523 58.7124C220.933 58.7124 219.705 57.8754 219.357 56.578C218.994 55.2388 219.901 53.8159 221.254 53.5509ZM204.807 48.5986C204.863 48.473 204.946 48.3056 205.03 48.1243C205.448 47.1756 205.434 47.2314 206.481 47.4965C208.127 47.8871 209.926 50.2028 209.675 51.9047C209.494 53.1323 209.103 54.2065 208.001 54.918C206.439 55.9224 204.946 56.0619 203.175 55.3225C203.244 54.8064 203.314 54.346 203.384 53.8857C204.137 53.9415 204.89 54.0252 205.644 54.0391C206.718 54.067 207.611 53.4532 207.876 52.5604C208.266 51.2072 208.015 50.2865 206.955 49.6448C206.299 49.2403 205.56 48.9473 204.807 48.5986ZM204.277 49.324C204.346 49.2682 204.5 49.2542 204.584 49.2961C205.379 49.6448 206.23 49.9099 206.913 50.4121C207.583 50.9003 207.666 51.7094 207.276 52.4907C206.927 53.1882 206.313 53.4951 205.56 53.4672C205.016 53.4532 204.472 53.3835 203.942 53.3137C203.565 53.2579 203.356 53.0766 203.147 52.686C202.756 52.0024 202.156 51.4444 201.626 50.8445C201.487 50.6911 201.291 50.5934 200.984 50.3842C202.31 50.3842 203.384 50.1191 204.277 49.324ZM196.395 47.3431C196.451 47.2593 196.632 47.2314 196.744 47.2314C198.111 47.1617 199.52 48.2638 199.743 49.589C199.868 50.3563 199.31 50.7329 198.794 51.0817C197.943 51.6676 196.465 51.5978 195.641 50.9701C195.558 50.9143 195.46 50.8306 195.432 50.7469C194.958 49.4635 194.958 49.4635 194.023 48.5707C194.916 48.2777 195.851 48.194 196.395 47.3431ZM176.279 49.5751C176.488 48.2498 177.897 47.1477 179.278 47.2175C179.404 47.2175 179.585 47.2594 179.627 47.3291C180.171 48.194 181.105 48.2638 181.998 48.5428C181.357 49.2124 180.575 49.7006 180.575 50.719C180.575 50.8166 180.422 50.9143 180.324 50.984C179.138 51.7931 177.311 51.542 176.46 50.4121C176.293 50.2307 176.237 49.8541 176.279 49.5751ZM172.261 49.6588C173.014 50.1191 173.935 50.2726 174.8 50.5655C173.809 51.0538 173.112 51.9187 172.693 52.9929C172.666 53.0626 172.582 53.1463 172.512 53.1742C171.522 53.4253 170.517 53.7043 169.513 53.2579C168.801 52.951 168.536 52.3232 168.522 51.6118C168.494 50.9282 168.913 50.426 169.471 50.0633C169.778 49.868 170.155 49.7704 170.475 49.589C171.089 49.2682 171.591 49.2403 172.261 49.6588ZM169.192 47.6081C170.643 47.0501 170.657 47.078 171.173 48.6125C170.461 48.9473 169.722 49.2403 169.066 49.6448C167.964 50.3284 167.713 51.2631 168.146 52.6162C168.439 53.509 169.304 54.081 170.42 54.0531C171.159 54.0391 171.884 53.9554 172.624 53.8996C172.693 54.36 172.763 54.8064 172.847 55.3504C171.94 55.6992 170.978 55.9921 169.973 55.741C168.536 55.3783 167.295 54.7506 166.653 53.244C165.579 50.719 167.351 48.3196 169.192 47.6081ZM147.932 55.1691C148.099 53.9275 148.392 52.6859 148.783 51.4862C149.201 50.2168 150.206 49.4216 151.308 48.6683C152.982 47.5384 154.851 47.3849 156.748 47.2454C156.86 47.2315 157.069 47.4686 157.111 47.636C157.683 49.31 158.311 50.9561 159.817 52.0303C160.487 52.5046 161.254 52.8394 162.05 53.2858C160.85 53.6346 159.664 53.9833 158.478 54.3321C158.311 54.3879 158.13 54.4018 157.976 54.4716C157.46 54.7366 157.111 54.6808 156.748 54.1507C155.563 52.4349 152.48 52.114 150.778 53.8299C149.215 55.4062 149.69 57.9591 151.113 58.9775C152.438 59.9261 154.419 60.1911 156.009 58.6845C156.735 58.001 157.251 57.2198 157.334 56.2014C157.376 55.7131 157.627 55.5318 158.102 55.4341C159.511 55.1272 160.892 54.7506 162.342 54.3739C161.868 55.183 161.408 55.8805 161.031 56.6199C160.417 57.8196 160.501 59.117 160.627 60.4143C160.627 60.4562 160.655 60.498 160.668 60.5399C161.017 62.2418 161.017 62.2418 159.413 62.9672C157.599 63.7763 155.744 64.0135 153.777 63.581C152.243 63.2462 151.196 62.2418 150.206 61.1398C149.773 60.6515 149.397 60.1074 149.02 59.5773C148.071 58.266 147.723 56.7594 147.932 55.1691ZM156.721 56.1875C156.623 57.2477 155.981 57.9591 155.061 58.3776C154.558 58.6008 153.986 58.6706 153.442 58.8101C151.587 58.7124 150.443 57.3174 150.792 55.4899C150.959 54.6111 151.712 54.2344 152.396 53.8717C153.4 53.3277 154.461 53.2719 155.465 53.8438C156.358 54.346 156.818 55.1551 156.721 56.1875ZM143.175 57.6801C144.11 57.8475 145.058 58.0289 145.965 58.2102C144.668 59.2844 143.37 60.4422 141.989 61.5024C140.162 62.9254 138.097 63.4694 135.823 62.7301C135.335 62.5766 134.889 62.2558 134.484 61.9349C134.107 61.642 133.954 61.2235 134.163 60.7073C134.958 58.6845 136.563 57.7359 138.585 57.3314C140.148 57.0105 141.654 57.4151 143.175 57.6801ZM131.345 56.8989C129.741 56.3269 128.109 55.8387 126.491 55.3365C126.128 55.2249 125.709 55.2388 125.207 55.183C125.891 54.36 126.546 53.5648 127.188 52.7697C128.011 51.7653 129.113 51.9606 129.978 52.4209C131.708 53.3416 133.326 54.4716 134.972 55.5178C135.516 55.8666 136.046 56.2572 136.618 56.6478C134.903 57.708 133.159 57.5406 131.345 56.8989ZM134.749 50.3144C135.502 50.4679 136.116 50.7748 136.479 51.5281C137.511 53.6485 138.962 55.3923 141.222 56.578C140.943 56.6199 140.817 56.6478 140.692 56.6478C139.98 56.578 139.269 56.4943 138.544 56.4385C137.441 56.3409 136.451 55.9503 135.6 55.2528C133.661 53.6485 131.596 52.2954 129.141 51.4583C130.969 50.6771 132.74 49.9099 134.749 50.3144ZM121.05 57.5267C122.11 55.6434 123.17 53.7462 124.314 51.9047C126.072 49.0729 128.764 47.6499 132.001 47.2314C132.922 47.1059 133.87 47.2035 134.805 47.2314C134.903 47.2314 135.042 47.357 135.07 47.4547C135.196 47.915 135.293 48.3754 135.391 48.8078C134.568 48.9055 133.787 48.9334 133.005 49.0868C130.006 49.6448 127.593 51.1235 125.709 53.5648C123.798 56.034 122.306 58.7543 120.799 61.4746C120.143 62.6743 119.516 63.9019 118.86 65.1016C118.679 65.4225 118.72 65.5759 119.041 65.7712C120.436 66.6221 121.803 67.5429 123.212 68.3659C125.096 69.468 126.993 70.584 128.946 71.5605C130.829 72.4952 132.796 73.2485 134.944 73.2903C135.809 73.3043 136.674 73.1369 137.525 72.9974C138.209 72.8858 138.892 72.7184 139.548 72.4812C140.19 72.2441 140.79 71.8814 141.487 71.5466C141.654 72.1046 141.794 72.5928 141.947 73.095C140.427 73.8623 139.088 74.9364 137.33 75.341C134.93 75.8851 132.671 75.6479 130.522 74.5458C128.932 73.7367 127.397 72.7881 125.849 71.8814C123.603 70.5561 121.371 69.2029 119.125 67.8916C118.121 67.2918 117.074 66.7477 116.168 66.2316C117.786 63.3578 119.404 60.4283 121.05 57.5267Z" fill="white" fill-opacity="0.06"/>
</g>
<rect width="115.753" height="36.0382" transform="translate(130.123 142.715)" fill="#824FD4"/>
<path d="M164.784 163.633H162.175L161.934 163.223C162.003 163.037 162.082 162.848 162.088 162.645C162.117 161.511 162.259 157.908 161.626 157.155C160.681 156.211 158.79 156.379 158.517 157.815C158.218 159.396 158.714 161.584 158.482 163.182C158.453 163.392 158.38 163.511 158.209 163.63H155.6V158.317C155.6 158.178 155.213 157.199 155.068 157.048C154.496 156.452 153.107 156.484 152.479 156.955C152.392 157.021 151.997 157.728 151.997 157.774V163.627H149.121V154.263H152L152.09 155.164C153.749 153.467 156.457 153.854 157.857 155.702H158.029C159.548 153.482 163.293 153.546 164.461 156.118C164.52 156.248 164.784 157.007 164.784 157.056V163.627V163.633Z" fill="white"/>
<path d="M173.009 163.484V162.403C172.558 162.694 172.187 163.124 171.666 163.313C164.493 165.928 164.075 151.555 171.873 154.266L173.009 155.019L173.032 154.231L173.302 153.961L175.9 154.019L176.071 154.388C175.888 157.132 176.304 160.154 176.077 162.862C176.054 163.136 176.057 163.319 175.798 163.484H173.009ZM170.432 156.498C169.025 156.815 168.622 159.096 169.406 160.154C170.365 161.447 172.436 161.215 172.927 159.712C173.508 157.942 172.425 156.045 170.432 156.498Z" fill="white"/>
<path d="M187.494 151.176V163.6H184.614V162.338C183.246 163.716 180.893 164.146 179.306 162.876C175.913 160.159 177.551 153.245 182.505 154.097C183.327 154.239 183.969 154.852 184.614 155.317V151.176H187.494ZM182.043 156.616C180.07 156.959 179.954 160.246 181.729 160.987C185.062 162.379 185.89 155.948 182.043 156.616Z" fill="white"/>
<path d="M188.865 154.269H191.747L191.837 155.708C192.656 154.717 193.476 154.153 194.806 154.089V157.149C194.022 157.106 192.444 157.106 192.064 157.916C192.008 158.033 191.747 158.811 191.747 158.861V163.633H189.138L188.868 163.362V154.269H188.865Z" fill="white"/>
<path d="M203.151 163.605V162.344C202.059 163.393 201.208 163.768 199.656 163.591C195.667 163.131 194.996 156.607 198.23 154.631C199.918 153.599 201.794 153.965 203.151 155.323V154.241H206.034V163.605H203.154H203.151ZM200.577 156.619C198.511 157.06 198.619 160.577 200.626 161.184C201.556 161.466 202.997 160.516 203.146 159.545C203.41 157.79 202.527 156.2 200.58 156.619H200.577Z" fill="white"/>
<path d="M215.502 157.279H212.803L212.44 156.471C212.013 156.099 211.158 156.128 210.635 156.276C210.203 157.017 210.45 157.316 211.135 157.595C212.736 158.249 215.232 158.133 215.496 160.441C215.987 164.724 207.704 164.643 207.405 160.519H210.284L210.502 161.202C211.022 161.472 212.257 161.618 212.634 161.161L212.788 160.638C211.542 159.246 208.116 159.859 207.771 157.543C207.076 152.893 215.293 152.78 215.505 157.279H215.502Z" fill="white"/>
<path d="M223.997 163.555V162.294C221.983 164.343 218.953 164.023 217.547 161.454C215.583 157.871 218.221 152.544 222.684 154.337L224 155.273V154.191H226.879V163.285L226.609 163.555H224H223.997ZM221.243 156.569C219.095 157.054 219.508 161.268 221.893 161.163C224.933 161.033 224.532 155.825 221.243 156.569Z" fill="white"/>
<path d="M159.161 106.615L157.74 101.461C160.988 100.857 166.37 97.3248 167.081 93.9912C167.86 90.3517 165.391 87.6909 164.833 84.4032L169.741 82.507C177.171 92.5232 170.964 104.994 159.154 106.615H159.161Z" fill="white"/>
<path d="M193.849 97.755C195.233 99.3071 198.512 99.2995 199.812 97.5868C201.922 94.8036 202.334 91.3935 205.583 89.1456C212.509 84.344 220.566 92.9227 217.646 100.263C215.337 106.051 208.419 105.21 203.825 102.687C199.934 105.279 194.92 105.799 191.121 102.748C187.436 105.286 183.178 105.409 178.913 104.407C178.087 104.216 175.114 103.512 175.297 102.457L177.155 97.8926C179.586 98.9401 187.872 100.24 186.893 95.9811C186.335 93.542 182.345 88.2587 182.337 87.2188C182.337 86.4848 185.77 84.1452 186.381 84.1299C187.918 84.0993 190.929 90.2161 191.587 91.7376C192.244 93.2592 192.879 96.6769 193.849 97.7626V97.755ZM208.694 93.672C204.452 97.8773 207.28 99.4524 212.211 98.619C213.655 97.6709 211.897 94.2149 210.445 93.695L208.694 93.672Z" fill="white"/>
<path d="M215.434 107.202C217.238 113.48 220.357 123.159 212.132 125.92C209.334 126.86 203.654 127.196 202.645 123.779H201.942C201.506 123.97 201.415 124.757 201.086 125.048C198.487 127.372 190.957 127.227 189.153 123.779C186.295 127.005 180.126 127.319 176.334 125.698C174.851 125.063 173.185 122.984 172.413 121.561C171.06 119.069 170.823 114.313 166.481 116.729C162.995 118.671 164.478 121.623 165.235 124.719C163.584 124.612 160.618 126.875 159.632 124.88C155.466 116.439 163.064 109.183 171.526 110.62C177.496 111.629 175.547 119.443 179.774 120.369C186.088 121.753 186.363 117.937 187.021 112.883L192.708 113.839C192.234 115.131 191.531 118.855 192.326 119.902L197.126 120.392C199.603 119.665 199.244 112.715 200.558 112.455L205.497 113.373C205.359 115.781 203.624 118.962 206.284 120.399C208.034 120.567 210.03 120.804 211.428 119.55C212.98 117.165 209.043 109.228 209.762 108.655L215.426 107.225L215.434 107.202Z" fill="white"/>
</g>
<rect x="128.123" y="61" width="119.753" height="119.753" rx="34" stroke="#4F2395" stroke-width="4"/>
</g>
<defs>
<filter id="filter0_f_349_899" x="43.3687" y="97.9721" width="396.713" height="137.23" filterUnits="userSpaceOnUse" color-interpolation-filters="sRGB">
<feFlood flood-opacity="0" result="BackgroundImageFix"/>
<feBlend mode="normal" in="SourceGraphic" in2="BackgroundImageFix" result="shape"/>
<feGaussianBlur stdDeviation="3.70269" result="effect1_foregroundBlur_349_899"/>
</filter>
<filter id="filter1_f_349_899" x="47.3359" y="-6.49357" width="396.713" height="137.23" filterUnits="userSpaceOnUse" color-interpolation-filters="sRGB">
<feFlood flood-opacity="0" result="BackgroundImageFix"/>
<feBlend mode="normal" in="SourceGraphic" in2="BackgroundImageFix" result="shape"/>
<feGaussianBlur stdDeviation="3.70269" result="effect1_foregroundBlur_349_899"/>
</filter>
<filter id="filter2_f_349_899" x="43.3687" y="97.9721" width="396.713" height="137.23" filterUnits="userSpaceOnUse" color-interpolation-filters="sRGB">
<feFlood flood-opacity="0" result="BackgroundImageFix"/>
<feBlend mode="normal" in="SourceGraphic" in2="BackgroundImageFix" result="shape"/>
<feGaussianBlur stdDeviation="3.70269" result="effect1_foregroundBlur_349_899"/>
</filter>
<filter id="filter3_f_349_899" x="43.3687" y="97.9721" width="396.713" height="137.23" filterUnits="userSpaceOnUse" color-interpolation-filters="sRGB">
<feFlood flood-opacity="0" result="BackgroundImageFix"/>
<feBlend mode="normal" in="SourceGraphic" in2="BackgroundImageFix" result="shape"/>
<feGaussianBlur stdDeviation="3.70269" result="effect1_foregroundBlur_349_899"/>
</filter>
<filter id="filter4_f_349_899" x="22.6072" y="77.2106" width="438.236" height="178.753" filterUnits="userSpaceOnUse" color-interpolation-filters="sRGB">
<feFlood flood-opacity="0" result="BackgroundImageFix"/>
<feBlend mode="normal" in="SourceGraphic" in2="BackgroundImageFix" result="shape"/>
<feGaussianBlur stdDeviation="14.0834" result="effect1_foregroundBlur_349_899"/>
</filter>
<filter id="filter5_f_349_899" x="-63.0818" y="8.11745" width="396.713" height="137.23" filterUnits="userSpaceOnUse" color-interpolation-filters="sRGB">
<feFlood flood-opacity="0" result="BackgroundImageFix"/>
<feBlend mode="normal" in="SourceGraphic" in2="BackgroundImageFix" result="shape"/>
<feGaussianBlur stdDeviation="3.70269" result="effect1_foregroundBlur_349_899"/>
</filter>
<filter id="filter6_f_349_899" x="-67.0489" y="112.583" width="396.713" height="137.23" filterUnits="userSpaceOnUse" color-interpolation-filters="sRGB">
<feFlood flood-opacity="0" result="BackgroundImageFix"/>
<feBlend mode="normal" in="SourceGraphic" in2="BackgroundImageFix" result="shape"/>
<feGaussianBlur stdDeviation="3.70269" result="effect1_foregroundBlur_349_899"/>
</filter>
<filter id="filter7_f_349_899" x="-63.0818" y="8.11745" width="396.713" height="137.23" filterUnits="userSpaceOnUse" color-interpolation-filters="sRGB">
<feFlood flood-opacity="0" result="BackgroundImageFix"/>
<feBlend mode="normal" in="SourceGraphic" in2="BackgroundImageFix" result="shape"/>
<feGaussianBlur stdDeviation="3.70269" result="effect1_foregroundBlur_349_899"/>
</filter>
<filter id="filter8_f_349_899" x="-67.0489" y="112.583" width="396.713" height="137.23" filterUnits="userSpaceOnUse" color-interpolation-filters="sRGB">
<feFlood flood-opacity="0" result="BackgroundImageFix"/>
<feBlend mode="normal" in="SourceGraphic" in2="BackgroundImageFix" result="shape"/>
<feGaussianBlur stdDeviation="3.70269" result="effect1_foregroundBlur_349_899"/>
</filter>
<filter id="filter9_f_349_899" x="-63.0818" y="8.11745" width="396.713" height="137.23" filterUnits="userSpaceOnUse" color-interpolation-filters="sRGB">
<feFlood flood-opacity="0" result="BackgroundImageFix"/>
<feBlend mode="normal" in="SourceGraphic" in2="BackgroundImageFix" result="shape"/>
<feGaussianBlur stdDeviation="3.70269" result="effect1_foregroundBlur_349_899"/>
</filter>
<filter id="filter10_f_349_899" x="-67.0489" y="112.583" width="396.713" height="137.23" filterUnits="userSpaceOnUse" color-interpolation-filters="sRGB">
<feFlood flood-opacity="0" result="BackgroundImageFix"/>
<feBlend mode="normal" in="SourceGraphic" in2="BackgroundImageFix" result="shape"/>
<feGaussianBlur stdDeviation="3.70269" result="effect1_foregroundBlur_349_899"/>
</filter>
<filter id="filter11_f_349_899" x="-83.8433" y="-12.644" width="438.236" height="178.753" filterUnits="userSpaceOnUse" color-interpolation-filters="sRGB">
<feFlood flood-opacity="0" result="BackgroundImageFix"/>
<feBlend mode="normal" in="SourceGraphic" in2="BackgroundImageFix" result="shape"/>
<feGaussianBlur stdDeviation="14.0834" result="effect1_foregroundBlur_349_899"/>
</filter>
<filter id="filter12_f_349_899" x="-87.8104" y="91.8217" width="438.236" height="178.753" filterUnits="userSpaceOnUse" color-interpolation-filters="sRGB">
<feFlood flood-opacity="0" result="BackgroundImageFix"/>
<feBlend mode="normal" in="SourceGraphic" in2="BackgroundImageFix" result="shape"/>
<feGaussianBlur stdDeviation="14.0834" result="effect1_foregroundBlur_349_899"/>
</filter>
<linearGradient id="paint0_linear_349_899" x1="51.6328" y1="166.589" x2="432.481" y2="166.589" gradientUnits="userSpaceOnUse">
<stop offset="0.545008" stop-color="#A56DFF" stop-opacity="0.21"/>
<stop offset="0.85888" stop-color="white" stop-opacity="0"/>
</linearGradient>
<linearGradient id="paint1_linear_349_899" x1="55.6" y1="62.1198" x2="436.448" y2="62.1198" gradientUnits="userSpaceOnUse">
<stop offset="0.545008" stop-color="#A56DFF" stop-opacity="0.21"/>
<stop offset="0.85888" stop-color="white" stop-opacity="0"/>
</linearGradient>
<linearGradient id="paint2_linear_349_899" x1="55.6" y1="62.1198" x2="436.448" y2="62.1198" gradientUnits="userSpaceOnUse">
<stop offset="0.545008" stop-color="#A56DFF" stop-opacity="0.21"/>
<stop offset="0.85888" stop-color="white" stop-opacity="0"/>
</linearGradient>
<linearGradient id="paint3_linear_349_899" x1="51.6328" y1="166.589" x2="432.481" y2="166.589" gradientUnits="userSpaceOnUse">
<stop offset="0.545008" stop-color="#A56DFF" stop-opacity="0.21"/>
<stop offset="0.85888" stop-color="white" stop-opacity="0"/>
</linearGradient>
<linearGradient id="paint4_linear_349_899" x1="51.6328" y1="166.589" x2="432.481" y2="166.589" gradientUnits="userSpaceOnUse">
<stop offset="0.545008" stop-color="#A56DFF" stop-opacity="0.21"/>
<stop offset="0.85888" stop-color="white" stop-opacity="0"/>
</linearGradient>
<linearGradient id="paint5_linear_349_899" x1="51.6328" y1="166.589" x2="432.481" y2="166.589" gradientUnits="userSpaceOnUse">
<stop offset="0.545008" stop-color="#A56DFF" stop-opacity="0.21"/>
<stop offset="0.85888" stop-color="white" stop-opacity="0"/>
</linearGradient>
<linearGradient id="paint6_linear_349_899" x1="51.6328" y1="166.589" x2="432.481" y2="166.589" gradientUnits="userSpaceOnUse">
<stop offset="0.545008" stop-color="#A56DFF" stop-opacity="0.21"/>
<stop offset="0.85888" stop-color="white" stop-opacity="0"/>
</linearGradient>
<linearGradient id="paint7_linear_349_899" x1="325.367" y1="76.7308" x2="-55.4806" y2="76.7308" gradientUnits="userSpaceOnUse">
<stop offset="0.545008" stop-color="#A56DFF" stop-opacity="0.21"/>
<stop offset="0.85888" stop-color="white" stop-opacity="0"/>
</linearGradient>
<linearGradient id="paint8_linear_349_899" x1="321.4" y1="181.2" x2="-59.4477" y2="181.2" gradientUnits="userSpaceOnUse">
<stop offset="0.545008" stop-color="#A56DFF" stop-opacity="0.21"/>
<stop offset="0.85888" stop-color="white" stop-opacity="0"/>
</linearGradient>
<linearGradient id="paint9_linear_349_899" x1="325.367" y1="76.7308" x2="-55.4806" y2="76.7308" gradientUnits="userSpaceOnUse">
<stop offset="0.545008" stop-color="#A56DFF" stop-opacity="0.21"/>
<stop offset="0.85888" stop-color="white" stop-opacity="0"/>
</linearGradient>
<linearGradient id="paint10_linear_349_899" x1="321.4" y1="181.2" x2="-59.4477" y2="181.2" gradientUnits="userSpaceOnUse">
<stop offset="0.545008" stop-color="#A56DFF" stop-opacity="0.21"/>
<stop offset="0.85888" stop-color="white" stop-opacity="0"/>
</linearGradient>
<linearGradient id="paint11_linear_349_899" x1="325.367" y1="76.7308" x2="-55.4806" y2="76.7308" gradientUnits="userSpaceOnUse">
<stop offset="0.545008" stop-color="#A56DFF" stop-opacity="0.21"/>
<stop offset="0.85888" stop-color="white" stop-opacity="0"/>
</linearGradient>
<linearGradient id="paint12_linear_349_899" x1="321.4" y1="181.2" x2="-59.4477" y2="181.2" gradientUnits="userSpaceOnUse">
<stop offset="0.545008" stop-color="#A56DFF" stop-opacity="0.21"/>
<stop offset="0.85888" stop-color="white" stop-opacity="0"/>
</linearGradient>
<linearGradient id="paint13_linear_349_899" x1="325.367" y1="76.7308" x2="-55.4806" y2="76.7308" gradientUnits="userSpaceOnUse">
<stop offset="0.545008" stop-color="#A56DFF" stop-opacity="0.21"/>
<stop offset="0.85888" stop-color="white" stop-opacity="0"/>
</linearGradient>
<linearGradient id="paint14_linear_349_899" x1="325.367" y1="76.7308" x2="-55.4806" y2="76.7308" gradientUnits="userSpaceOnUse">
<stop offset="0.545008" stop-color="#A56DFF" stop-opacity="0.21"/>
<stop offset="0.85888" stop-color="white" stop-opacity="0"/>
</linearGradient>
<linearGradient id="paint15_linear_349_899" x1="321.4" y1="181.2" x2="-59.4477" y2="181.2" gradientUnits="userSpaceOnUse">
<stop offset="0.545008" stop-color="#A56DFF" stop-opacity="0.21"/>
<stop offset="0.85888" stop-color="white" stop-opacity="0"/>
</linearGradient>
<linearGradient id="paint16_linear_349_899" x1="321.4" y1="181.2" x2="-59.4477" y2="181.2" gradientUnits="userSpaceOnUse">
<stop offset="0.545008" stop-color="#A56DFF" stop-opacity="0.21"/>
<stop offset="0.85888" stop-color="white" stop-opacity="0"/>
</linearGradient>
<linearGradient id="paint17_linear_349_899" x1="146.38" y1="26.3742" x2="236.965" y2="173.563" gradientUnits="userSpaceOnUse">
<stop stop-color="#5724A9"/>
<stop offset="1" stop-color="#421984"/>
</linearGradient>
<clipPath id="clip0_349_899">
<rect width="377" height="243" fill="white"/>
</clipPath>
<clipPath id="clip1_349_899">
<rect width="269.767" height="243.319" fill="white" transform="translate(140.233 -6.10352e-05)"/>
</clipPath>
<clipPath id="clip2_349_899">
<rect width="269.767" height="243.319" fill="white" transform="matrix(-1 0 0 -1 236.767 243.319)"/>
</clipPath>
<clipPath id="clip3_349_899">
<rect x="130.123" y="63" width="115.753" height="115.753" rx="32" fill="white"/>
</clipPath>
<clipPath id="clip4_349_899">
<rect width="77.3647" height="125.611" fill="white" transform="translate(125.194 124.108) rotate(-90)"/>
</clipPath>
</defs>
</svg>
