<svg width="46" height="47" viewBox="0 0 46 47" fill="none" xmlns="http://www.w3.org/2000/svg">
<g filter="url(#filter0_d_349_2862)">
<rect x="7" y="3" width="32" height="32" rx="16" fill="#FFF2F4"/>
<rect x="5.85711" y="1.85711" width="34.2858" height="34.2858" rx="17.1429" stroke="white" stroke-width="2.28578"/>
<path d="M30.6453 17.0328C30.3508 16.725 30.0461 16.4078 29.9312 16.1289C29.825 15.8734 29.8187 15.45 29.8125 15.0398C29.8008 14.2773 29.7883 13.4133 29.1875 12.8125C28.5867 12.2117 27.7227 12.1992 26.9602 12.1875C26.55 12.1812 26.1266 12.175 25.8711 12.0687C25.593 11.9539 25.275 11.6492 24.9672 11.3547C24.4281 10.8367 23.8156 10.25 23 10.25C22.1844 10.25 21.5727 10.8367 21.0328 11.3547C20.725 11.6492 20.4078 11.9539 20.1289 12.0687C19.875 12.175 19.45 12.1812 19.0398 12.1875C18.2773 12.1992 17.4133 12.2117 16.8125 12.8125C16.2117 13.4133 16.2031 14.2773 16.1875 15.0398C16.1812 15.45 16.175 15.8734 16.0687 16.1289C15.9539 16.407 15.6492 16.725 15.3547 17.0328C14.8367 17.5719 14.25 18.1844 14.25 19C14.25 19.8156 14.8367 20.4273 15.3547 20.9672C15.6492 21.275 15.9539 21.5922 16.0687 21.8711C16.175 22.1266 16.1812 22.55 16.1875 22.9602C16.1992 23.7227 16.2117 24.5867 16.8125 25.1875C17.4133 25.7883 18.2773 25.8008 19.0398 25.8125C19.45 25.8187 19.8734 25.825 20.1289 25.9312C20.407 26.0461 20.725 26.3508 21.0328 26.6453C21.5719 27.1633 22.1844 27.75 23 27.75C23.8156 27.75 24.4273 27.1633 24.9672 26.6453C25.275 26.3508 25.5922 26.0461 25.8711 25.9312C26.1266 25.825 26.55 25.8187 26.9602 25.8125C27.7227 25.8008 28.5867 25.7883 29.1875 25.1875C29.7883 24.5867 29.8008 23.7227 29.8125 22.9602C29.8187 22.55 29.825 22.1266 29.9312 21.8711C30.0461 21.593 30.3508 21.275 30.6453 20.9672C31.1633 20.4281 31.75 19.8156 31.75 19C31.75 18.1844 31.1633 17.5727 30.6453 17.0328ZM22.375 15.25C22.375 15.0842 22.4408 14.9253 22.5581 14.8081C22.6753 14.6908 22.8342 14.625 23 14.625C23.1658 14.625 23.3247 14.6908 23.4419 14.8081C23.5592 14.9253 23.625 15.0842 23.625 15.25V19.625C23.625 19.7908 23.5592 19.9497 23.4419 20.0669C23.3247 20.1842 23.1658 20.25 23 20.25C22.8342 20.25 22.6753 20.1842 22.5581 20.0669C22.4408 19.9497 22.375 19.7908 22.375 19.625V15.25ZM23 23.375C22.8146 23.375 22.6333 23.32 22.4792 23.217C22.325 23.114 22.2048 22.9676 22.1339 22.7963C22.0629 22.625 22.0443 22.4365 22.0805 22.2546C22.1167 22.0727 22.206 21.9057 22.3371 21.7746C22.4682 21.6435 22.6352 21.5542 22.8171 21.518C22.999 21.4818 23.1875 21.5004 23.3588 21.5714C23.5301 21.6423 23.6765 21.7625 23.7795 21.9167C23.8825 22.0708 23.9375 22.2521 23.9375 22.4375C23.9375 22.6861 23.8387 22.9246 23.6629 23.1004C23.4871 23.2762 23.2486 23.375 23 23.375Z" fill="#FF4A4A"/>
</g>
<defs>
<filter id="filter0_d_349_2862" x="0.142665" y="0.713867" width="45.7147" height="45.7154" filterUnits="userSpaceOnUse" color-interpolation-filters="sRGB">
<feFlood flood-opacity="0" result="BackgroundImageFix"/>
<feColorMatrix in="SourceAlpha" type="matrix" values="0 0 0 0 0 0 0 0 0 0 0 0 0 0 0 0 0 0 127 0" result="hardAlpha"/>
<feOffset dy="4.57157"/>
<feGaussianBlur stdDeviation="2.28578"/>
<feComposite in2="hardAlpha" operator="out"/>
<feColorMatrix type="matrix" values="0 0 0 0 0 0 0 0 0 0 0 0 0 0 0 0 0 0 0.06 0"/>
<feBlend mode="normal" in2="BackgroundImageFix" result="effect1_dropShadow_349_2862"/>
<feBlend mode="normal" in="SourceGraphic" in2="effect1_dropShadow_349_2862" result="shape"/>
</filter>
</defs>
</svg>
