<svg width="180" height="180" viewBox="0 0 180 180" fill="none" xmlns="http://www.w3.org/2000/svg">
<g clip-path="url(#clip0_523_4123)">
<rect width="180" height="180" rx="46.2944" fill="url(#paint0_linear_523_4123)"/>
<g clip-path="url(#clip1_523_4123)">
<path d="M-34.0236 -24.087C-30.1623 -20.3341 -26.366 -16.4944 -22.5047 -12.7416C-20.6174 -10.9194 -18.6433 -9.16222 -16.6693 -7.44847C-16.1703 -7.01462 -16.2137 -6.71092 -16.474 -6.23367C-17.1899 -4.9538 -17.8407 -3.65221 -18.5782 -2.37232C-19.9883 0.0789788 -21.0729 2.70381 -23.0687 4.80803C-23.5459 5.30697 -23.2205 5.65404 -22.6565 5.84927C-18.5565 7.34608 -15.1508 10.1011 -11.3979 12.227C-11.2026 12.3355 -11.0725 12.791 -11.1376 13.0297C-12.3524 17.0645 -13.6322 21.0777 -14.8254 25.1126C-15.9534 28.9522 -16.9513 32.8353 -18.0142 36.6966C-18.1661 37.2606 -18.0576 37.586 -17.4285 37.7379C-15.7798 38.1501 -14.1529 38.6056 -12.5042 39.0395C-9.55398 39.8204 -6.60374 40.6447 -3.61012 41.3606C-0.269408 42.1632 3.0713 42.8574 6.43371 43.5733C7.01941 43.7034 7.19296 44.0071 7.19296 44.5712C7.17127 46.068 7.21465 47.5865 7.19296 49.0833C7.14957 51.7949 7.12788 54.4848 6.97603 57.1964C6.93265 58.0642 7.14958 58.216 7.93052 58.1075C9.27548 57.934 10.6421 57.7605 11.9871 57.7605C14.5035 57.7388 17.0199 57.8689 19.5362 57.9123C21.2283 57.934 21.2066 57.934 21.5971 59.5827C22.5732 63.7043 23.5711 67.826 24.5907 71.9259C25.4584 75.4185 26.4129 78.8894 27.3023 82.3602C27.4541 82.9243 27.6711 83.3147 28.3436 83.1195C29.2113 82.8592 30.1007 82.5772 30.9901 82.3385C34.4176 81.384 37.8668 80.4512 41.2942 79.4751C44.8085 78.4555 48.3227 77.3926 51.837 76.2862C52.4227 76.091 52.7047 76.1344 52.9867 76.655C55.0475 80.4079 57.8026 83.7703 59.2343 87.8702C59.4512 88.4559 59.8417 88.5644 60.3406 88.1305C60.5576 87.957 60.7311 87.7618 60.9697 87.6099C64.4623 85.5708 67.9548 83.5316 71.4691 81.5359C71.686 81.4274 72.2283 81.601 72.4236 81.8179C74.0289 83.5316 75.5474 85.3539 77.1743 87.0242C81.1007 91.0591 85.0706 95.0506 89.0187 99.0421C89.9949 100.04 89.9948 100.04 91.0144 98.9987C94.5937 95.3543 98.2165 91.7316 101.774 88.0655C103.705 86.0914 105.57 84.0523 107.371 81.9481C107.892 81.3407 108.26 81.2322 108.868 81.6444C109.085 81.7962 109.345 81.883 109.584 82.0348C112.946 84.074 116.721 85.484 119.714 88.1522C120.213 88.5861 120.582 88.3692 120.799 87.7835C122.274 83.6618 125.029 80.256 127.155 76.5031C127.263 76.3079 127.719 76.1344 127.936 76.1994C132.144 77.4359 136.309 78.7809 140.518 79.9957C143.945 80.9936 147.394 81.8613 150.844 82.7941C152.427 83.2279 152.405 83.2279 152.796 81.7094C153.881 77.5444 155.052 73.3793 156.093 69.2143C156.961 65.7 157.677 62.1424 158.523 58.6065C158.588 58.3245 159.022 57.9557 159.282 57.934C161.148 57.8472 163.013 57.7604 164.901 57.8038C167.352 57.8472 169.781 58.0208 172.211 58.1292C172.862 58.1726 173.209 57.9991 173.014 57.2398C172.884 56.7843 172.775 56.307 172.775 55.8298C172.753 52.0118 172.775 48.1939 172.753 44.3759C172.753 43.7685 173.1 43.6383 173.556 43.5516C176.246 42.9876 178.958 42.5103 181.626 41.8378C186.832 40.5363 192.017 39.0828 197.201 37.7596C198.004 37.5643 198.091 37.1955 197.895 36.5231C197.115 33.7898 196.355 31.0348 195.574 28.3015C194.099 23.247 192.602 18.1926 191.171 13.1381C191.084 12.8561 191.236 12.3138 191.453 12.1836C195.162 10.0577 198.546 7.34607 202.625 5.84926C203.427 5.54556 203.405 5.19849 202.885 4.59109C202.212 3.83184 201.562 3.02919 201.063 2.13977C199.631 -0.376606 198.243 -2.91467 196.876 -5.47444C196.117 -6.90617 196.138 -6.92785 197.44 -7.99081C197.57 -8.09927 197.679 -8.22943 197.809 -8.33789C200.781 -11.2014 203.753 -14.0648 206.703 -16.95C209.176 -19.3579 211.605 -21.7875 214.1 -24.1737C214.404 -24.4774 214.577 -24.7161 214.577 -24.9764L213.124 -24.9764C213.124 -24.5859 212.733 -24.2171 211.952 -23.4145C208.785 -20.2473 205.662 -17.0585 202.451 -13.9347C200.282 -11.8305 197.982 -9.8564 195.596 -7.6871C194.815 -9.11884 194.099 -10.3987 193.448 -11.7003C193.34 -11.9172 193.405 -12.3945 193.579 -12.5463C196.312 -15.1061 199.045 -17.6442 201.8 -20.2039C203.232 -21.5272 204.642 -22.8722 206.095 -24.1737C206.421 -24.4557 206.594 -24.7161 206.573 -24.9764L205.445 -24.9764C201.236 -21.0283 197.049 -17.1235 192.754 -13.1103C191.8 -14.6288 190.867 -16.1473 189.934 -17.6659C191.973 -19.3362 193.991 -21.0066 195.986 -22.6552C196.616 -23.1759 197.245 -23.6965 197.83 -24.2605C198.069 -24.4991 198.199 -24.7378 198.177 -24.9547L197.158 -24.9547C196.42 -24.2822 195.77 -23.6097 195.054 -23.024C193.492 -21.7224 191.887 -20.4426 190.303 -19.1627C189.696 -18.6637 189.24 -18.3383 188.611 -19.2711C188.003 -20.2039 187.114 -20.9632 186.333 -21.8092C187.353 -22.6119 188.329 -23.4145 189.327 -24.1954C189.674 -24.4558 189.826 -24.7161 189.826 -24.9547L188.98 -24.9547C187.787 -24.087 186.767 -23.3711 185.747 -22.6552C185.617 -22.5685 185.335 -22.5251 185.205 -22.6118C183.47 -23.4145 181.734 -24.2388 180.216 -24.9547C180.216 -24.9547 180.216 -24.9547 180.237 -24.9547L171.278 -24.9547C171.257 -23.9134 171.061 -22.8939 170.736 -21.8309C169.803 -18.8156 168.393 -16.104 166.289 -13.7611C164.684 -11.9823 162.623 -10.8543 160.475 -9.85639C158.197 -8.79344 155.789 -8.85851 153.316 -8.98868C153.316 -10.1601 153.316 -11.3098 153.316 -12.5246C154.466 -12.8066 155.659 -13.0019 156.809 -13.3707C162.167 -15.1495 165.638 -18.7288 166.918 -24.2388C166.961 -24.4774 167.005 -24.6944 167.026 -24.933L165.985 -24.933C166.007 -23.3277 165.356 -21.896 164.51 -20.5293C162.319 -17.0151 159.239 -14.6072 155.052 -13.8479C154.466 -13.7394 153.859 -13.6744 153.143 -13.5659C152.839 -14.9326 152.557 -16.1691 152.254 -17.514C152.839 -17.6659 153.403 -17.8394 153.989 -17.9912C156.592 -18.6854 158.761 -20.0087 160.085 -22.4166C160.562 -23.2843 160.822 -24.1303 160.866 -24.933L159.955 -24.933C159.976 -23.6097 159.217 -22.4166 157.872 -21.0933C156.353 -19.5965 154.358 -18.9457 152.297 -18.5336C152.08 -18.4902 151.733 -18.6854 151.603 -18.8807C151.039 -19.6833 150.518 -20.5076 150.063 -21.2018C151.299 -21.7658 152.579 -22.1997 153.707 -22.9156C154.575 -23.4579 155.009 -24.1954 155.009 -24.9113L153.664 -24.9113C153.642 -24.5859 153.468 -24.2605 153.165 -23.9568C151.95 -22.7203 150.388 -22.3299 148.783 -22.3515C148.067 -22.3515 147.373 -23.0891 146.635 -23.4579C145.55 -24.0002 144.444 -24.4991 143.641 -24.8896C143.663 -24.9113 143.685 -24.9113 143.707 -24.933L137.003 -24.933C137.003 -22.0695 135.55 -19.705 133.424 -17.9045C131.146 -15.9738 128.435 -15.4098 125.463 -16.104C124.834 -16.2558 124.595 -16.451 124.638 -17.1018C124.682 -17.7092 124.638 -18.3166 124.638 -18.9674C125.766 -18.9674 126.743 -18.9457 127.719 -18.9674C131.19 -19.0542 133.533 -21.1584 134.292 -23.6965C134.422 -24.1087 134.465 -24.5425 134.487 -24.9547L133.489 -24.9547C133.489 -23.2627 132.426 -21.6357 130.756 -20.7246C128.782 -19.6616 126.634 -19.7484 124.487 -20.0521C124.335 -20.0738 124.161 -20.269 124.053 -20.4209C123.532 -21.2018 123.033 -22.0045 122.469 -22.8939C123.532 -22.7203 124.552 -22.4383 125.571 -22.4166C126.634 -22.3949 127.741 -22.4817 128.76 -22.742C129.671 -22.9806 130.322 -24.0436 130.3 -24.933L129.281 -24.933C129.281 -24.4774 128.76 -23.8483 128.305 -23.6097C127.762 -23.3277 127.046 -23.2626 126.439 -23.2843C124.313 -23.3711 122.274 -23.8483 120.365 -24.7811C120.322 -24.8028 120.3 -24.8462 120.278 -24.9547L115.896 -24.9547C115.896 -24.8679 115.896 -24.7595 115.896 -24.651C115.831 -22.6119 113.879 -20.7246 111.84 -20.6378C111.471 -20.6161 111.102 -20.5076 110.733 -20.5076C109.974 -20.486 109.302 -20.5293 109.041 -21.5055C108.629 -23.0891 107.631 -24.2388 105.961 -24.933L105.983 -24.933L102.099 -24.933C102.099 -24.933 102.099 -24.933 102.099 -24.9113C102.099 -24.5859 101.666 -24.1521 101.319 -24.0002C98.8455 -22.8939 96.6112 -23.7399 94.1599 -24.933L85.8732 -24.933C85.8949 -24.933 85.9166 -24.9113 85.9383 -24.9113C83.5087 -23.87 81.3611 -22.8938 78.9532 -23.9568C78.541 -24.1303 78.2373 -24.5859 77.8902 -24.9113C77.9119 -24.933 77.9119 -24.933 77.9336 -24.9547L74.0505 -24.9547C74.0505 -24.9547 74.0722 -24.9547 74.0722 -24.933C72.3802 -24.2171 71.4257 -22.9806 70.9268 -21.3536C70.8183 -21.0282 70.3844 -20.6378 70.059 -20.6161C68.4538 -20.4643 66.2411 -20.833 65.1131 -22.2865C64.484 -23.0891 64.202 -24.0219 64.202 -24.9547L59.82 -24.9547C59.8417 -24.8245 59.8417 -24.7161 59.8634 -24.5859C57.9327 -24.152 56.002 -23.6314 54.0497 -23.3277C53.2904 -23.1976 52.3793 -23.3494 51.6634 -23.6531C51.2296 -23.8267 50.7957 -24.4774 50.7523 -24.9547L49.6677 -24.9547C49.6677 -24.9113 49.6677 -24.8896 49.6677 -24.8462C49.7111 -23.9134 50.4703 -22.8288 51.5333 -22.6769C52.8349 -22.4817 54.2015 -22.5468 55.5248 -22.5685C56.1756 -22.5902 56.8481 -22.7854 57.5205 -22.8939C56.9782 -22.0478 56.5661 -21.1584 55.937 -20.4859C55.5682 -20.0955 54.8306 -19.987 54.2449 -19.9219C51.6634 -19.6616 49.2989 -20.0304 47.5201 -22.178C46.7825 -23.0674 46.4788 -24.0002 46.5005 -24.933L45.5243 -24.933C45.481 -23.7399 45.9799 -22.6769 46.7175 -21.7008C48.1492 -19.8135 50.1232 -18.9457 52.4878 -18.9457C53.3989 -18.9457 54.31 -18.9457 55.3729 -18.9457C55.3729 -18.2299 55.4163 -17.4489 55.3512 -16.668C55.3296 -16.4727 55.0042 -16.2124 54.7655 -16.1473C50.2534 -14.9325 45.8281 -17.2537 44.2445 -20.9198C43.7455 -22.0912 43.008 -23.306 42.9646 -24.5208C42.9646 -24.651 42.9646 -24.8028 42.9646 -24.933L36.2398 -24.933C36.2615 -24.933 36.2832 -24.9113 36.2832 -24.9113C35.2202 -24.369 33.7885 -23.7616 32.4652 -22.9589C31.5975 -22.4166 30.7515 -22.1346 29.8187 -22.5251C28.7991 -22.9372 27.7795 -23.4145 26.8684 -24.0219C26.4997 -24.2822 26.3261 -24.6076 26.3695 -24.933L25.0028 -24.933C25.0028 -24.1954 25.5018 -23.4579 26.4997 -22.8288C27.5626 -22.1563 28.7991 -21.7441 29.9705 -21.2235C29.4282 -20.4209 28.7991 -19.4664 28.1266 -18.4468C24.8293 -19.0976 21.8574 -20.2256 20.3606 -23.6531C20.1653 -24.087 20.0786 -24.4991 20.0786 -24.9113L19.1241 -24.9113C19.0807 -23.4362 19.905 -22.1997 20.8595 -21.0717C22.2478 -19.423 24.07 -18.36 26.2176 -17.9479C26.7383 -17.8394 27.2589 -17.6442 27.7795 -17.4923C27.4541 -16.1474 27.1721 -14.8892 26.8684 -13.5876C21.5754 -13.9347 17.8442 -16.6463 15.2193 -20.9198C14.395 -22.2647 14.0262 -23.6097 14.0479 -24.9113L13.0717 -24.9113C13.05 -23.2843 13.6791 -21.7875 14.4384 -20.4426C16.2389 -17.2971 18.8421 -14.8892 22.2912 -13.6093C23.4193 -13.1971 24.6558 -13.0019 25.8489 -12.7632C26.4563 -12.6548 26.825 -12.4812 26.7817 -11.7437C26.7166 -10.8326 26.76 -9.92148 26.76 -9.03207C22.1611 -8.3379 18.3214 -9.81301 14.9373 -12.6331C11.5315 -15.4532 9.86119 -19.3145 8.84162 -23.4579C8.73316 -23.9134 8.68977 -24.4123 8.71146 -24.9113L-0.226022 -24.9113C-0.226022 -24.9113 -0.226022 -24.9113 -0.204328 -24.9113C-1.70114 -24.2171 -3.39319 -23.4145 -5.08524 -22.6335C-5.28047 -22.5468 -5.64925 -22.5468 -5.8228 -22.6552C-6.84237 -23.3277 -7.81855 -24.0436 -8.98996 -24.8896C-8.98996 -24.8896 -8.96827 -24.8896 -8.96827 -24.9113L-9.87937 -24.9113C-9.87937 -24.5425 -9.40213 -24.1954 -8.44764 -23.3494C-7.79685 -22.7637 -7.01591 -22.3081 -6.34343 -21.8309C-7.36299 -20.7029 -8.31748 -19.6182 -9.42382 -18.4034C-12.0487 -20.5727 -14.6084 -22.6769 -17.3417 -24.933L-18.2962 -24.933C-18.2962 -24.6944 -18.1444 -24.4557 -17.8624 -24.2171C-15.2592 -22.0261 -12.6561 -19.8352 -9.98784 -17.6008C-10.8772 -16.1474 -11.81 -14.6505 -12.7862 -13.067C-17.0597 -17.0584 -21.2248 -20.9632 -25.4766 -24.9113L-26.648 -24.9113C-26.648 -24.6076 -26.366 -24.3039 -25.7586 -23.7616C-22.9602 -21.2018 -20.2052 -18.6203 -17.4285 -16.0389C-16.2354 -14.9325 -15.064 -13.8045 -13.8275 -12.7199C-13.3719 -12.3294 -13.1767 -12.004 -13.5238 -11.44C-14.2397 -10.2469 -14.8904 -9.01038 -15.7365 -7.51357C-21.7671 -13.3707 -27.6459 -19.0759 -33.6765 -24.9113L-34.5659 -24.9113C-34.5659 -24.716 -34.3707 -24.4341 -34.0236 -24.087ZM-17.0814 36.8268C-14.8037 28.8438 -12.5693 20.9259 -10.2698 12.8561C-8.85981 13.6587 -7.73177 14.2878 -6.62543 14.9169C-5.99634 15.2857 -5.77941 15.7196 -6.03973 16.5005C-7.68839 21.7285 -9.25028 26.9565 -10.8556 32.1845C-11.246 33.4861 -11.1809 33.5512 -9.85768 33.8332C-6.27835 34.6358 -2.72071 35.4601 0.858625 36.2845C2.63744 36.6966 4.43796 37.1305 6.21678 37.521C6.7591 37.6294 7.0845 37.803 7.0628 38.4104C7.04111 39.777 7.0628 41.122 7.0628 42.7273C-1.11543 41.2304 -8.94658 38.8442 -17.0814 36.8268ZM5.02367 20.5354C4.65488 21.3814 4.26441 22.2491 3.87394 23.0952C3.02792 24.9174 3.11469 25.1343 5.04536 25.5248C6.04323 25.72 7.0628 25.7851 8.08237 25.8935C7.82205 27.1734 7.60513 28.4316 7.27973 29.6464C7.21465 29.9067 6.7591 30.2755 6.54217 30.2321C3.50516 29.7549 0.468152 29.1909 -2.56886 28.6485C-2.61224 28.6485 -2.65563 28.5618 -2.85087 28.3665C-1.72283 25.3295 -0.551418 22.2274 0.619999 19.082C2.18189 19.6026 3.52685 20.0365 5.02367 20.5354ZM11.9871 20.1666C11.2929 21.056 10.295 21.8587 9.88288 22.8999C8.99347 25.1126 7.3665 25.0041 5.5443 24.7221C5.2189 24.6787 4.87182 24.6137 4.3078 24.5052C4.87182 23.2253 5.41414 22.0105 5.97816 20.7957C6.04324 20.6439 6.39032 20.6005 6.60725 20.5788C8.38607 20.4269 10.1649 20.2968 11.9871 20.1666ZM-1.78791 22.8565C-2.46039 24.6787 -3.0678 26.5009 -3.71858 28.3231C-3.9789 29.0607 -3.78366 29.4295 -2.93764 29.5597C-1.26728 29.82 0.381379 30.2321 2.05174 30.5358C3.72209 30.8178 5.39245 31.0348 7.14957 31.2734C7.0628 33.0522 6.99772 34.8093 6.91095 36.6532C1.27079 35.3517 -4.32598 34.0501 -9.98784 32.7485C-8.31748 27.2602 -6.62544 21.7502 -4.9117 16.1317C-3.30642 16.9994 -1.78791 17.8021 -0.182636 18.6698C-0.72496 20.1015 -1.28897 21.4682 -1.78791 22.8565ZM25.3933 56.9144C20.8378 56.806 16.2606 56.7409 11.7051 56.7192C10.4903 56.7192 9.27548 56.8927 8.12576 56.9795C8.12576 52.7277 8.12576 48.4542 8.12576 44.1807C8.12576 42.814 8.14745 41.4474 8.12576 40.0807C8.10406 39.1262 7.95221 38.1934 7.95221 37.239C7.93052 35.4818 7.88713 33.703 8.01729 31.9459C8.12576 30.5358 8.42946 29.1258 8.68977 27.7374C9.16702 25.1994 10.6855 23.247 12.2474 21.2947C14.0262 19.082 16.6945 18.2143 18.8421 16.7391C19.4712 17.3248 20.0786 17.8672 20.751 18.4746C19.623 19.2555 18.4516 19.9063 17.4971 20.774C14.1564 23.811 12.0305 27.4554 11.3363 32.0327C10.7723 35.7204 10.8157 39.4082 10.7289 43.096C10.6421 46.4584 10.9458 49.8208 11.0543 53.1832C11.076 53.7473 11.2495 53.9642 11.8136 53.9859C12.703 53.9859 13.5707 54.116 14.4601 54.1377C18.3865 54.2028 22.2912 54.333 26.2176 54.2679C30.4695 54.2028 34.743 53.8774 38.626 51.9684C40.0794 51.2526 41.2942 50.0161 42.5741 48.9965C43.1815 48.5193 43.8106 48.042 44.3095 47.4563C45.0905 46.4801 45.763 45.4172 46.5873 44.2674C47.173 44.9399 47.7153 45.5473 48.2794 46.2198C46.8476 48.3457 45.8714 50.9706 43.7238 52.8579C40.9471 55.2875 37.8017 56.6541 34.1356 56.871C32.3784 56.9795 30.6213 57.153 28.8642 57.1747C27.6711 57.2398 26.543 56.9361 25.3933 56.9144ZM7.12788 -7.9908C6.30355 -6.84107 5.73953 -5.84321 4.93689 -5.01888C4.6115 -4.69348 3.85225 -4.6284 3.30992 -4.69348C0.793544 -5.06227 -1.67945 -5.77812 -4.19583 -5.84319C-7.23284 -5.92996 -10.2265 -5.38766 -12.6778 -3.28344C-12.7211 -3.24006 -12.8079 -3.26174 -13.1767 -3.24004C-11.7883 -5.36595 -10.5519 -7.36171 -9.1852 -9.27068C-8.03548 -10.8543 -6.30004 -11.1797 -4.49953 -10.7024C-2.69902 -10.2252 -0.941887 -9.5527 0.815238 -8.92361C2.83268 -8.22943 4.78504 -7.3617 7.12788 -7.9908ZM-2.78579 -4.86701C-0.790039 -4.73686 1.20571 -4.08607 3.13638 -3.45697C4.65488 -2.97973 5.11044 -1.65647 4.22103 -0.463366C1.05386 3.83183 -3.06779 6.65191 -8.53441 6.71699C-11.4846 6.73868 -14.1312 5.43713 -16.4523 3.61492C-13.6973 -2.91465 -9.51059 -5.34425 -2.78579 -4.86701ZM2.31205 3.07259C3.20146 2.26996 4.04748 1.44562 4.9152 0.621283C5.43583 0.122343 5.93477 -0.0511799 6.65063 0.339292C7.54004 0.816534 8.49453 1.16361 9.68764 1.68424C6.32524 2.92074 4.87181 5.87096 2.74591 8.12703C2.00835 8.90797 1.29248 9.75402 0.424767 10.4265C-1.18051 11.663 -2.95933 11.5545 -4.67307 10.7085C-6.49528 9.81908 -8.2524 8.79951 -10.1397 7.77994C-8.72965 7.69318 -7.47146 7.73657 -6.27835 7.51964C-2.98102 6.89055 -0.139252 5.30697 2.31205 3.07259ZM5.93477 5.69743C7.27973 3.962 8.99347 2.79059 11.0109 2.09641C11.6617 1.87948 12.421 1.92287 13.1151 1.85779C13.2019 1.94456 13.2887 2.00964 13.3754 2.09641C11.5315 5.54558 9.73103 9.03814 7.77867 12.4439C7.34481 13.2249 6.4554 13.7889 5.71784 14.3529C5.11044 14.8085 4.41626 14.7 3.7004 14.418C2.18189 13.854 0.641693 13.355 -1.05035 12.7693C1.96496 10.8603 3.93902 8.2572 5.93477 5.69743ZM12.9199 4.69956C13.5924 2.96412 14.6119 1.46731 16.3257 0.491132C17.3886 -0.0945765 18.2997 -0.91891 19.3627 -1.67816C18.777 -0.268122 18.1696 1.03346 17.6923 2.40011C16.9765 4.39586 16.8897 6.47837 17.0632 8.56089C17.2151 10.5349 16.1738 11.663 14.677 12.6175C13.0284 13.6587 11.2278 14.1794 9.29717 14.418C8.55961 14.5048 7.84375 14.6132 7.08449 14.7C9.86119 11.8365 11.4882 8.34398 12.9199 4.69956ZM18.3648 11.8799C17.6273 7.91011 17.6489 4.00537 19.5145 0.317579C21.2283 -3.02314 23.4843 -5.8649 27.324 -7.07971C27.888 -6.08184 28.4737 -5.06226 28.951 -4.19454C27.6711 -2.84957 26.3261 -1.67816 25.2632 -0.289813C23.6579 1.8144 22.7251 4.28738 22.4648 6.93392C22.3563 8.12703 22.378 9.36354 22.4648 10.5783C22.7251 13.8974 24.9812 15.7196 27.6277 17.173C29.797 18.3661 32.1832 18.7132 34.5911 18.865C36.7387 19.0169 38.7562 18.3661 40.7302 17.5851C40.9038 17.5201 41.099 17.4333 41.3376 17.3465C41.9667 18.3878 42.5524 19.4074 43.1598 20.4052C38.3006 24.592 30.3176 24.3534 25.1981 20.8174C23.723 19.7978 22.3129 18.6481 20.9463 17.4984C19.2542 16.045 18.7553 13.9841 18.3648 11.8799ZM83.2267 -18.2082C82.7277 -16.7981 82.3372 -15.4749 82.8796 -14.0865C82.9446 -13.8913 82.8796 -13.5876 82.7494 -13.414C81.4044 -11.5485 79.8643 -10.5289 77.5431 -11.2231C77.0008 -11.3749 76.3717 -12.0908 76.1981 -12.6548C75.6341 -14.6505 76.5886 -16.668 78.3674 -17.6876C78.6061 -17.8177 78.9748 -17.8828 79.2352 -17.796C80.5801 -17.3405 81.8383 -17.7309 83.2267 -18.2082ZM100.798 -17.8177C101.058 -17.9045 101.47 -17.7743 101.731 -17.6225C103.51 -16.4944 104.334 -14.6505 103.792 -12.6548C103.618 -12.0691 102.946 -11.3749 102.36 -11.1797C100.451 -10.5723 98.2165 -11.6352 97.2403 -13.414C97.1535 -13.5876 97.0233 -13.8479 97.0884 -13.978C97.7826 -15.4098 97.2186 -16.7331 96.8064 -18.1865C98.1948 -17.7526 99.4313 -17.3188 100.798 -17.8177ZM179.174 -8.92362C180.65 -9.46594 182.103 -10.0516 183.6 -10.4855C187.548 -11.6352 188.719 -10.1384 190.346 -7.75219C191.301 -6.34215 192.103 -4.84533 192.819 -3.21836C192.451 -3.50037 192.125 -3.84746 191.713 -4.0644C188.784 -5.60459 185.661 -6.2337 182.363 -5.75645C180.389 -5.47444 178.437 -4.9755 176.485 -4.58503C175.834 -4.45487 175.335 -4.51994 174.944 -5.17073C174.38 -6.08183 173.664 -6.90617 172.862 -7.96912C175.226 -7.4051 177.2 -8.20775 179.174 -8.92362ZM189.761 -3.95593C192.342 -3.02314 193.926 -0.897236 195.401 1.29375C195.856 1.96623 196.138 2.74718 196.551 3.54982C193.839 5.56726 190.91 6.89053 187.548 6.69529C186.094 6.60852 184.641 6.0879 183.253 5.54558C180.454 4.41755 178.133 2.59534 176.268 0.230817C174.814 -1.63478 175.118 -2.82788 177.309 -3.67391C181.409 -5.27919 185.596 -5.45274 189.761 -3.95593ZM175.226 0.729741C177.222 2.42179 179.174 4.17891 181.322 5.63234C183.361 6.99899 185.769 7.6281 188.242 7.73656C188.806 7.75826 189.37 7.60641 190.173 7.49794C189.761 7.80165 189.522 8.01857 189.262 8.14873C187.526 9.05983 185.812 10.036 184.034 10.8603C181.821 11.9016 179.955 11.0556 178.437 9.42859C176.832 7.71486 175.422 5.82759 173.816 4.13554C172.884 3.15936 171.712 2.37839 170.627 1.51068C171.43 1.16359 172.363 0.838216 173.209 0.360967C174.077 -0.0945841 174.597 0.187414 175.226 0.729741ZM181.062 12.791C179.044 13.4635 177.244 14.3312 175.335 14.6349C174.098 14.8301 173.079 13.7021 172.32 12.6608C170.476 10.1445 169.109 7.38948 167.981 4.48263C167.656 3.6366 167.222 2.83396 166.766 1.87948C170.259 1.83609 172.536 3.72336 174.51 6.23974C176.354 8.62597 178.242 11.0122 181.062 12.791ZM167.656 5.97944C168.632 9.12491 170.302 12.0101 172.818 14.5915C170.584 14.4614 168.567 14.2011 166.701 13.3333C166.05 13.0296 165.443 12.6609 164.835 12.2704C163.556 11.4027 162.796 10.253 162.905 8.58259C163.165 5.00326 162.514 1.59746 160.584 -1.54802C163.556 0.426039 166.484 2.22657 167.656 5.97944ZM161.842 4.67787C162.471 8.01858 161.972 11.3159 160.974 14.5264C160.714 15.3508 160.258 16.1968 159.673 16.8042C156.701 19.8412 153.382 22.3793 149.086 23.1602C145.182 23.8761 141.364 23.6158 137.958 21.2079C137.589 20.9476 137.22 20.7306 136.786 20.4486C137.416 19.364 138.001 18.3878 138.522 17.5418C140.279 17.9539 141.949 18.4529 143.641 18.7349C145.984 19.1253 148.305 18.6698 150.54 17.9322C152.362 17.3248 153.967 16.327 155.399 15.0254C156.831 13.7455 157.395 12.0968 157.547 10.318C158.067 4.46094 155.941 -0.224741 151.234 -3.76068C151.147 -3.82576 151.082 -3.89084 150.952 -3.9993C151.538 -5.01887 152.102 -6.06014 152.709 -7.12309C158.046 -4.93211 160.822 -0.788752 161.842 4.67787ZM155.442 26.7613C153.598 26.9999 151.798 27.347 150.041 26.5877C148.566 25.9586 147.156 25.2427 145.963 24.7004C148.002 24.2015 150.279 23.7242 152.492 23.0518C153.512 22.7481 154.488 22.1407 155.356 21.4899C157.048 20.2317 158.631 20.6655 160.302 21.5116C162.666 22.7047 164.12 24.8089 165.768 26.8914C162.276 26.1972 158.848 26.3057 155.442 26.7613ZM123.641 47.9769C125.289 47.9119 126.352 48.6277 127.242 49.8642C128.934 52.2071 129.368 54.9187 129.628 57.8906C126.786 55.179 123.51 53.6171 120.105 52.2721C118.131 51.4912 116.417 50.4282 115.354 48.4759C114.812 47.478 114.031 46.632 113.467 45.851C115.245 46.4367 117.068 47.2177 118.998 47.6515C120.495 47.9986 122.1 48.042 123.641 47.9769ZM66.7834 45.569C64.6358 48.2806 63.2475 51.361 59.6464 52.424C56.8698 53.2483 52.4227 55.6562 50.427 57.8906C50.5788 54.5933 51.0127 52.8579 52.2925 50.5801C53.247 48.888 54.4835 47.8685 56.6311 47.9769C60.1454 48.1722 62.1628 47.9336 66.7834 45.569ZM12.0956 53.1182C11.5966 49.7341 11.9003 46.5452 13.7008 43.7685C15.3495 41.2304 17.8008 39.495 20.6426 38.4321C22.3129 37.803 24.0701 37.3474 25.8489 37.1088C27.3674 36.9135 28.1049 37.6945 27.9748 39.2564C27.7362 42.532 26.4346 45.4172 24.569 48.0854C21.9224 51.86 18.213 53.3134 13.7225 53.0965C13.1802 53.0965 12.6596 53.1182 12.0956 53.1182ZM14.2432 26.9348C16.2172 24.3534 18.0611 21.8153 21.315 20.9042C22.3346 20.6222 23.2457 20.6222 24.2002 21.2729C27.2372 23.3772 30.6213 24.4618 34.526 24.4184C31.0986 26.1972 27.9097 27.629 23.9616 26.7396C20.8595 26.0454 17.5839 26.1972 14.2432 26.9348ZM38.4308 24.2232C39.6673 23.7893 40.9038 23.3338 42.1619 22.8999C41.2292 25.438 40.3614 27.9761 39.3636 30.4491C38.0186 33.7681 35.6758 36.0458 32.1181 36.8919C31.3155 37.0871 30.4261 36.9569 29.5801 36.8485C28.6039 36.7183 28.17 35.9808 28.1049 35.0263C27.8663 31.9242 29.1679 29.4946 31.489 27.5422C33.5065 25.8068 36.0012 25.0475 38.4308 24.2232ZM21.7923 27.3904C23.9399 27.4554 26.0875 27.8676 28.3002 28.1279C27.2155 30.3189 25.2849 31.5337 23.0071 32.1194C21.1415 32.5967 19.1891 32.7919 17.3019 33.2258C15.4797 33.6379 13.6791 34.2019 11.8352 34.7226C12.1606 33.0088 12.3559 31.0998 12.985 29.3427C13.2453 28.6052 14.4384 27.911 15.2844 27.7808C17.432 27.4337 19.623 27.3253 21.7923 27.3904ZM15.74 34.4839C17.1934 34.0935 18.7119 33.8765 20.2304 33.6162C22.4648 33.2258 24.7425 32.9871 26.7166 31.2951C26.6081 32.7051 26.5864 33.9199 26.3478 35.0697C26.261 35.4384 25.5886 35.8072 25.1113 35.9374C21.7489 36.8702 18.4516 37.9114 15.74 40.2326C14.0479 41.686 12.421 43.1828 11.8569 45.4823C11.7485 45.4606 11.6183 45.4389 11.5099 45.4172C11.6617 43.096 11.7919 40.7966 11.9654 38.4754C12.1389 36.1543 13.7225 35.048 15.74 34.4839ZM28.5822 41.6643C29.4716 38.6924 29.515 38.6924 32.5954 38.4104C32.8774 38.3887 33.1811 38.3453 33.6583 38.3019C31.207 41.5558 31.5758 45.4172 30.6647 48.9097C29.9054 51.7732 28.734 52.8795 25.8489 53.27C25.3282 53.3351 24.7859 53.3785 24.2436 53.3785C22.6817 53.4002 21.1198 53.3785 19.4278 53.3785C24.6775 51.0573 27.0854 46.7188 28.5822 41.6643ZM32.5737 43.5082C32.8774 41.4908 33.68 39.7336 34.9816 38.1934C35.5022 37.586 36.2181 37.1739 37.1075 36.458C37.3244 40.2543 37.6064 43.7468 37.6498 47.2177C37.6715 48.4542 37.1509 49.7124 36.8038 50.9272C36.6086 51.6647 36.0662 52.0769 35.2636 52.2071C33.5716 52.4891 31.8795 52.8795 30.0573 53.2483C31.6843 50.1028 32.0747 46.7838 32.5737 43.5082ZM38.4958 42.5971C38.4308 41.0786 38.1054 39.5818 37.9752 38.0633C37.8451 36.6749 38.2355 35.395 38.8863 34.1586C39.4503 33.0956 39.8842 31.9242 40.4699 30.6009C40.6001 31.8374 40.6868 32.8787 40.8387 33.8982C41.1858 36.2628 42.0752 38.4321 43.4635 40.341C44.5048 41.7945 44.4614 43.2696 43.7889 44.7664C42.6175 47.4129 40.4048 49.105 38.0186 50.8621C38.8429 47.9553 38.626 45.2653 38.4958 42.5971ZM46.3487 42.7706C44.2011 40.1241 42.3789 37.3257 41.8149 33.8982C41.099 29.538 41.6413 25.438 44.6566 21.8587C45.6545 22.4661 46.6741 23.0518 47.4333 23.5073C46.9778 25.7851 46.2185 27.8893 46.1968 29.9935C46.1534 33.6379 47.1296 37.0871 49.6026 39.9939C51.6201 42.3585 54.2449 42.7923 57.0867 42.7056C59.6248 42.6405 62.0544 41.8812 64.1369 40.5363C65.9808 39.3432 67.5427 37.6945 69.3215 36.1326C70.0807 36.5665 71.1003 37.1305 72.1199 37.7162C70.2977 43.4431 63.1607 47.3045 58.2147 47.0224C56.4793 46.9357 54.7655 46.7621 53.0301 46.6103C50.2317 46.3717 48.1058 44.9399 46.3487 42.7706ZM78.0204 15.0471C78.0637 15.0037 78.1505 15.0254 78.3891 14.9603C77.8034 17.3682 77.2828 19.6894 76.6537 21.9671C76.5669 22.2925 76.0029 22.5962 75.5907 22.6613C72.7924 23.1168 70.9485 24.7655 70.3411 27.4337C69.712 30.2104 70.7749 33.2474 74.0072 34.1585C78.3891 35.395 81.6431 31.3385 81.0574 27.6073C80.7537 25.7634 79.8426 24.3967 78.4542 23.2687C78.2373 23.0952 77.977 22.7264 78.0204 22.5094C78.6711 20.1449 79.4087 17.7804 80.1029 15.3942C80.8187 16.6307 81.3828 17.8672 82.1637 18.9518C83.8124 21.2079 86.307 22.1624 88.8451 23.0301C89.1054 23.1169 89.5176 23.4206 89.5176 23.5724C89.3007 25.4814 89.279 27.4771 88.6716 29.2776C87.0446 34.0935 83.5521 36.7834 78.4542 37.1522C76.7839 37.2606 75.0267 37.3474 73.4215 36.9352C71.8596 36.5231 70.3628 35.6337 69.0395 34.6792C67.2824 33.3993 65.612 31.9242 64.7226 29.8417C64.2887 28.8221 63.985 27.7374 63.8332 26.6311C63.421 23.3555 64.4189 20.3618 66.0459 17.5635C66.176 17.3248 66.6533 17.0645 66.8919 17.1296C70.9485 18.1492 74.723 17.9322 78.0204 15.0471ZM75.0267 -10.0083C74.1807 -8.35959 73.8119 -6.71093 74.0939 -4.9321C74.1373 -4.71518 73.9638 -4.3681 73.7685 -4.23794C72.8357 -3.56546 71.9246 -2.84959 70.9051 -2.30726C69.8204 -1.74325 68.6924 -2.04696 67.8681 -2.93637C67.0437 -3.80408 66.74 -4.84533 67.3474 -5.90828C67.8898 -6.88447 68.5622 -7.77389 69.213 -8.68499C69.3649 -8.88023 69.6903 -9.09715 69.8855 -9.05376C71.686 -8.79345 73.3781 -9.14054 75.0267 -10.0083ZM75.1569 -7.75219C75.3087 -8.16435 75.4823 -8.57651 75.6775 -8.96699C76.4151 -10.4421 76.4151 -10.4204 78.0637 -10.1167C79.4304 -9.85641 80.6669 -10.2903 82.0335 -11.158C81.7515 -9.16221 82.5108 -7.73049 83.6822 -6.45061C83.8341 -6.29876 83.9642 -5.99506 83.8991 -5.79983C83.27 -3.15329 80.1029 -1.39617 77.5865 -2.28558C76.0897 -2.8279 74.2024 -5.23581 75.1569 -7.75219ZM102.859 -10.312C103.076 -10.377 103.488 -10.2469 103.618 -10.0733C105.158 -8.05588 105.831 -5.53951 103.878 -3.39191C102.295 -1.65648 99.6482 -1.52631 97.8911 -3.21836C97.2403 -3.84746 96.7197 -4.62839 96.2424 -5.40934C96.0906 -5.66965 96.1556 -6.27708 96.3726 -6.5157C97.5006 -7.79558 98.1948 -9.2056 97.9778 -11.158C99.6265 -10.0299 101.188 -9.81303 102.859 -10.312ZM109.952 -9.03207C110.213 -9.05377 110.603 -8.9236 110.755 -8.75006C111.427 -7.86065 112.122 -6.97124 112.621 -5.99506C113.25 -4.78027 113.011 -3.80408 112.057 -2.87128C111.167 -2.00356 110.148 -1.76493 108.998 -2.37233C108.022 -2.89296 107.132 -3.58716 106.243 -4.23794C106.048 -4.3681 105.874 -4.71518 105.917 -4.93211C106.286 -6.7977 105.744 -8.46806 104.898 -10.1167C106.525 -9.16223 108.174 -8.83684 109.952 -9.03207ZM109.54 17.5851C110.733 17.4116 111.926 17.2381 113.12 17.1296C113.38 17.1079 113.77 17.3248 113.9 17.5418C115.961 20.9475 116.786 24.6354 115.788 28.5184C115.462 29.7766 114.66 31.0131 113.814 32.0326C112.816 33.2258 111.558 34.2019 110.343 35.1781C107.631 37.3257 104.507 37.8463 101.188 37.1088C99.6482 36.7617 98.0863 36.3495 96.6112 35.7855C94.8975 35.1347 93.8562 33.703 92.8149 32.2279C90.9276 29.603 90.7324 26.6311 90.4938 23.6158C90.4721 23.4422 90.7324 23.0952 90.9059 23.0518C95.0927 21.9237 98.39 19.7978 99.8868 15.3725C100.581 17.7153 101.297 20.0365 101.948 22.401C102.013 22.6613 101.752 23.1385 101.492 23.3338C99.2794 25.1126 98.5419 27.412 99.0842 30.1454C99.4964 32.2062 101.861 34.0718 103.9 34.3104C105.462 34.4839 106.763 34.0284 107.957 33.139C110.039 31.5771 110.495 27.7591 108.911 25.5681C107.783 24.0279 106.416 22.8782 104.421 22.7047C103.596 22.6396 103.336 22.1624 103.184 21.4031C102.794 19.4724 102.273 17.5852 101.818 15.6545C101.774 15.4593 101.752 15.264 101.687 14.8735C102.468 15.3942 103.097 15.8063 103.726 16.2185C105.505 17.3899 107.436 17.8672 109.54 17.5851ZM123.532 29.4295C123.575 28.6919 123.619 27.9544 123.532 27.2168C123.445 26.5226 123.207 25.8502 123.033 25.0909C123.619 25.1777 124.161 25.3078 124.725 25.3512C125.289 25.3946 125.875 25.3512 126.526 25.3512C127.437 27.7808 127.849 30.2321 127.025 32.7702C126.135 35.4601 124.378 36.458 121.341 35.8723C119.606 35.5469 118.109 34.6792 116.851 33.3993C116.352 32.9004 115.875 32.358 115.376 31.8374C115.896 30.7744 116.395 29.7766 116.916 28.7136C117.48 29.2342 118 29.8417 118.651 30.2972C119.28 30.7528 119.996 31.1215 120.734 31.3602C122.252 31.9025 123.402 31.0782 123.532 29.4295ZM118.326 35.6987C120.148 36.9135 122.231 37.2823 124.378 36.8485C126.461 36.4363 128.305 33.5511 128.326 30.8612C128.326 29.9067 128.37 28.9305 128.239 27.9977C128.109 27.065 127.784 26.1539 127.524 25.1994C128.803 24.8089 130.018 24.4401 131.363 24.0279C132.426 26.0454 133.034 28.193 132.903 30.4491C132.773 32.64 132.405 34.8093 131.342 36.8485C129.953 39.4516 128.196 41.4474 125.029 41.6643C119.454 42.0331 115.05 39.9506 111.731 35.3951C112.751 34.4406 113.705 33.5511 114.616 32.6834C115.853 33.7247 117.003 34.831 118.326 35.6987ZM122.426 26.783C122.578 27.5205 122.556 28.3232 122.447 29.0607C122.274 30.167 121.558 30.5358 120.517 30.1454C119.194 29.6464 118.196 28.7353 117.436 27.5639C117.219 27.2168 117.154 26.7396 117.133 26.3057C117.003 24.5486 116.937 22.8131 116.872 21.5116C117.827 22.1407 119.063 23.1385 120.43 23.811C121.732 24.4618 122.144 25.5681 122.426 26.783ZM87.9774 38.6707C89.1271 40.5146 90.8843 40.4929 92.034 38.649C92.7065 37.5426 93.1403 36.2845 93.6826 35.0913C94.4202 35.5686 95.3096 36.1109 96.1556 36.6966C96.2858 36.7834 96.4377 37.0437 96.3943 37.1956C95.8519 39.8855 94.9191 42.3802 92.5329 44.0071C90.125 45.6341 88.6065 45.2436 86.2203 42.9876C84.615 41.4691 83.9859 39.3865 83.5521 37.2606C83.5087 37.0871 83.6605 36.8051 83.8124 36.6966C84.6584 36.1326 85.5044 35.5903 86.2637 35.113C86.8494 36.3278 87.3049 37.5643 87.9774 38.6707ZM87.4351 33.8332C87.4351 33.1824 88.0859 32.5316 88.433 31.8808C89.0187 30.7311 89.561 29.5596 89.9731 28.7353C90.7107 30.1237 91.6435 31.794 92.4895 33.5295C92.6631 33.8982 92.6197 34.4839 92.4461 34.8961C91.9906 36.0458 91.5134 37.1956 90.8626 38.2151C90.4504 38.8659 89.7128 38.8225 89.1054 38.2585C87.8256 37.0654 87.4568 35.4601 87.4351 33.8332ZM83.3785 40.0156C84.3981 42.7273 86.0684 44.8098 88.9319 45.7426C90.8843 46.3717 92.4245 45.3955 93.7694 44.2458C95.4832 42.814 96.5895 40.9484 97.0017 38.7141C97.0884 38.2151 97.2837 37.7379 97.4138 37.2606C98.5419 37.4993 99.5831 37.7813 100.646 37.9548C101.188 38.0416 101.319 38.2368 101.253 38.7575C100.971 41.4691 100.039 43.8553 98.3249 46.0029C96.2858 48.5409 93.8345 50.3632 90.6023 50.9489C89.9081 51.079 89.1054 50.9489 88.433 50.7102C83.0097 48.9314 79.9727 45.0484 78.7796 39.6035C78.6711 39.1479 78.7579 38.6707 78.7579 38.1067C79.951 37.8247 81.2092 37.5426 82.5759 37.2389C82.8362 38.1717 83.0314 39.1262 83.3785 40.0156ZM87.4785 10.535C87.4568 11.5979 87.5435 12.7042 87.7822 13.7238C87.9991 14.6783 89.1705 15.4159 90.0382 15.3508C91.1229 15.2857 91.8604 14.6349 92.2726 13.6587C92.8366 12.2921 92.6848 10.8604 92.3811 9.45031C92.2509 8.82122 92.1641 8.19212 92.034 7.49795C92.9451 8.06197 93.7694 8.58257 94.5937 9.1032C94.7239 9.18998 94.8974 9.34184 94.8974 9.472C95.1795 11.9667 95.3313 14.418 93.6393 16.5873C91.253 19.6243 87.4134 18.9518 85.678 15.5894C84.6801 13.6587 84.7885 11.5762 85.1139 9.51538C85.1356 9.34184 85.3743 9.14661 85.5695 9.03814C86.3287 8.53921 87.1097 8.04028 87.9557 7.49795C87.7822 8.53921 87.5002 9.53709 87.4785 10.535ZM89.1271 7.10747C89.3007 6.45668 89.6478 5.84929 89.9949 5.00327C91.2097 7.6498 91.9472 10.1445 91.5134 12.8778C91.3832 13.7021 90.971 14.3095 90.0816 14.3529C89.1271 14.3963 88.6933 13.7455 88.498 12.8995C88.0425 10.9037 88.6282 9.01644 89.1271 7.10747ZM84.1378 9.66725C84.1378 11.1641 84.0076 12.5741 84.1595 13.9407C84.4198 16.392 86.5674 18.7566 88.6933 19.364C91.6001 20.1666 94.3768 17.9756 95.353 15.6979C96.0689 14.0275 96.1556 12.2704 95.8953 10.4916C95.8519 10.2746 95.8953 10.036 95.8953 9.75399C96.0906 9.71061 96.1556 9.68893 96.2207 9.68893C98.8889 9.58047 99.0408 9.71062 99.0625 12.4222C99.1059 16.2619 97.4789 19.1254 94.008 20.8174C92.8366 21.3814 91.5567 22.119 90.3202 22.0973C86.9361 22.0322 84.2462 20.4052 82.3155 17.5635C80.797 15.3291 80.6235 12.8778 81.2309 10.318C81.296 10.0794 81.5997 9.71063 81.8166 9.68893C82.5542 9.60216 83.2917 9.66725 84.1378 9.66725ZM107.848 26.3274C108.152 27.1083 108.26 27.9544 108.456 28.7787C108.304 31.6422 105.983 33.5078 103.206 32.857C101.883 32.5533 101.362 31.4035 100.776 30.384C99.5831 28.2798 99.9519 25.0909 102.707 23.9195C104.529 23.1385 106.98 24.1798 107.848 26.3274ZM101.839 13.4852C100.885 12.3572 100.386 10.8387 99.6916 9.45031C100.711 8.84291 101.449 8.40904 101.991 8.08365C103.097 9.58046 104.052 11.1857 105.332 12.509C107.544 14.7868 111.688 14.7651 113.488 12.5307C115.137 10.5133 115.376 8.17043 114.508 5.7842C114.031 4.46094 113.228 3.26782 112.555 2.00963C113.25 1.59747 113.987 1.1636 114.746 0.729744C118.564 3.87521 118.803 9.47199 116.33 12.7693C115.267 14.2011 114.421 15.7846 112.534 16.2619C108.456 17.3248 104.703 16.8259 101.839 13.4852ZM110.083 9.94923C111.189 9.36353 111.623 8.27889 111.015 6.54346C110.625 5.39373 109.735 4.41756 109.02 3.3763C108.759 2.98583 108.412 2.66041 108.108 2.26994C110.104 1.74931 111.536 2.31333 112.534 3.94031C113.64 5.71912 114.334 7.56301 113.835 9.73231C112.903 13.7455 108.607 13.9624 106.221 12.0968C104.659 10.882 103.77 9.21168 103.054 7.43286C102.989 7.25932 102.967 7.0207 103.032 6.86885C103.466 6.00113 103.943 5.13342 104.356 4.35248C105.115 5.89267 105.787 7.47624 106.698 8.95136C107.479 10.2096 108.998 10.5349 110.083 9.94923ZM109.735 5.89267C109.996 6.32652 110.213 6.80377 110.299 7.30271C110.43 8.04027 110.364 8.90797 109.54 9.1032C108.998 9.23336 108.13 9.03813 107.74 8.64766C106.199 7.12915 105.766 5.04665 105.223 3.0509C105.071 2.46519 105.071 1.83608 105.006 1.05514C107.089 2.3784 108.542 4.00539 109.735 5.89267ZM102.447 6.06619C101.21 8.06194 98.4985 9.14661 96.2424 8.60429C92.9017 7.80164 90.9927 5.5239 90.4721 1.96626C91.188 1.68424 91.8821 1.42392 92.598 1.14192C93.0969 2.18318 93.5308 3.3112 94.1382 4.30908C95.2445 6.15297 96.5461 6.54345 98.7805 5.91435C100.169 5.52388 101.297 3.76675 101.123 2.24825C100.993 1.1853 100.928 0.100656 100.82 -1.04907C101.514 -1.15753 102.23 -1.26599 103.032 -1.39615C104.269 1.207 103.943 3.65828 102.447 6.06619ZM100.06 0.924981C100.06 1.46731 100.147 2.00963 100.125 2.55195C100.104 3.96199 99.3445 4.8514 97.8477 5.26357C96.8498 5.54558 95.4832 4.93817 94.9191 3.89691C94.507 3.11596 94.1816 2.29163 93.8345 1.48899C93.6176 0.946672 93.7477 0.491136 94.0297 -0.0945726C94.7022 -1.48292 95.1361 -2.97974 95.5916 -4.17285C96.3726 -3.47868 97.2837 -2.35066 98.4551 -1.74325C99.6699 -1.11417 100.06 -0.289817 100.06 0.924981ZM89.7345 0.859895C86.9795 0.751428 84.6367 -2.84958 85.7213 -5.36596C85.8298 -5.62628 86.242 -5.8432 86.5457 -5.95167C88.2811 -6.55907 89.1705 -7.31833 90.0165 -9.03207C90.7541 -7.38341 91.9038 -6.36383 93.5091 -5.95167C94.1599 -5.79981 94.3551 -5.43104 94.4419 -4.84533C94.9408 -1.80832 92.6631 0.990053 89.7345 0.859895ZM95.4832 -7.03631C95.1578 -6.77599 94.572 -6.66755 94.1382 -6.73263C92.0774 -7.01464 90.2769 -9.33578 90.4504 -11.44C90.4721 -11.5918 90.4938 -11.8305 90.5805 -11.8955C91.9472 -12.7416 92.0557 -14.2601 92.5329 -15.5833C93.5308 -14.6722 94.29 -13.414 95.8519 -13.414C96.0038 -13.414 96.1773 -13.1971 96.2858 -13.0453C97.5657 -11.2231 97.2186 -8.46804 95.4832 -7.03631ZM90.8843 -13.6744C90.7324 -13.3273 90.2769 -12.9151 89.9949 -12.9151C89.6911 -12.9151 89.2573 -13.349 89.0837 -13.6744C87.934 -16.1474 88.8668 -18.4034 89.9731 -20.8764C91.1663 -18.3817 92.0557 -16.1474 90.8843 -13.6744ZM89.4308 -11.9172C89.4959 -11.8738 89.5393 -11.7437 89.561 -11.6569C90.0816 -9.70456 87.5652 -6.68922 85.5478 -6.71091C84.2245 -6.73261 82.5759 -9.35747 82.9447 -10.7892C83.1182 -11.4183 83.2917 -12.0257 83.487 -12.6331C83.6605 -13.132 84.0293 -13.3056 84.5499 -13.5225C85.5044 -13.9564 86.3071 -14.7156 87.1748 -15.3447C87.2832 -15.4098 87.3049 -15.5833 87.4351 -15.822C87.8906 -14.2384 88.0642 -12.7633 89.4308 -11.9172ZM84.0076 -3.93423C84.2028 -4.10778 84.3113 -4.34639 84.615 -4.73687C84.5499 -2.69773 85.0922 -1.09247 86.2203 0.295885C86.3504 0.447733 86.3721 0.773126 86.3071 0.968363C85.8298 2.09639 85.461 3.28951 84.7885 4.28739C84.051 5.39372 82.8145 5.56726 81.5129 5.06833C80.4933 4.69955 79.8209 3.67999 79.8426 2.40011C79.8426 1.61917 79.9076 0.838213 80.0161 0.0572683C80.1246 -0.615217 80.4066 -1.04908 81.1224 -1.43955C82.2071 -2.06865 83.0748 -3.08821 84.0076 -3.93423ZM79.1701 -1.04907C79.0833 0.122355 78.9532 1.29376 78.9315 2.48686C78.8881 4.11383 79.8209 5.4805 81.1658 5.91435C83.2483 6.58684 84.7018 6.21807 85.7213 4.56941C86.3721 3.50646 86.8494 2.33502 87.4134 1.18529C88.0859 1.4456 88.8017 1.70594 89.4959 1.96626C89.0837 5.65405 87.1097 7.60641 84.2245 8.51751C81.86 9.25507 79.4955 8.58259 77.9119 6.54346C76.0463 4.15724 75.569 1.48901 76.9574 -1.37446C77.76 -1.266 78.4542 -1.15753 79.1701 -1.04907ZM73.2479 9.01646C74.1807 7.54134 74.8532 5.89267 75.6341 4.37416C76.0463 5.13342 76.5018 5.97944 76.9574 6.86885C77.0225 6.99901 77.0659 7.19424 77.0008 7.3244C76.2198 9.27676 75.222 11.0556 73.4865 12.3571C72.2717 13.2683 69.3215 13.572 67.9765 12.5524C66.5665 11.4894 65.6554 9.23336 66.0676 7.25931C66.4363 5.48049 67.3474 3.98368 68.4972 2.59533C68.6056 2.46517 68.8226 2.31333 68.9744 2.31333C69.9289 2.24826 70.8617 2.20486 72.0114 2.13978C71.3823 2.89904 70.7966 3.52815 70.2977 4.24401C69.7987 4.95988 69.3215 5.71913 68.9744 6.52177C68.367 7.91012 68.7575 9.27676 69.8638 9.92755C70.9485 10.535 72.467 10.253 73.2479 9.01646ZM72.4887 8.45242C71.9897 9.14659 71.2305 9.60215 70.3628 9.08152C69.495 8.58258 69.5384 7.71486 69.8421 6.91223C70.7966 4.46092 72.6188 2.7472 74.8098 1.31547C74.7664 3.96201 74.0289 6.34821 72.4887 8.45242ZM66.4363 3.78844C65.0263 6.19635 64.4623 8.66935 65.7639 11.3593C66.9787 13.854 69.2564 14.5915 71.8379 14.0058C74.6796 13.355 76.1981 11.2942 77.3479 8.84291C77.4563 8.62597 77.5431 8.40904 77.6516 8.19212C77.695 8.10534 77.76 8.04026 77.8034 7.97518C78.5844 8.43073 79.3219 8.88628 80.1029 9.32014C79.1701 14.3746 74.6579 16.8259 71.3823 16.7174C70.2326 16.674 69.0829 16.5873 67.9548 16.392C66.8268 16.1968 65.7855 15.6979 65.1348 14.7217C64.2237 13.3767 63.1173 12.0752 62.5967 10.5783C61.4903 7.36779 61.9676 4.28739 64.3538 1.66255C64.6575 1.33715 64.9395 1.01176 65.2215 0.708056C66.0025 1.16361 66.74 1.59748 67.5644 2.07472C67.1956 2.63874 66.7834 3.20273 66.4363 3.78844ZM76.1548 23.6375C77.5214 23.6592 79.0833 24.8089 79.5389 26.1756C80.233 28.2147 79.4955 30.9697 77.8251 32.3147C77.478 32.5967 76.9357 32.9004 76.5452 32.8353C75.2871 32.64 73.9855 32.4231 72.8574 31.9025C71.5559 31.2951 71.7294 29.885 71.686 28.8221C71.7077 25.72 73.5733 23.6158 76.1548 23.6375ZM59.3861 31.3602C60.4925 30.8612 61.4687 30.0152 62.4665 29.2993C62.6835 29.1475 62.7919 28.8655 62.9872 28.5835C63.5729 29.6898 64.0718 30.6226 64.5274 31.5554C64.5924 31.7072 64.549 32.0326 64.4406 32.1628C63.0088 33.6162 61.5337 35.0046 59.5597 35.7421C56.3925 36.9136 53.3989 35.3517 52.7481 31.9893C52.3142 29.7332 52.6179 27.5205 53.4857 25.4597C54.6571 25.3729 55.8068 25.2861 56.9348 25.1994C56.7396 26.1105 56.4793 27.0216 56.3925 27.9327C56.3274 28.5835 56.3925 29.2993 56.566 29.9501C56.9348 31.3168 58.0629 31.9676 59.3861 31.3602ZM62.9004 26.5226C62.857 26.9999 62.6835 27.5639 62.3798 27.911C61.7507 28.6052 61.0565 29.321 60.2322 29.7766C59.6465 30.102 58.6052 30.3623 58.193 30.0586C57.6941 29.6898 57.4121 28.6919 57.4338 27.9978C57.4555 27.0433 57.6507 25.9586 58.1713 25.1777C58.692 24.3967 59.6898 23.9195 60.5142 23.3555C61.447 22.683 62.4014 22.0539 63.139 21.5549C63.0739 23.0084 63.0305 24.7655 62.9004 26.5226ZM52.4878 25.1994C52.3359 25.7851 52.1624 26.3925 52.0105 26.9999C51.4465 29.1909 51.4248 31.4036 52.2709 33.5078C53.7026 37.022 56.3491 37.7162 60.1888 36.3929C61.2083 36.0458 62.1628 35.4601 63.0305 34.8093C63.8549 34.1802 64.5057 33.3125 65.2432 32.5316C66.3279 33.5295 67.2824 34.4189 68.2802 35.3517C65.7422 39.1696 62.1411 41.122 57.6941 41.6426C56.6962 41.7511 55.6766 41.7077 54.6788 41.6209C51.6418 41.3389 49.9714 39.3215 48.6915 36.8051C47.3683 34.1802 46.8476 31.3818 47.2381 28.4967C47.4333 26.9782 48.0407 25.5031 48.4529 23.9846C49.928 24.4401 51.1428 24.8089 52.4878 25.1994ZM72.4453 40.4278C72.8357 42.4019 73.2045 44.4193 73.6167 46.4367C74.159 49.0399 74.2241 51.5997 73.2045 54.1377C72.467 55.9382 71.2739 57.3483 69.6252 58.3245C67.8681 59.344 66.8268 59.0403 65.9157 57.1964C64.7226 54.8102 64.6141 52.3155 65.5686 49.7991C66.5665 47.1526 68.4755 45.1352 70.276 43.0743C71.0352 42.1632 71.7728 41.2521 72.4453 40.4278ZM52.3576 57.3917C54.8306 55.8949 57.3904 54.5933 59.9501 53.2483C60.9263 52.7277 61.9893 52.3372 63.1173 51.86C63.1824 54.9404 61.6422 57.1097 59.4729 58.9969C57.347 60.8408 55.2862 62.7932 53.2253 64.7022C52.8783 65.0276 52.6613 65.4614 52.2709 66.0038C51.7285 64.5286 51.1645 63.162 50.7307 61.7736C50.1449 59.7996 50.5571 58.498 52.3576 57.3917ZM55.8285 63.2921C57.4121 61.817 59.1692 60.4938 60.7528 58.9969C61.7724 58.0425 62.575 56.871 63.5078 55.7647C63.9416 56.7192 64.5274 57.8038 64.8961 58.9752C65.0046 59.3006 64.5707 59.8863 64.2887 60.2768C62.7702 62.1424 61.0999 63.8996 59.7115 65.8736C58.1713 68.0646 57.4988 70.6677 57.2602 73.336C57.2168 73.8783 57.4121 74.464 57.4988 75.028C57.4121 75.0714 57.3253 75.1148 57.2385 75.1582C56.2624 73.2709 55.2211 71.4053 54.31 69.4963C53.0084 66.8715 53.9195 65.0493 55.8285 63.2921ZM58.2581 73.5095C58.193 71.7307 58.8655 69.8434 59.5597 68.1297C60.6877 65.3096 62.575 62.9667 65.0263 61.1445C66.6316 59.9514 67.8898 60.2985 68.6273 62.1641C70.1675 66.0471 70.4278 69.9953 69.2564 74.0301C68.3887 77.0021 66.1543 78.8026 63.7464 80.4512C63.0739 80.9068 62.293 81.1888 61.512 81.601C59.5163 79.1714 58.3883 76.4381 58.2581 73.5095ZM69.2347 76.4381C71.2088 72.4899 71.2955 68.3466 70.276 64.1382C70.0591 63.2271 69.712 62.316 69.5818 61.3832C69.5167 60.971 69.6686 60.3636 69.9506 60.1033C70.84 59.344 71.8379 58.7149 72.9876 57.9123C72.4236 60.0382 73.0744 61.7953 73.7035 63.5525C74.3326 65.3096 75.0484 67.045 75.5691 68.8455C76.3934 71.7524 75.7209 73.4661 73.1828 75.0931C71.6209 76.091 70.0157 77.0238 68.2802 77.8264C68.5839 77.3925 68.9744 76.9587 69.2347 76.4381ZM74.1373 61.8821C73.3781 59.4742 73.595 57.2398 74.94 54.8536C76.8489 57.7171 78.6495 60.4287 80.45 63.1403C81.3394 64.4853 81.9034 66.0038 81.9685 67.609C81.9902 68.1731 81.5346 68.8889 81.1008 69.3228C79.9076 70.4942 78.5844 71.5572 77.1526 72.8153C77.0876 68.7371 75.2437 65.418 74.1373 61.8821ZM77.0225 56.4589C75.8077 54.9621 75.222 53.2266 75.222 51.2526C75.222 50.1679 75.0267 49.105 74.8749 47.76C75.1569 48.1288 75.287 48.3023 75.3955 48.4759C77.0225 51.2743 79.2785 53.4219 82.1854 54.7668C84.1595 55.6779 84.8319 57.1747 84.897 59.1271C85.0055 61.7519 84.0076 64.1165 82.9229 66.6112C81.6431 62.6847 79.4955 59.4959 77.0225 56.4589ZM87.9991 56.0467C84.5716 55.2658 81.4261 53.769 78.8664 51.3393C76.4368 49.0616 74.8098 46.2198 74.1807 42.9225C73.8987 41.4474 73.9855 39.9289 73.8987 38.3019C75.1569 38.3019 76.1981 38.2585 77.2394 38.3453C77.4563 38.367 77.7817 38.8225 77.8251 39.1045C78.3457 44.1807 81.1224 47.8034 85.2658 50.4499C88.433 52.4891 91.7303 52.424 94.8758 50.3632C98.6503 47.9119 101.21 44.5712 102.056 40.059C102.382 38.2802 102.425 38.2802 104.247 38.2802C104.789 38.2802 105.332 38.2802 105.917 38.2802C106.568 42.9659 105.05 46.8055 102.186 50.1896C99.3879 53.5086 95.6133 55.2007 91.5134 56.1552C90.407 56.4372 89.1271 56.307 87.9991 56.0467ZM107.566 40.4495C109.258 42.4886 111.059 44.4844 112.664 46.6103C114.985 49.669 115.853 53.0531 114.291 56.7409C113.12 59.5176 111.471 59.5393 109.063 57.3049C105.787 54.3113 105.635 50.4716 106.373 46.4584C106.763 44.4627 107.176 42.4452 107.566 40.4495ZM97.0234 55.2658C100.321 53.5737 103.076 51.361 104.985 47.8251C105.028 51.7081 104.486 55.0488 101.883 57.9557C99.7133 60.407 98.0429 63.2921 97.1101 66.6762C95.7652 63.4223 94.3117 60.3419 95.6133 56.8493C95.8302 56.2419 96.416 55.5912 97.0234 55.2658ZM98.5852 65.136C100.104 62.4895 101.817 59.9514 103.466 57.3917C103.987 56.589 104.529 55.8081 105.115 54.9404C106.85 57.8255 106.416 60.6239 105.375 63.4657C104.507 65.8519 103.77 68.3032 103.054 70.7328C102.88 71.2968 102.946 71.9259 102.88 72.837C101.275 71.3836 99.6482 70.2122 98.39 68.6937C97.544 67.7175 97.9778 66.199 98.5852 65.136ZM104.312 69.4746C104.746 67.7392 105.484 66.0688 105.983 64.3551C106.46 62.7498 106.872 61.1012 107.219 59.4525C107.306 59.0186 107.132 58.5197 107.067 57.9557C108.13 58.7149 109.085 59.3657 109.996 60.0599C110.625 60.5371 110.495 61.1662 110.299 61.817C109.562 64.3985 108.933 67.0016 109.085 69.7132C109.193 71.991 109.562 74.2471 110.668 76.2862C110.95 76.8068 111.341 77.2841 111.601 77.9783C110.365 77.2407 109.106 76.5465 107.892 75.7873C107.089 75.2883 106.308 74.7243 105.592 74.1169C104.095 72.9021 103.878 71.2101 104.312 69.4746ZM110.126 70.8847C109.866 67.826 110.321 64.9191 111.406 62.1207C112.122 60.2985 113.423 59.908 114.942 61.1228C118.716 64.1165 121.298 67.891 121.667 72.8153C121.905 76.091 120.517 78.9544 118.543 81.601C113.857 79.4317 110.56 76.3513 110.126 70.8847ZM119.367 64.3985C118.304 62.945 117.024 61.6652 115.788 60.3419C115.159 59.6694 114.855 59.1054 115.397 58.1943C115.875 57.3917 116.178 56.4806 116.612 55.5044C117.046 56.2419 117.35 57.0229 117.87 57.5652C119.128 58.8451 120.517 59.9948 121.84 61.2096C122.968 62.2292 124.183 63.2054 125.159 64.3551C126.048 65.4181 126.634 66.6979 126.179 68.2164C125.398 70.7328 123.988 72.9021 122.534 75.3317C123.12 71.0148 121.667 67.5656 119.367 64.3985ZM119.736 58.2377C117.892 56.5456 116.807 54.4631 116.894 51.8383C120.625 53.5737 124.53 54.9404 127.827 57.4567C129.454 58.7149 129.823 59.843 129.259 61.8604C129.172 62.1858 129.085 62.5112 128.955 62.8366C128.565 63.8562 128.174 64.854 127.719 66.0038C125.615 62.7281 122.447 60.7107 119.736 58.2377ZM116.634 46.133C112.707 44.441 109.388 42.0765 107.892 37.7379C108.889 37.1739 109.887 36.6098 110.842 36.0675C111.991 37.2389 113.054 38.5622 114.356 39.5818C116.612 41.3606 119.259 42.3368 122.144 42.6188C123.293 42.7273 124.465 42.7056 125.593 42.5754C129.411 42.1415 131.342 39.4516 132.621 36.2411C134.314 32.0543 134.292 27.8459 132.274 23.7026C133.316 23.0735 134.313 22.5094 135.355 21.8803C136.982 23.8761 138.066 26.0888 138.327 28.6702C138.63 31.7289 138.392 34.7226 137.068 37.5426C135.745 40.341 133.945 42.814 131.624 44.8532C129.758 46.4801 127.328 46.7404 125.029 46.9791C122.187 47.2611 119.302 47.2828 116.634 46.133ZM135.875 43.7902C135.572 42.7923 135.593 41.8378 136.244 40.8834C137.719 38.7358 138.804 36.3929 139.194 33.7898C139.346 32.8136 139.411 31.8157 139.52 30.7094C141.277 34.0718 142.6 37.2606 141.711 41.1654C141.017 44.2458 141.103 47.4997 141.971 50.8187C139.281 48.8663 136.83 46.9791 135.875 43.7902ZM142.665 49.5605C142.448 47.2611 142.405 44.9616 142.47 42.6405C142.535 40.6881 142.861 38.7357 143.077 36.74C145.268 37.803 146.483 39.6902 147.047 41.9463C147.655 44.3759 147.958 46.8706 148.501 49.3002C148.804 50.6018 149.325 51.86 149.781 53.2266C147.958 52.8578 146.071 52.5975 144.271 52.0986C143.142 51.7949 142.752 50.5367 142.665 49.5605ZM152.991 53.0314C150.865 52.7494 149.867 51.079 149.412 49.1483C149.021 47.478 148.826 45.7426 148.501 44.0505C148.11 42.0982 147.828 40.1024 146.245 38.3453C147.698 38.4537 148.826 38.4104 149.889 38.6707C150.323 38.7791 150.8 39.4733 150.93 39.9939C151.841 43.3346 152.904 46.5886 155.182 49.2785C156.636 50.9923 158.176 52.6192 160.497 53.2266C160.475 53.3351 160.453 53.4219 160.432 53.5303C157.959 53.3568 155.442 53.3351 152.991 53.0314ZM157.373 50.2981C154.922 47.9986 153.316 45.1135 152.492 41.8378C152.254 40.9267 152.08 39.9723 152.037 39.0395C151.993 37.7379 152.709 36.9352 153.989 37.1088C155.811 37.3691 157.655 37.7813 159.391 38.4321C162.406 39.5818 165.031 41.4257 166.636 44.2891C167.764 46.2849 168.263 48.5626 168.089 50.9272C168.046 51.5997 168.089 52.2721 168.089 53.0314C164.098 53.3568 160.367 53.0965 157.373 50.2981ZM168.089 45.3087C167.135 42.2283 164.749 40.4061 162.189 38.7791C159.933 37.3257 157.373 36.6098 154.792 35.9591C154.011 35.7638 153.577 35.33 153.577 34.4622C153.555 33.4861 153.403 32.5099 153.273 31.3168C156.115 33.6162 159.499 33.3559 162.601 34.1152C163.317 34.2887 164.076 34.3972 164.77 34.6358C167.026 35.3733 168.111 37.0654 168.241 39.2998C168.371 41.3389 168.263 43.378 168.263 45.4172C168.241 45.3955 168.111 45.3738 168.089 45.3087ZM158.458 32.4665C156.549 32.1628 154.857 31.4686 153.382 30.2538C152.709 29.6898 152.21 28.9089 151.559 28.1496C153.36 27.9327 154.943 27.629 156.549 27.5639C158.978 27.4771 161.43 27.4554 163.881 27.5856C164.749 27.629 165.638 28.0845 166.419 28.5401C167.46 29.1475 167.33 30.3623 167.569 31.3602C167.851 32.5316 167.959 33.7464 168.154 35.0046C165.096 33.3342 161.755 32.9654 158.458 32.4665ZM151.863 34.9395C151.776 36.1977 151.147 36.8485 149.867 36.9136C146.852 37.0654 144.466 35.8506 142.557 33.5945C140.735 31.4686 139.975 28.8438 139.086 26.284C138.695 25.1343 138.24 23.9846 137.784 22.7047C140.973 24.0063 144.227 25.0475 147.199 26.6311C150.345 28.3448 152.08 31.1649 151.863 34.9395ZM156.462 6.13128C156.744 7.60641 156.636 9.1683 156.505 10.6651C156.267 13.572 154.206 15.0688 151.885 16.2836C149.282 17.6502 146.483 18.1492 143.576 17.7804C142.036 17.5852 140.539 16.9777 138.977 16.5439C139.433 15.0471 139.802 13.8323 140.127 12.7259C141.884 12.9212 143.576 13.2032 145.29 13.3116C147.394 13.4418 149.238 12.6608 150.778 11.2508C152.037 10.1011 152.037 8.51751 151.906 6.999C151.711 4.67786 150.67 2.70381 148.978 1.09853C148.501 0.642981 148.045 0.209113 147.568 -0.246446C148.522 -1.28771 149.433 -2.24217 150.345 -3.24005C153.815 -1.02738 155.703 2.22655 156.462 6.13128ZM150.627 5.45881C151.776 9.40692 150.496 11.6847 146.071 12.3789C144.054 12.6826 142.47 12.3138 140.322 11.4894C140.322 10.9471 140.344 10.3614 140.322 9.79739C140.279 9.23337 140.171 8.66935 140.106 8.23549C141.494 8.34396 142.861 8.58257 144.227 8.56088C146.114 8.53919 147.047 7.12915 146.245 5.4154C145.637 4.13552 144.704 2.98581 143.902 1.7927C144.769 1.38053 145.767 0.881598 146.809 0.382659C148.414 1.771 149.997 3.28951 150.627 5.45881ZM143.012 7.60641C142.058 7.47626 141.06 7.281 140.171 6.89053C139.65 6.65192 139.259 6.0445 138.912 5.52387C138.023 4.2223 137.199 2.87736 136.526 1.85779C137.806 1.92287 139.52 2.03133 141.234 2.07471C142.882 2.1181 145.29 4.5694 145.247 6.21806C145.225 7.10747 144.205 7.77996 143.012 7.60641ZM139.303 9.55878C139.498 10.6868 139.281 11.945 139.021 13.073C138.479 15.3725 137.633 17.5852 136.244 19.5158C134.769 21.5767 132.556 22.5962 130.257 23.3555C128.89 23.811 127.437 24.1581 126.005 24.375C124.378 24.6353 122.86 24.0496 121.385 23.3772C118.564 22.0539 116.547 19.9063 114.985 17.2598C114.616 16.6307 114.638 16.3053 115.137 15.7846C116.786 14.0492 118.261 12.1185 118.63 9.68893C118.846 8.2355 118.673 6.717 118.673 5.00327C120.517 6.76039 122.252 8.38735 123.966 10.0143C124.378 10.4048 124.313 10.7736 124.096 11.2725C122.404 15.0471 124.834 19.8629 129.888 19.9931C132.405 20.0582 135.593 16.5439 134.812 13.5503C133.88 9.88416 130.279 8.12703 127.393 8.75613C126.96 8.8429 126.504 8.95136 126.135 9.18998C125.658 9.49368 125.311 9.38523 124.986 9.03814C123.359 7.3244 121.732 5.61066 120.04 3.83184C121.385 3.83184 122.599 3.96198 123.792 3.78844C124.92 3.63659 126.092 3.35458 127.068 2.81226C128.478 2.00962 129.715 0.924972 131.038 -0.00782816C131.255 -0.159676 131.689 -0.224755 131.906 -0.116288C135.767 2.00962 138.522 5.09003 139.303 9.55878ZM128.391 9.51537C130.734 9.47199 133.576 12.3572 133.554 14.7434C133.533 16.3053 131.19 18.6047 129.628 18.583C127.242 18.5613 124.465 15.7629 124.508 13.4201C124.552 11.4894 126.482 9.53707 128.391 9.51537ZM129.346 0.25251C126.547 2.55196 123.402 3.67999 119.866 2.50858C118.347 2.00964 117.003 0.903298 115.549 0.0355762C116.157 -1.02737 116.612 -1.78664 116.916 -2.32896C118.586 -1.61309 120.235 -0.701973 121.992 -0.203041C124.986 0.66468 128.63 -1.41786 129.042 -4.0427C129.476 -6.84109 128.587 -9.16224 126.309 -10.8543C125.289 -11.6135 124.118 -12.1992 122.99 -12.8717C123.38 -13.5659 123.836 -14.3252 124.291 -15.1061C129.085 -14.2384 131.754 -10.0082 131.689 -6.36384C131.667 -5.2358 131.58 -4.08609 131.385 -2.95805C131.168 -1.6131 130.387 -0.615212 129.346 0.25251ZM122.209 -12.0257C124.682 -10.9627 127.133 -9.81302 127.979 -6.97125C128.955 -3.67392 127.068 -1.33109 123.879 -1.00569C121.341 -0.745377 119.367 -2.02526 117.501 -3.50038C117.393 -3.58715 117.306 -3.78239 117.285 -3.93423C117.219 -4.88873 117.198 -5.82151 117.133 -6.90616C118.261 -6.03844 119.215 -5.2358 120.256 -4.54163C120.799 -4.17284 121.471 -3.86915 122.122 -3.76068C123.641 -3.50037 124.638 -4.04269 125.116 -5.27919C125.484 -6.21198 125.051 -7.60033 123.944 -8.29451C122.838 -8.98869 121.601 -9.48761 120.408 -10.0733C120.018 -10.2469 119.606 -10.377 119.172 -10.5506C120.126 -11.0712 121.016 -11.5484 121.927 -12.0257C121.992 -12.0257 122.122 -12.0474 122.209 -12.0257ZM117.154 -8.42466C116.786 -8.83683 116.46 -9.31409 116.026 -9.8998C118.825 -9.83472 121.211 -9.01038 123.359 -7.51357C123.988 -7.07971 124.4 -6.42892 124.161 -5.58289C123.901 -4.69349 122.968 -4.3464 121.775 -4.82365C119.888 -5.58289 118.478 -6.97124 117.154 -8.42466ZM115.983 -7.14478C116.46 -5.08395 116.569 -3.08821 115.159 -1.22263C112.122 2.79057 106.612 1.64085 104.182 -1.5697C104.052 -1.74325 104.139 -2.17712 104.29 -2.39404C104.594 -2.84959 104.985 -3.21838 105.397 -3.69562C106.199 -3.08822 106.959 -2.45911 107.783 -1.91679C109.497 -0.767059 111.124 -0.940605 112.534 -2.13371C114.399 -3.73899 114.096 -5.79981 113.185 -7.14477C112.621 -7.9908 111.97 -8.77176 111.362 -9.59608C111.905 -10.0516 112.447 -10.5506 113.098 -11.0929C114.421 -10.0733 115.592 -8.88021 115.983 -7.14478ZM108.022 -9.96486C107.523 -10.1384 106.959 -10.2252 106.481 -10.4421C104.659 -11.2664 104.811 -11.2882 104.876 -13.2405C104.92 -14.4553 104.464 -15.7135 104.225 -16.9717C105.852 -16.7548 107.284 -17.5574 108.607 -18.7288C108.759 -18.859 109.106 -18.9457 109.28 -18.859C111.449 -17.9045 113.445 -15.9955 112.838 -13.067C112.512 -11.3966 109.735 -9.35745 108.022 -9.96486ZM96.3509 -16.3209C96.4376 -15.9521 96.4593 -15.5833 96.4376 -15.2146C96.3726 -14.4987 95.8736 -14.195 95.2445 -14.5638C94.6805 -14.9109 94.0297 -15.3013 93.6826 -15.8437C92.6631 -17.4273 91.9906 -19.1627 92.1858 -21.332C94.1816 -19.9653 95.8302 -18.6204 96.3509 -16.3209ZM99.1059 -18.5553C97.1535 -18.7939 95.8302 -20.0521 94.6154 -21.4621C94.3117 -21.8092 94.0948 -22.2431 93.6826 -22.8288C96.3292 -22.8071 98.5418 -22.2647 100.125 -20.269C100.386 -19.9436 100.624 -19.1844 100.473 -19.0542C100.169 -18.7288 99.5614 -18.4902 99.1059 -18.5553ZM86.242 -22.6986C84.9187 -20.7246 83.487 -19.0976 81.1441 -18.5987C80.8187 -18.5336 80.45 -18.4685 80.1246 -18.5553C79.5389 -18.7071 79.105 -19.0759 79.5172 -19.7484C79.8426 -20.2907 80.2113 -20.8547 80.6886 -21.2669C81.8166 -22.2431 84.5716 -22.9589 86.242 -22.6986ZM86.4372 -20.3341C86.7843 -20.6378 87.2182 -20.8764 87.8472 -21.3103C87.8256 -18.5987 87.2615 -16.3643 85.2007 -14.7807C84.897 -14.5421 84.2028 -14.3468 84.051 -14.5204C83.7473 -14.8241 83.5087 -15.4098 83.5737 -15.822C83.769 -17.7743 85.0055 -19.141 86.4372 -20.3341ZM76.1331 -16.95C75.005 -15.3664 74.8315 -13.7828 75.287 -12.0908C75.3521 -11.8738 75.2003 -11.4834 75.0267 -11.3532C72.6622 -9.68286 70.4712 -9.18393 68.3019 -11.2014C66.6533 -12.7199 66.5231 -15.2796 68.1284 -17.0368C68.7792 -17.7526 69.6252 -18.3166 70.4712 -18.8156C70.7098 -18.9674 71.3172 -18.8373 71.5776 -18.6203C73.313 -17.2103 73.877 -16.9934 76.1331 -16.95ZM68.6924 -9.61777C68.1067 -8.83683 67.4559 -8.07757 66.9353 -7.25324C65.1998 -4.51993 66.3062 -2.69773 68.5405 -1.37446C69.5601 -0.767057 70.8183 -1.00569 71.8596 -1.67817C72.7924 -2.28557 73.6818 -2.97973 74.6362 -3.65222C75.1135 -3.06651 75.569 -2.5242 76.0463 -1.98187C74.9183 0.252497 71.7945 1.66255 68.8876 1.33715C66.6966 1.09854 64.0935 -1.33108 63.7898 -3.50038C63.3993 -6.55908 64.202 -9.16221 66.9786 -11.0495C67.5427 -10.5939 68.1067 -10.1167 68.6924 -9.61777ZM58.8872 -5.12735C57.5856 -4.38979 56.3057 -4.54162 55.8502 -5.38765C55.438 -6.1686 55.9153 -7.20987 57.1951 -7.92574C59.256 -9.07547 61.4253 -9.92149 63.92 -9.8781C62.5967 -7.86066 60.9263 -6.27707 58.8872 -5.12735ZM60.6877 -10.6156C59.1909 -9.87808 57.5856 -9.20561 56.1105 -8.3162C54.9825 -7.64371 54.5486 -6.25538 54.874 -5.34427C55.4163 -3.89085 56.8698 -3.19668 58.3883 -3.91255C59.5814 -4.45487 60.6226 -5.30088 61.729 -6.03844C62.1194 -6.29876 62.4448 -6.60247 62.9004 -6.97124C62.8353 -5.84321 62.7919 -4.86702 62.7485 -3.89084C62.7485 -3.76068 62.6835 -3.60883 62.575 -3.54375C60.4708 -1.89509 58.2798 -0.550137 55.3946 -1.13585C51.1862 -1.98187 51.056 -6.58077 53.0518 -8.92361C54.2883 -10.377 55.8719 -11.2448 57.5856 -11.9389C57.7592 -12.004 58.0412 -12.004 58.2147 -11.9172C59.0607 -11.4834 59.9068 -11.0278 60.6877 -10.6156ZM52.5529 -9.72624C50.4703 -7.77387 50.1666 -4.19455 51.837 -2.17711C53.4206 -0.28983 55.5899 0.404354 57.911 -0.159657C59.6898 -0.593518 61.3168 -1.54802 63.0522 -2.28558C63.3993 -1.69987 63.8332 -0.983998 64.267 -0.246442C61.1649 3.54982 55.4814 3.83183 52.1407 1.29376C50.7523 0.2308 49.1905 -0.615208 48.7349 -2.4591C47.6503 -6.79769 48.1709 -10.1601 51.6201 -13.2405C52.683 -14.195 54.2232 -14.6289 55.5899 -15.3013C55.8936 -14.7156 56.1105 -14.3035 56.3491 -13.8913C56.566 -13.5225 56.8264 -13.1537 56.9348 -13.0236C55.4597 -11.9172 53.8761 -10.9627 52.5529 -9.72624ZM49.1905 0.144047C50.5788 1.57578 52.2058 2.81227 54.1147 3.31121C55.9153 3.78846 57.8459 3.76675 59.7983 3.98368C58.2364 5.63234 56.6094 7.36778 54.9391 9.08152C54.7655 9.25506 54.2449 9.29845 53.9846 9.18998C50.2751 7.56301 45.4159 9.40693 45.0471 14.8518C44.917 16.6524 46.0884 18.1492 47.6503 19.1037C49.7979 20.4052 52.5746 20.0798 54.3534 18.4963C56.1756 16.8693 57.1301 13.7672 55.8936 11.2074C55.6549 10.7085 55.6983 10.3831 56.0237 10.0577C57.7375 8.43074 59.4512 6.80378 61.2517 5.11173C61.2517 6.47838 61.165 7.71488 61.2734 8.92968C61.3602 9.88417 61.5337 10.9471 62.011 11.7498C62.857 13.2032 63.8983 14.5698 64.9395 15.8931C65.33 16.392 65.4168 16.6957 65.048 17.1947C64.2237 18.2793 63.5512 19.4724 62.6401 20.4703C60.666 22.6179 58.193 23.9629 55.3079 24.3967C54.2449 24.5703 53.0518 24.375 51.9672 24.093C49.6894 23.5073 47.4767 22.683 45.546 21.3163C43.4852 19.8412 42.4656 17.6285 41.6847 15.3508C41.2075 13.9841 40.9038 12.5524 40.6434 11.1207C40.3614 9.45031 40.9688 7.91012 41.6847 6.4133C43.008 3.59323 45.1556 1.59747 47.8021 0.0355795C48.3878 -0.354893 48.7132 -0.354893 49.1905 0.144047ZM53.8761 10.4048C55.5682 11.7281 55.8719 13.6587 54.8089 15.6762C53.9846 17.2381 52.5746 18.0624 50.9693 18.4963C50.3619 18.6481 49.4942 18.4746 48.9735 18.1275C47.8021 17.3031 46.609 16.392 46.4138 14.7C46.7825 12.7259 47.7153 11.0773 49.5809 10.1228C51.0344 9.36354 52.5095 9.32014 53.8761 10.4048ZM41.1424 5.52388C40.6868 6.30482 40.1879 7.02069 39.2117 7.12915C38.1488 7.25931 37.0858 7.49794 36.0445 7.45455C34.9382 7.38947 34.5477 6.58684 34.8948 5.56728C35.5673 3.52814 37.4763 2.1398 39.6022 2.09641C41.0122 2.07472 42.4223 1.92287 43.4852 1.85779C42.791 2.92074 41.9233 4.2006 41.1424 5.52388ZM36.2398 1.85779C35.5673 2.70382 34.8297 3.52813 34.2223 4.43923C33.5499 5.43711 33.116 6.58683 33.8753 7.69317C34.5911 8.73443 35.8493 8.69105 36.9556 8.64766C37.9101 8.60428 38.8646 8.30058 39.8625 8.10534C39.7757 9.23337 39.7107 10.3831 39.6239 11.5545C37.281 12.4005 34.8297 12.8995 32.3784 12.0535C28.9726 10.8604 28.3652 8.86461 29.4716 5.2202C30.1007 3.15937 31.6626 1.74932 33.1811 0.382664C34.2223 0.881604 35.2419 1.38055 36.2398 1.85779ZM29.3414 3.35458C28.4086 4.78632 27.9531 6.43499 27.9965 8.19212C28.0616 10.9471 30.1007 12.5524 32.8557 13.1598C35.1985 13.6804 37.5197 13.3767 39.8191 12.4873C40.2313 13.854 40.6001 15.0905 41.0122 16.4137C38.7345 17.4333 36.4567 18.1275 33.9186 17.8672C31.1203 17.5851 28.5605 16.8693 26.261 15.1555C23.723 13.2683 22.9854 10.7302 23.3759 7.80163C23.6145 6.0662 24.0917 4.35246 24.6558 2.70379C25.5452 0.144032 27.4541 -1.65646 29.6451 -3.24005C30.5562 -2.26387 31.4456 -1.2877 32.3134 -0.3549C31.3155 0.859906 30.2091 2.03132 29.3414 3.35458ZM44.8953 53.0531C44.917 53.0531 44.9386 53.0531 44.8953 53.0531V53.0531ZM44.8519 53.0965C44.7217 54.9187 44.5916 56.6975 44.4614 58.4763C44.4397 58.6932 44.3963 59.0186 44.2662 59.0837C43.0731 59.6477 41.8799 60.1684 40.4916 60.7758C40.3614 59.344 40.253 58.1509 40.1662 56.9361C40.1445 56.7409 40.2313 56.4372 40.3614 56.3287C41.8366 55.2224 43.3551 54.1594 44.8519 53.0965ZM35.4154 57.6954C36.6519 57.5001 37.8668 57.2181 39.0599 56.9795C39.3202 58.5197 39.5588 60.0816 39.8625 61.9255C41.5329 61.2747 42.9646 60.7107 44.4831 60.1033C44.9386 61.4699 45.4159 62.88 45.9148 64.4202C42.7694 65.5916 39.6456 66.763 36.3266 67.9995C35.9361 65.7001 35.5673 63.6175 35.1985 61.535C35.0467 60.6022 34.8948 59.6694 34.7647 58.7366C34.7213 58.216 34.743 57.8038 35.4154 57.6954ZM37.9318 68.39C40.7302 67.4572 43.4852 66.3508 46.3487 65.2879C47.1513 66.7847 47.9973 68.3466 48.8868 69.9953C43.29 71.709 37.8017 73.3794 32.27 75.0714C30.9901 69.4963 29.6885 63.8995 28.3652 58.1075C30.2091 58.1075 31.9446 58.1075 33.7234 58.1075C34.2006 60.9276 34.6996 63.9212 35.2636 66.8932C35.7192 69.4095 35.5022 69.1926 37.9318 68.39ZM28.17 82.165C26.1309 74.0518 24.1351 66.0688 22.096 57.9991C24.005 57.9991 25.6319 57.9991 27.324 57.9991C28.2134 61.7953 29.1028 65.5048 29.9488 69.1926C30.4044 71.2101 30.8382 73.2275 31.2504 75.2666C31.4023 76.0476 31.7494 76.2645 32.5303 76.0042C37.1075 74.5508 41.6847 73.1407 46.2619 71.7307C46.9344 71.5138 47.6936 71.4704 48.3227 71.1667C49.3206 70.6894 49.8412 71.145 50.2751 71.9476C50.8391 72.9672 51.4031 73.9651 52.1407 75.3317C44.1143 77.6095 36.2398 79.8655 28.17 82.165ZM66.8051 82.9242C64.5274 84.2041 62.2496 85.5057 60.0803 86.7422C58.6486 84.3126 57.1518 81.7094 55.5899 79.128C53.3772 75.4402 51.0777 71.8175 48.9518 68.108C47.9106 66.2858 47.0862 64.3334 46.2619 62.4027C44.917 59.2356 45.0471 55.9816 46.1751 52.8362C46.9344 50.6886 48.1492 48.6928 49.1688 46.5886C50.1016 46.8706 50.9042 47.1092 51.6851 47.3695C51.1211 48.606 50.4703 49.7341 50.0799 50.9272C48.6047 55.2875 48.6698 59.6044 50.4487 63.9212C52.5529 69.0625 55.438 73.7264 58.3232 78.4121C59.1041 79.6703 59.9501 80.9068 60.666 82.2084C60.9914 82.7724 61.23 82.8375 61.7724 82.5121C65.894 80.2126 70.0157 77.9132 74.159 75.6354C77.3262 73.9 80.1463 71.7307 82.6193 69.1058C84.2679 67.3487 85.2875 65.2662 85.9817 62.9017C86.5674 60.9276 87.0663 58.9969 86.8928 56.7409C87.8039 56.9795 88.5631 57.153 89.2573 57.3266C89.9298 62.099 89.2139 66.5244 86.3071 70.3857C84.5499 72.6852 82.1637 74.3121 79.6473 75.7222C75.3955 78.1952 71.0786 80.538 66.8051 82.9242ZM90.8192 82.7724C92.9668 80.1909 95.1578 77.6312 97.3488 75.028C98.8022 75.9391 100.299 76.8719 101.861 77.8264C97.9128 82.0565 94.008 86.2433 90.0165 90.5168C86.0901 86.3083 82.1637 82.0999 78.1722 77.8264C79.669 76.8936 81.1875 75.9391 82.706 74.9846C84.3981 77.0455 86.0684 79.0846 87.7388 81.1237C88.2594 81.7528 88.78 82.3819 89.3658 82.9676C89.9081 83.5316 90.3636 83.3147 90.8192 82.7724ZM90.0165 82.4036C87.7822 79.692 85.6563 77.1105 83.487 74.4857C84.7018 73.3793 85.7647 72.4466 86.8711 71.4487C87.652 72.4249 88.4547 73.4011 89.2356 74.3989C89.7779 75.0931 90.2769 75.0497 90.7975 74.3772C91.5567 73.401 92.3594 72.4249 93.1403 71.427C94.2467 72.4249 95.3313 73.401 96.5244 74.464C94.3768 77.0672 92.2726 79.6269 90.0165 82.4036ZM89.9949 74.0518C89.1488 72.8804 88.4113 71.8825 87.7171 70.8413C87.6086 70.6894 87.6303 70.3857 87.6954 70.2122C88.4763 68.4984 89.279 66.7847 90.0165 65.2011C90.7541 66.8715 91.5567 68.7154 92.4245 70.7111C91.7086 71.6873 90.906 72.7936 89.9949 74.0518ZM99.3228 89.1067C96.5027 92.0353 93.661 94.9204 90.8626 97.849C90.3419 98.3913 89.8864 98.6082 89.279 97.9791C86.6975 95.3326 84.0944 92.7294 81.5346 90.0829C78.5844 87.0242 75.6992 83.9221 72.6839 80.7333C74.0939 79.9306 75.3521 79.1931 76.6537 78.5423C76.914 78.4121 77.478 78.5423 77.695 78.7592C81.4478 82.7507 85.1573 86.7856 88.8668 90.8205C89.9298 91.9702 90.0816 91.9702 91.1446 90.8205C93.7043 88.0221 96.2858 85.2671 98.8456 82.4904C99.9519 81.2973 101.08 80.1259 102.143 78.8894C102.577 78.3687 102.989 78.2819 103.553 78.6073C104.724 79.2798 105.917 79.9523 107.327 80.7766C104.594 83.6184 101.969 86.3734 99.3228 89.1067ZM126.2 76.1994C124.118 79.7788 121.949 83.293 119.888 86.7205C115.159 84.0306 110.256 81.2539 105.353 78.4772C102.685 76.9587 99.9953 75.5053 97.4138 73.8566C93.1403 71.1233 91.1012 66.9582 90.4721 62.034C90.3636 61.1445 90.5806 60.2117 90.6239 59.3006C90.6456 58.6932 90.3202 57.7387 90.5805 57.5652C91.253 57.1313 92.1425 57.0229 93.0319 56.7843C93.0969 57.8689 93.0752 58.8451 93.2271 59.8213C94.008 65.2662 96.7847 69.518 101.253 72.6418C103.596 74.2688 106.026 75.7656 108.477 77.2407C110.495 78.4555 112.577 79.5401 114.638 80.6682C115.853 81.3407 117.068 81.9914 118.326 82.5772C118.564 82.6856 119.128 82.5338 119.237 82.3168C122.339 77.1322 125.506 71.9693 128.391 66.6762C129.932 63.8562 130.951 60.7107 131.016 57.4351C131.038 56.0467 130.582 54.6367 130.43 53.2266C130.192 51.1441 129.411 49.3002 128.153 47.4346C129.064 47.1526 129.845 46.914 130.604 46.6971C133.099 50.1245 134.791 53.8123 134.639 58.1726C134.574 60.407 133.988 62.5112 132.947 64.4202C130.778 68.39 128.5 72.2947 126.2 76.1994ZM135.138 53.0965C135.875 53.6605 136.656 54.3113 137.481 54.9187C138.045 55.3525 138.63 55.7647 139.259 56.0901C139.737 56.3504 139.975 56.6107 139.91 57.1747C139.758 58.3028 139.65 59.4308 139.498 60.7541C138.197 60.19 137.025 59.6694 135.854 59.1271C135.702 59.062 135.615 58.7583 135.593 58.5414C135.42 56.7409 135.268 54.9187 135.138 53.0965ZM144.487 68.1514C145.095 64.7456 145.746 61.3615 146.353 58.0642C148.045 58.0642 149.759 58.0642 151.646 58.0642C150.323 63.8345 149.043 69.4312 147.741 75.0714C142.275 73.401 136.743 71.709 131.125 69.9953C131.992 68.3683 132.817 66.8281 133.663 65.2662C135.745 66.0688 137.784 66.8715 139.867 67.6307C141.082 68.0863 142.318 68.4767 143.555 68.8455C144.14 69.0191 144.379 68.7588 144.487 68.1514ZM157.915 57.9774C155.898 66.0254 153.902 74.0084 151.863 82.1216C143.815 79.7788 135.789 77.9349 127.914 75.1365C128.782 73.6397 129.563 72.2513 130.387 70.8413C131.775 71.2101 133.077 71.4921 134.313 71.8825C138.544 73.1841 142.752 74.5291 146.96 75.8524C148.457 76.3296 148.436 76.3079 148.783 74.7243C149.65 70.863 150.561 67.0016 151.451 63.1186C151.776 61.6652 152.145 60.2117 152.47 58.7583C152.579 58.216 152.796 57.934 153.403 57.934C154.813 57.9991 156.223 57.9774 157.915 57.9774ZM144.726 57.7388C144.943 57.7821 145.247 58.2377 145.225 58.4329C144.748 61.535 144.227 64.6371 143.685 67.9995C140.366 66.763 137.22 65.5916 134.097 64.4202C134.574 62.88 135.029 61.4916 135.463 60.0816C136.938 60.6673 138.392 61.2313 140.127 61.9255C140.409 60.1033 140.648 58.5631 140.908 56.9795C142.145 57.2181 143.446 57.4351 144.726 57.7388ZM171.886 43.8119C171.842 47.3478 171.755 50.9055 171.734 54.4414C171.734 55.2658 171.886 56.1118 171.972 56.8927C167.721 56.8927 163.469 56.8493 159.239 56.9144C156.679 56.9578 154.097 57.3049 151.538 57.1964C147.763 57.0446 143.858 57.2832 140.322 55.5478C137.372 54.0943 134.878 52.0769 133.381 49.0182C132.882 48.0203 132.274 47.0658 131.754 46.1764C132.318 45.5473 132.882 44.9399 133.467 44.2891C134.27 45.4172 134.899 46.6103 135.789 47.5431C138.218 50.0812 140.865 52.3155 144.466 53.1399C148.262 54.0293 152.08 54.333 155.963 54.2896C159.651 54.2462 163.339 54.2028 167.026 54.1377C167.525 54.1377 168.046 54.051 168.545 53.9425C168.718 53.8991 168.935 53.6822 168.979 53.4869C169.087 53.0531 169.109 52.6192 169.131 52.1637C169.196 47.4997 169.326 42.814 169.282 38.15C169.239 34.4405 168.805 30.7744 167.46 27.3036C166.723 25.4163 165.681 23.7242 164.054 22.4227C163.469 21.9454 163.078 21.2079 162.493 20.7089C161.516 19.928 160.475 19.2555 159.325 18.4529C159.998 17.8672 160.584 17.3465 161.365 16.674C163.143 17.8888 165.226 19.0386 167.005 20.5571C169.716 22.8999 171.322 25.9369 171.755 29.5596C172.124 32.5967 172.276 35.6337 171.972 38.6924C171.777 40.4061 171.907 42.1198 171.886 43.8119ZM182.927 28.6269C181.083 28.9956 179.413 29.3427 177.721 29.6247C176.463 29.8416 175.161 29.9718 173.903 30.2104C173.144 30.3406 172.71 30.3189 172.623 29.3427C172.515 28.2147 172.146 27.0867 171.886 25.9586C173.513 25.6983 175.053 25.438 176.788 25.156C176.441 24.1798 176.224 23.4422 175.942 22.7264C175.66 22.0105 175.313 21.2946 174.966 20.5137C176.419 20.0364 177.808 19.6026 179.348 19.082C180.541 22.2274 181.691 25.3295 182.927 28.6269ZM180.281 18.6698C181.713 17.8888 183.296 17.0428 184.945 16.1534C186.659 21.7502 188.329 27.2385 190.021 32.7702C184.402 34.0718 178.827 35.3517 173.144 36.6749C173.057 34.8093 172.949 33.0956 172.862 31.3385C175.595 30.8829 178.328 30.4491 181.062 29.9718C181.669 29.8633 182.255 29.6464 182.862 29.5813C183.817 29.4946 184.012 29.0607 183.708 28.2147C182.559 25.0909 181.452 21.9454 180.281 18.6698ZM173.643 20.5788C173.816 20.6005 174.033 20.7523 174.098 20.9042C174.641 22.0539 175.14 23.247 175.725 24.5486C174.424 24.6787 173.361 24.7655 172.32 24.874C171.69 24.9391 171.322 24.7221 170.953 24.1581C170.107 22.8999 169.131 21.7285 168.198 20.5137C168.111 20.3835 168.046 20.2317 168.003 20.1666C169.89 20.2968 171.755 20.4269 173.643 20.5788ZM197.071 36.8918C188.98 38.931 181.04 40.9267 172.949 42.9442C172.949 41.2304 172.927 39.777 172.97 38.3236C172.97 38.0633 173.317 37.6511 173.556 37.6077C178.979 36.3278 184.381 35.0696 189.826 33.8548C191.192 33.5511 191.257 33.5077 190.824 32.1194C189.392 27.4771 187.938 22.8565 186.507 18.2142C186.29 17.4984 186.029 16.7825 185.964 16.0449C185.943 15.6762 186.268 15.1555 186.593 14.9386C187.656 14.2444 188.763 13.6804 190.064 12.9429C192.906 20.7957 194.728 28.8438 197.071 36.8918ZM175.942 -21.5706C174.619 -21.8092 173.252 -21.9177 171.821 -22.0912C171.951 -22.6986 172.059 -23.3928 172.276 -24.0436C172.341 -24.2605 172.732 -24.4774 172.97 -24.4991C174.055 -24.5642 175.161 -24.6727 176.203 -24.5208C177.96 -24.2605 179.738 -23.9351 181.452 -23.4145C185.444 -22.178 188.003 -19.2061 189.999 -15.7786C192.754 -11.0495 195.357 -6.212 198.047 -1.43956C199.262 0.708042 200.499 2.85566 201.67 4.89479C199.175 6.36992 196.551 7.91011 193.947 9.472C190.303 11.663 186.702 13.9407 183.014 16.0666C180.216 17.6936 177.309 19.1253 174.033 19.5592C171.929 19.8195 169.846 19.6026 167.916 18.8433C165.747 17.9973 163.707 16.8693 161.538 15.8497C161.82 14.8735 162.059 14.1143 162.297 13.3116C162.536 13.3984 162.796 13.3984 162.948 13.5286C164.792 14.982 167.07 15.264 169.239 15.7412C172.493 16.4571 175.617 15.7846 178.697 14.5915C184.164 12.4873 189.045 9.29844 194.012 6.28312C195.075 5.63234 196.117 4.91648 197.18 4.28738C197.635 4.00538 197.809 3.83184 197.483 3.26783C196.095 0.773136 194.858 -1.78664 193.427 -4.25964C191.756 -7.18818 190.086 -10.1167 188.177 -12.8934C186.528 -15.3013 184.663 -17.6225 182.081 -19.141C180.78 -19.9002 179.305 -20.3558 177.916 -20.9198C177.309 -21.1367 176.636 -21.4404 175.942 -21.5706ZM170.302 -18.1648C171.018 -19.6182 172.536 -19.9002 173.903 -19.8351C175.617 -19.7701 177.309 -19.3362 178.979 -18.9457C179.825 -18.7505 180.606 -18.3166 181.214 -18.078C179.066 -16.8849 176.832 -15.7352 174.684 -14.4119C173.317 -13.5876 172.103 -12.5246 170.823 -11.5918C169.478 -10.6157 167.959 -10.2469 166.311 -10.2035C165.204 -10.1601 164.12 -10.0083 163.013 -9.8998C166.354 -11.9172 168.632 -14.759 170.302 -18.1648ZM176.268 -14.3469C178.111 -15.54 179.977 -16.7331 182.298 -16.9283C183.209 -16.9934 183.773 -16.6897 184.316 -16.0823C185.422 -14.8241 186.528 -13.5442 187.765 -12.1342C184.251 -12.0474 181.322 -10.7892 178.35 -9.59609C176.419 -8.83684 174.445 -8.42467 172.385 -8.83684C171.517 -9.01038 170.693 -9.46594 169.803 -9.79133C172.037 -11.3749 174.098 -12.9368 176.268 -14.3469ZM171.734 -6.40724C172.493 -5.62629 173.079 -4.6718 173.643 -3.71731C174.185 -2.8279 173.795 -2.06864 173.057 -1.50462C170.996 0.0572715 168.675 0.360952 166.202 -0.116289C163.577 -0.636919 161.538 -2.24217 159.542 -3.89084C158.111 -5.06226 156.766 -6.32044 155.464 -7.47017C158.046 -7.94741 160.735 -8.6416 163.469 -8.92362C166.484 -9.24901 169.456 -8.77177 171.734 -6.40724ZM138.045 -23.87C138.131 -24.1087 138.413 -24.4991 138.609 -24.4774C139.802 -24.4124 140.973 -24.2605 142.145 -24.152C144.791 -23.8917 146.917 -22.4817 148.935 -20.8981C150.301 -19.8135 151.017 -18.2733 151.451 -16.668C151.885 -15.041 152.145 -13.349 152.34 -11.6786C152.666 -8.88022 151.581 -6.4723 149.911 -4.32469C148.479 -2.4808 147.004 -0.680299 144.813 0.295882C143.88 0.729743 142.839 1.01176 141.819 1.14191C138.435 1.57577 135.355 0.577896 132.491 -1.13585C132.274 -1.26601 132.188 -1.80832 132.209 -2.1554C132.339 -3.82576 132.643 -5.49613 132.643 -7.16649C132.643 -9.03208 131.775 -10.6373 130.712 -12.1342C130.43 -12.5246 130.17 -12.8934 129.78 -13.4574C132.339 -12.8283 134.726 -12.286 137.068 -11.6352C137.351 -11.5485 137.633 -10.9844 137.676 -10.6156C138.11 -7.86064 139.715 -5.97337 142.34 -5.36597C145.963 -4.51994 149.455 -6.42892 149.368 -10.9194C149.325 -13.5876 147.633 -14.9326 145.637 -15.7569C143.641 -16.5812 141.472 -16.2341 139.65 -14.8241C139.39 -14.6072 139.021 -14.4336 138.891 -14.1516C138.283 -12.8066 137.394 -13.0019 136.244 -13.414C134.357 -14.0648 132.405 -14.5421 130.214 -15.1712C130.756 -15.4098 131.06 -15.5616 131.385 -15.6701C135.16 -17.1018 136.852 -20.269 138.045 -23.87ZM141.711 -14.6939C143.837 -15.1061 146.548 -14.1299 147.459 -12.6114C148.392 -11.0495 147.698 -9.5744 147.091 -8.14267C146.462 -6.64586 145.03 -6.66754 143.685 -6.66754C141.212 -6.66754 139.303 -7.96913 138.761 -9.98657C138.197 -12.0691 139.607 -14.2818 141.711 -14.6939ZM116.135 -22.3949C116.222 -22.5902 116.352 -22.8505 116.482 -23.1325C117.133 -24.6076 117.111 -24.5208 118.738 -24.1087C121.298 -23.5013 124.096 -19.9002 123.706 -17.2537C123.424 -15.3447 122.816 -13.6744 121.102 -12.568C118.673 -11.0061 116.352 -10.7892 113.597 -11.9389C113.705 -12.7416 113.814 -13.4574 113.922 -14.1733C115.094 -14.0865 116.265 -13.9564 117.436 -13.9347C119.107 -13.8913 120.495 -14.8458 120.907 -16.2341C121.515 -18.3383 121.124 -19.7701 119.476 -20.768C118.456 -21.397 117.306 -21.8526 116.135 -22.3949ZM115.31 -21.2669C115.419 -21.3537 115.658 -21.3754 115.788 -21.3103C117.024 -20.768 118.347 -20.3558 119.41 -19.5748C120.452 -18.8156 120.582 -17.5574 119.974 -16.3426C119.432 -15.2579 118.478 -14.7807 117.306 -14.8241C116.46 -14.8458 115.614 -14.9542 114.79 -15.0627C114.204 -15.1495 113.879 -15.4315 113.553 -16.0389C112.946 -17.1018 112.013 -17.9696 111.189 -18.9024C110.972 -19.141 110.668 -19.2928 110.191 -19.6182C112.252 -19.6182 113.922 -20.0304 115.31 -21.2669ZM103.054 -24.3473C103.141 -24.4774 103.423 -24.5208 103.596 -24.5208C105.722 -24.6293 107.913 -22.9156 108.26 -20.8547C108.456 -19.6616 107.588 -19.0759 106.785 -18.5336C105.462 -17.6225 103.162 -17.7309 101.883 -18.7071C101.752 -18.7939 101.601 -18.924 101.557 -19.0542C100.82 -21.0499 100.82 -21.0499 99.3662 -22.4383C100.755 -22.8938 102.208 -23.024 103.054 -24.3473ZM71.7728 -20.8764C72.0982 -22.9372 74.2892 -24.651 76.4368 -24.5425C76.632 -24.5425 76.914 -24.4774 76.9791 -24.369C77.8251 -23.024 79.2785 -22.9156 80.6669 -22.4817C79.669 -21.4404 78.4542 -20.6812 78.4542 -19.0976C78.4542 -18.9458 78.2156 -18.7939 78.0637 -18.6854C76.2198 -17.4272 73.3781 -17.8177 72.0548 -19.5748C71.7945 -19.8568 71.7077 -20.4426 71.7728 -20.8764ZM65.5252 -20.7463C66.6966 -20.0304 68.1284 -19.7918 69.4733 -19.3362C67.9331 -18.577 66.8485 -17.232 66.1977 -15.5616C66.1543 -15.4532 66.0242 -15.323 65.9157 -15.2796C64.3755 -14.8892 62.8136 -14.4553 61.2517 -15.1495C60.1454 -15.6267 59.7332 -16.6029 59.7115 -17.7092C59.6681 -18.7722 60.3189 -19.5531 61.1866 -20.1172C61.6639 -20.4209 62.2496 -20.5727 62.7485 -20.8547C63.703 -21.3537 64.484 -21.397 65.5252 -20.7463ZM60.7528 -23.9351C63.0088 -24.8028 63.0305 -24.7594 63.8332 -22.3732C62.7268 -21.8526 61.5771 -21.397 60.5576 -20.7679C58.8438 -19.705 58.4533 -18.2516 59.1258 -16.1473C59.5814 -14.759 60.9263 -13.8696 62.6618 -13.913C63.8115 -13.9347 64.9395 -14.0648 66.0892 -14.1516C66.1977 -13.4357 66.3062 -12.7416 66.4363 -11.8955C65.0263 -11.3532 63.5295 -10.8977 61.9676 -11.2882C59.7332 -11.8522 57.8025 -12.8283 56.8047 -15.1712C55.1343 -19.0976 57.8893 -22.8288 60.7528 -23.9351ZM27.6928 -12.1776C27.9531 -14.1082 28.4086 -16.0389 29.016 -17.9045C29.6668 -19.8785 31.2287 -21.115 32.9425 -22.2864C35.5456 -24.0436 38.4525 -24.2822 41.4027 -24.4991C41.5762 -24.5208 41.9016 -24.152 41.9667 -23.8917C42.8561 -21.2886 43.8323 -18.7288 46.1751 -17.0585C47.2164 -16.3209 48.4095 -15.8003 49.646 -15.1061C47.7804 -14.5638 45.9365 -14.0215 44.0926 -13.4791C43.8323 -13.3924 43.5503 -13.3707 43.3117 -13.2622C42.509 -12.85 41.9667 -12.9368 41.4027 -13.7611C39.5588 -16.4293 34.7647 -16.9283 32.1181 -14.2601C29.6885 -11.8088 30.4261 -7.83895 32.6388 -6.25537C34.6996 -4.78025 37.78 -4.36808 40.253 -6.71091C41.381 -7.77387 42.1836 -8.98868 42.3138 -10.5723C42.3789 -11.3315 42.7694 -11.6135 43.5069 -11.7654C45.6979 -12.2426 47.8455 -12.8283 50.1016 -13.414C49.364 -12.1558 48.6481 -11.0712 48.0624 -9.92147C47.1079 -8.05588 47.2381 -6.03846 47.4333 -4.02102C47.4333 -3.95594 47.4767 -3.89085 47.4984 -3.82577C48.0407 -1.17923 48.0407 -1.17923 45.546 -0.0511971C42.726 1.207 39.8408 1.57578 36.7821 0.903302C34.3959 0.382672 32.7689 -1.17923 31.2287 -2.89296C30.5562 -3.65222 29.9705 -4.49826 29.3848 -5.32259C27.9097 -7.36172 27.3674 -9.70456 27.6928 -12.1776ZM41.3593 -10.594C41.2075 -8.94529 40.2096 -7.83896 38.7779 -7.18817C37.9969 -6.84108 37.1075 -6.73262 36.2615 -6.5157C33.3763 -6.66754 31.5975 -8.83683 32.1398 -11.6786C32.4001 -13.0453 33.5716 -13.631 34.6345 -14.195C36.1964 -15.041 37.8451 -15.1278 39.4069 -14.2384C40.7953 -13.4574 41.5112 -12.1992 41.3593 -10.594ZM20.2955 -8.27282C21.7489 -8.01251 23.224 -7.73049 24.6341 -7.44847C22.6166 -5.77812 20.5992 -3.97761 18.4516 -2.32895C15.6098 -0.116274 12.3993 0.729765 8.86331 -0.419962C8.10406 -0.658587 7.40989 -1.15754 6.78079 -1.65647C6.19508 -2.11202 5.95646 -2.7628 6.28186 -3.56544C7.51835 -6.71091 10.013 -8.18604 13.1585 -8.81514C15.5881 -9.31408 17.931 -8.68498 20.2955 -8.27282ZM1.89988 -9.48762C-0.594803 -10.377 -3.13287 -11.1363 -5.64925 -11.9172C-6.21327 -12.0908 -6.86406 -12.0691 -7.645 -12.1559C-6.58205 -13.4357 -5.56248 -14.6722 -4.56461 -15.9087C-3.28473 -17.4706 -1.57098 -17.1669 -0.226022 -16.451C2.4639 -15.0193 4.98028 -13.2622 7.54005 -11.6352C8.38607 -11.0929 9.2104 -10.4855 10.0998 -9.8781C7.43158 -8.22944 4.71997 -8.48974 1.89988 -9.48762ZM7.19296 -19.7267C8.36438 -19.4881 9.31887 -19.0108 9.88288 -17.8394C11.4882 -14.5421 13.7442 -11.8305 17.2585 -9.98657C16.8246 -9.92149 16.6294 -9.8781 16.4341 -9.8781C15.3278 -9.98657 14.2215 -10.1167 13.0934 -10.2035C11.3797 -10.3553 9.8395 -10.9628 8.51623 -12.0474C5.50091 -14.5421 2.29035 -16.6463 -1.5276 -17.9479C1.31417 -19.1627 4.06917 -20.3558 7.19296 -19.7267ZM-14.1095 -8.51144C-12.4608 -11.44 -10.8122 -14.3902 -9.03335 -17.2537C-6.30004 -21.6574 -2.11331 -23.87 2.91945 -24.5208C4.35118 -24.7161 5.8263 -24.5642 7.27973 -24.5208C7.43158 -24.5208 7.64851 -24.3256 7.69189 -24.1737C7.88713 -23.4579 8.03898 -22.742 8.19083 -22.0695C6.91095 -21.9177 5.69614 -21.8743 4.48134 -21.6357C-0.182637 -20.7679 -3.93551 -18.4685 -6.86406 -14.6722C-9.83599 -10.8326 -12.1571 -6.60245 -14.5 -2.37232C-15.5195 -0.50673 -16.4957 1.40224 -17.5153 3.26784C-17.7973 3.76678 -17.7322 4.00538 -17.2333 4.30908C-15.064 5.63235 -12.9381 7.06408 -10.7471 8.34396C-7.81855 10.0577 -4.86831 11.7931 -1.8313 13.3116C1.09725 14.7651 4.15595 15.9365 7.49666 16.0016C8.84162 16.0233 10.1866 15.763 11.5098 15.546C12.5728 15.3725 13.6358 15.1122 14.6553 14.7434C15.6532 14.3746 16.586 13.8106 17.6706 13.29C17.931 14.1577 18.1479 14.9169 18.3865 15.6979C16.022 16.891 13.9395 18.5613 11.2062 19.1904C7.47496 20.0365 3.96071 19.6677 0.619999 17.9539C-1.85299 16.6957 -4.23921 15.2206 -6.64713 13.8106C-10.1397 11.7498 -13.6106 9.64555 -17.1031 7.60642C-18.665 6.67362 -20.292 5.8276 -21.702 5.02496C-19.1856 0.556213 -16.6693 -3.99931 -14.1095 -8.51144Z" fill="white" fill-opacity="0.06"/>
</g>
<path d="M140.826 98.0704C144.351 110.335 150.444 129.248 134.374 134.641C128.907 136.478 117.81 137.136 115.839 130.458H114.465C113.614 130.832 113.434 132.37 112.792 132.938C107.714 137.479 93.0028 137.196 89.478 130.458C83.8922 136.762 71.8394 137.375 64.4314 134.208C61.534 132.968 58.278 128.904 56.7696 126.126C54.126 121.256 53.663 111.964 45.1797 116.684C38.3692 120.479 41.2667 126.245 42.7453 132.296C39.5192 132.086 33.7243 136.508 31.7976 132.609C23.6578 116.117 38.5036 101.94 55.0371 104.748C66.7016 106.72 62.8931 121.988 71.1523 123.795C83.4889 126.499 84.0266 119.045 85.3111 109.17L96.423 111.037C95.497 113.562 94.1229 120.837 95.6762 122.884L105.056 123.84C109.895 122.421 109.193 108.841 111.762 108.333L121.41 110.126C121.141 114.832 117.751 121.047 122.948 123.855C126.368 124.184 130.267 124.647 133 122.197C136.032 117.536 128.34 102.029 129.744 100.909L140.811 98.1152L140.826 98.0704Z" fill="white"/>
<path d="M102.83 70.6216C105.534 73.6542 111.941 73.6393 114.48 70.2929C118.602 64.8552 119.409 58.1924 125.756 53.8003C139.288 44.4186 155.03 61.1802 149.324 75.5216C144.814 86.8304 131.297 85.1871 122.321 80.2573C114.719 85.3216 104.921 86.3374 97.4985 80.3768C90.2997 85.3365 81.9807 85.5755 73.6467 83.6185C72.0337 83.245 66.2238 81.8707 66.5823 79.8091L70.2116 70.8905C74.961 72.9371 91.151 75.4768 89.2393 67.1558C88.149 62.3902 80.3527 52.0674 80.3378 50.0357C80.3378 48.6016 87.0438 44.0302 88.2386 44.0003C91.2406 43.9406 97.1251 55.8918 98.4096 58.8646C99.694 61.8375 100.934 68.5152 102.83 70.6365V70.6216ZM131.835 62.6442C123.546 70.8606 129.072 73.9381 138.705 72.3097C141.528 70.4573 138.093 63.7049 135.255 62.689L131.835 62.6442Z" fill="white"/>
<path d="M32.278 101.351L29.5 91.2821C35.8475 90.102 46.362 83.2002 47.751 76.6868C49.2744 69.5758 44.4503 64.377 43.36 57.9533L52.9485 54.2484C67.4657 73.8185 55.3382 98.184 32.263 101.351H32.278Z" fill="white"/>
</g>
<defs>
<linearGradient id="paint0_linear_523_4123" x1="25.2792" y1="-56.9543" x2="166.142" y2="171.929" gradientUnits="userSpaceOnUse">
<stop stop-color="#5724A9"/>
<stop offset="1" stop-color="#421984"/>
</linearGradient>
<clipPath id="clip0_523_4123">
<rect width="180" height="180" rx="46.2944" fill="white"/>
</clipPath>
<clipPath id="clip1_523_4123">
<rect width="120.305" height="195.33" fill="white" transform="translate(-7.66504 95.0256) rotate(-90)"/>
</clipPath>
</defs>
</svg>
