<svg width="46" height="47" viewBox="0 0 46 47" fill="none" xmlns="http://www.w3.org/2000/svg">
<g filter="url(#filter0_d_349_2968)">
<rect x="7" y="3" width="32" height="32" rx="16" fill="#F7FFF7"/>
<rect x="5.85711" y="1.85711" width="34.2858" height="34.2858" rx="17.1429" stroke="white" stroke-width="2.28578"/>
<path d="M23 10.875C21.393 10.875 19.8221 11.3515 18.486 12.2443C17.1498 13.1371 16.1084 14.406 15.4935 15.8907C14.8785 17.3753 14.7176 19.009 15.0311 20.5851C15.3446 22.1612 16.1185 23.6089 17.2548 24.7452C18.3911 25.8815 19.8388 26.6554 21.4149 26.9689C22.991 27.2824 24.6247 27.1215 26.1093 26.5065C27.594 25.8916 28.8629 24.8502 29.7557 23.514C30.6485 22.1779 31.125 20.607 31.125 19C31.1227 16.8458 30.266 14.7805 28.7427 13.2573C27.2195 11.734 25.1542 10.8773 23 10.875ZM26.5672 17.5672L22.1922 21.9422C22.1341 22.0003 22.0652 22.0464 21.9893 22.0779C21.9135 22.1093 21.8321 22.1255 21.75 22.1255C21.6679 22.1255 21.5865 22.1093 21.5107 22.0779C21.4348 22.0464 21.3659 22.0003 21.3078 21.9422L19.4328 20.0672C19.3155 19.9499 19.2497 19.7909 19.2497 19.625C19.2497 19.4591 19.3155 19.3001 19.4328 19.1828C19.5501 19.0655 19.7092 18.9997 19.875 18.9997C20.0409 18.9997 20.1999 19.0655 20.3172 19.1828L21.75 20.6164L25.6828 16.6828C25.7409 16.6247 25.8098 16.5787 25.8857 16.5473C25.9616 16.5158 26.0429 16.4997 26.125 16.4997C26.2071 16.4997 26.2884 16.5158 26.3643 16.5473C26.4402 16.5787 26.5091 16.6247 26.5672 16.6828C26.6253 16.7409 26.6713 16.8098 26.7027 16.8857C26.7342 16.9616 26.7504 17.0429 26.7504 17.125C26.7504 17.2071 26.7342 17.2884 26.7027 17.3643C26.6713 17.4402 26.6253 17.5091 26.5672 17.5672Z" fill="#38A254"/>
</g>
<defs>
<filter id="filter0_d_349_2968" x="0.142665" y="0.713867" width="45.7147" height="45.7154" filterUnits="userSpaceOnUse" color-interpolation-filters="sRGB">
<feFlood flood-opacity="0" result="BackgroundImageFix"/>
<feColorMatrix in="SourceAlpha" type="matrix" values="0 0 0 0 0 0 0 0 0 0 0 0 0 0 0 0 0 0 127 0" result="hardAlpha"/>
<feOffset dy="4.57157"/>
<feGaussianBlur stdDeviation="2.28578"/>
<feComposite in2="hardAlpha" operator="out"/>
<feColorMatrix type="matrix" values="0 0 0 0 0 0 0 0 0 0 0 0 0 0 0 0 0 0 0.06 0"/>
<feBlend mode="normal" in2="BackgroundImageFix" result="effect1_dropShadow_349_2968"/>
<feBlend mode="normal" in="SourceGraphic" in2="effect1_dropShadow_349_2968" result="shape"/>
</filter>
</defs>
</svg>
