<svg width="85" height="43" viewBox="0 0 85 43" fill="none" xmlns="http://www.w3.org/2000/svg">
  <g clip-path="url(#clip0_225_222)">
    <path d="M17.8891 41.9271H15.0987L14.8408 41.4889C14.9153 41.2901 14.9992 41.0881 15.0054 40.8706C15.0365 39.6587 15.1888 35.8055 14.5114 35.0006C13.5014 33.9907 11.4785 34.1709 11.1864 35.706C10.8664 37.3965 11.3977 39.7364 11.1491 41.4454C11.1181 41.6692 11.0404 41.7966 10.857 41.924H8.06656V36.2436C8.06656 36.0944 7.65327 35.0472 7.4979 34.8857C6.88574 34.2486 5.40038 34.2828 4.72918 34.7862C4.63596 34.8577 4.21335 35.6128 4.21335 35.6625V41.9209H1.13699V31.9087H4.21645L4.31278 32.872C6.08713 31.0573 8.98325 31.4706 10.481 33.4469H10.6644C12.2896 31.0728 16.295 31.1412 17.5442 33.8913C17.6064 34.0311 17.8891 34.8422 17.8891 34.895V41.9209V41.9271Z" fill="#6D2DD3"/>
    <path d="M42.3384 28.6426V41.9268H39.2589V40.5782C37.7953 42.0511 35.2783 42.511 33.5816 41.1531C29.9522 38.2476 31.7048 30.8551 37.0029 31.7655C37.8823 31.9178 38.5691 32.5735 39.2589 33.0707V28.6426H42.3384ZM36.5088 34.4597C34.3989 34.8264 34.2746 38.3409 36.1732 39.1333C39.7375 40.6217 40.6231 33.745 36.5088 34.4597Z" fill="#6D2DD3"/>
    <path d="M26.938 41.9267V40.7708C26.4564 41.0815 26.0586 41.5414 25.5024 41.7434C17.8302 44.5401 17.3827 29.1707 25.723 32.07L26.938 32.8748L26.9629 32.0327L27.2519 31.7437L30.0299 31.8058L30.2133 32.2005C30.0175 35.1339 30.4619 38.3656 30.2195 41.2617C30.1946 41.5538 30.1977 41.7496 29.9212 41.9267H26.938ZM24.1817 34.4565C22.6777 34.7952 22.2458 37.2345 23.0848 38.3656C24.1103 39.7484 26.3259 39.4998 26.851 37.8933C27.4725 36.0009 26.3134 33.9717 24.1817 34.4565Z" fill="#6D2DD3"/>
    <path d="M81.4205 41.927V40.5784C79.2671 42.7691 76.0261 42.4273 74.5221 39.6803C72.4214 35.8489 75.243 30.1529 80.016 32.0702L81.4237 33.0708V31.9149H84.5031V41.638L84.2141 41.927H81.4237H81.4205ZM78.4747 34.4567C76.1783 34.9757 76.6196 39.4814 79.1708 39.3696C82.4211 39.2297 81.9923 33.6612 78.4747 34.4567Z" fill="#6D2DD3"/>
    <path d="M59.0875 41.9265V40.5779C57.9191 41.6996 57.0086 42.1005 55.3493 41.911C51.0828 41.42 50.3649 34.4438 53.8235 32.3308C55.6289 31.2276 57.6363 31.6192 59.0875 33.0703V31.9144H62.1701V41.9265H59.0906H59.0875ZM56.3343 34.4562C54.1249 34.9286 54.2399 38.6886 56.3871 39.338C57.3815 39.6394 58.9228 38.6233 59.0813 37.5854C59.3641 35.7085 58.4194 34.0088 56.3374 34.4562H56.3343Z" fill="#6D2DD3"/>
    <path d="M72.5644 35.1867H69.6776L69.2892 34.3228C68.8324 33.9251 67.9188 33.9562 67.3595 34.1146C66.8964 34.907 67.1606 35.2271 67.8939 35.5254C69.6061 36.2246 72.2754 36.1003 72.5582 38.5676C73.0833 43.1479 64.2241 43.0609 63.904 38.6515H66.9835L67.2165 39.3817C67.7727 39.6707 69.0934 39.8261 69.4974 39.3382L69.6621 38.7789C68.329 37.2904 64.6653 37.9461 64.2955 35.4695C63.5529 30.4976 72.3407 30.3764 72.5675 35.1867H72.5644Z" fill="#6D2DD3"/>
    <path d="M44.4577 31.9143H47.5402L47.6366 33.4525C48.5129 32.3929 49.3892 31.79 50.8124 31.7217V34.9938C49.9734 34.9472 48.286 34.9472 47.8789 35.8142C47.8199 35.9385 47.5402 36.7713 47.5402 36.8241V41.9265H44.7498L44.4608 41.6375V31.9143H44.4577Z" fill="#6D2DD3"/>
    <path d="M53.3107 23.8293C53.1429 22.6919 52.77 21.682 52.9689 20.5012C54.1808 13.3448 66.4737 13.8109 68.3289 6.88756C67.4712 6.97457 66.4955 6.56128 65.9175 5.92736C65.7435 5.73781 65.5633 5.65702 65.6347 5.34627C66.0511 5.32763 66.2686 5.65702 66.6975 5.72227C70.299 6.26918 70.8925 1.11085 67.3656 0.915081C68.0119 0.0791824 69.4724 0.588801 70.1591 1.10774C72.5115 2.8883 71.4674 6.71354 68.5215 6.88445C69.0964 8.67433 70.5662 10.2498 72.1168 11.2784C75.6593 13.6276 83.3409 15.5449 83.9064 20.4732C84.0369 21.6106 83.8225 22.7044 83.7293 23.8261H53.3107V23.8293Z" fill="#6D2DD3"/>
    <path d="M84.3104 24.4072H52.7358V30.3766H84.3104V24.4072Z" fill="#6D2DD3"/>
    <path d="M23.6596 19.4004C24.393 21.9516 25.6608 25.8856 22.3172 27.0074C21.1799 27.3896 18.8711 27.5263 18.4609 26.1373H18.175C17.9979 26.215 17.9606 26.535 17.827 26.6531C16.7705 27.5978 13.7097 27.5387 12.9763 26.1373C11.8141 27.4486 9.30643 27.576 7.76515 26.9173C7.1623 26.6593 6.48489 25.8141 6.17104 25.2361C5.62102 24.2231 5.52469 22.2903 3.75967 23.2722C2.34268 24.0615 2.94552 25.261 3.25316 26.5195C2.58196 26.476 1.37627 27.3958 0.975415 26.5848C-0.718133 23.1542 2.37065 20.2052 5.81057 20.7894C8.23747 21.1996 7.44508 24.3754 9.16349 24.7514C11.7302 25.3138 11.8421 23.7632 12.1093 21.7092L14.4213 22.0976C14.2286 22.6228 13.9427 24.1361 14.2659 24.5618L16.2174 24.7607C17.2242 24.4655 17.0781 21.6408 17.6126 21.5352L19.62 21.9081C19.5641 22.8869 18.8587 24.1796 19.9401 24.7638C20.6517 24.8322 21.4627 24.9285 22.0313 24.4189C22.6622 23.4494 21.0618 20.2239 21.3539 19.9908L23.6565 19.4097L23.6596 19.4004Z" fill="#6D2DD3"/>
    <path d="M40.0824 24.3539C40.6449 24.9847 41.9779 24.9816 42.5062 24.2855C43.3639 23.1544 43.5317 21.7685 44.8523 20.8549C47.6676 18.9035 50.9429 22.39 49.7558 25.3731C48.8174 27.7254 46.0052 27.3836 44.1376 26.3582C42.5559 27.4116 40.5175 27.6229 38.9731 26.383C37.4753 27.4147 35.7444 27.4644 34.0105 27.0574C33.6749 26.9797 32.4661 26.6938 32.5407 26.265L33.2958 24.4098C34.284 24.8355 37.6524 25.3638 37.2547 23.633C37.0278 22.6417 35.4057 20.4945 35.4026 20.0719C35.4026 19.7735 36.7979 18.8227 37.0465 18.8165C37.6711 18.804 38.8954 21.29 39.1626 21.9083C39.4299 22.5267 39.6878 23.9157 40.0824 24.357V24.3539ZM46.117 22.6945C44.3924 24.4036 45.5422 25.0437 47.5465 24.705C48.1338 24.3197 47.4191 22.9152 46.8286 22.7038L46.117 22.6945Z" fill="#6D2DD3"/>
    <path d="M25.4092 30.746L24.8312 28.6516C26.1518 28.4061 28.3395 26.9704 28.6285 25.6156C28.9454 24.1365 27.9417 23.0551 27.7149 21.7189L29.7098 20.9482C32.7303 25.019 30.207 30.0872 25.4061 30.746H25.4092Z" fill="#6D2DD3"/>
  </g>
  <defs>
    <clipPath id="clip0_225_222">
      <rect width="84" height="41.6116" fill="white" transform="translate(0.5 0.473633)"/>
    </clipPath>
  </defs>
</svg>